<?xml version="1.0" encoding="UTF-8" standalone="no"?>
<!-- Created with Inkscape (http://www.inkscape.org/) -->

<svg
   xmlns:dc="http://purl.org/dc/elements/1.1/"
   xmlns:cc="http://creativecommons.org/ns#"
   xmlns:rdf="http://www.w3.org/1999/02/22-rdf-syntax-ns#"
   xmlns:svg="http://www.w3.org/2000/svg"
   xmlns="http://www.w3.org/2000/svg"
   xmlns:sodipodi="http://sodipodi.sourceforge.net/DTD/sodipodi-0.dtd"
   xmlns:inkscape="http://www.inkscape.org/namespaces/inkscape"
   width="210mm"
   height="297mm"
   viewBox="0 0 744.09448819 1052.3622047"
   id="svg2"
   version="1.1"
   inkscape:version="0.91 r13725"
   sodipodi:docname="lighter.svg">
  <defs
     id="defs4">
    <marker
       orient="auto"
       id="DistanceX"
       style="overflow:visible"
       refX="0.0"
       refY="0.0">
      <path
         id="path4143"
         d="M 3,-3 L -3,3 M 0,-5 L  0,5"
         style="stroke:#000000; stroke-width:0.5" />
    </marker>
    <pattern
       id="Hatch"
       x="0"
       y="0"
       patternUnits="userSpaceOnUse"
       width="8"
       height="8">
      <path
         id="path4146"
         d="M8 4 l-4,4"
         stroke-width="0.25"
         stroke="#000000"
         linecap="square" />
      <path
         id="path4148"
         d="M6 2 l-4,4"
         stroke-width="0.25"
         stroke="#000000"
         linecap="square" />
      <path
         id="path4150"
         d="M4 0 l-4,4"
         stroke-width="0.25"
         stroke="#000000"
         linecap="square" />
    </pattern>
    <symbol
       id="*Model_Space" />
    <symbol
       id="*Paper_Space" />
    <symbol
       id="logo_rust">
      <path
         id="path4155"
         d="M 808.724863,-445.848109 C 808.724863,-448.995646 810.404054,-451.904092 813.129902,-453.477859"
         style="stroke:#FF0000;fill:none;stroke-linecap: round" />
      <path
         id="path4157"
         d="M 813.129902,-453.477859 C 815.855751,-455.051629 819.214133,-455.051629 821.939981,-453.477859"
         style="stroke:#FF0000;fill:none;stroke-linecap: round" />
      <path
         id="path4159"
         d="M 821.939981,-453.477859 C 824.665830,-451.904092 826.345020,-448.995646 826.345020,-445.848109"
         style="stroke:#FF0000;fill:none;stroke-linecap: round" />
      <path
         id="path4161"
         d="M 826.345020,-445.848109 C 826.345020,-442.700571 824.665830,-439.792126 821.939981,-438.218355"
         style="stroke:#FF0000;fill:none;stroke-linecap: round" />
      <path
         id="path4163"
         d="M 821.939981,-438.218355 C 819.214133,-436.644588 815.855751,-436.644588 813.129902,-438.218355"
         style="stroke:#FF0000;fill:none;stroke-linecap: round" />
      <path
         id="path4165"
         d="M 813.129902,-438.218355 C 810.404054,-439.792126 808.724863,-442.700571 808.724863,-445.848109"
         style="stroke:#FF0000;fill:none;stroke-linecap: round" />
      <path
         id="path4167"
         d="M 703.624706,-366.081180 C 703.624706,-369.228717 705.303896,-372.137163 708.029745,-373.710930"
         style="stroke:#FF0000;fill:none;stroke-linecap: round" />
      <path
         id="path4169"
         d="M 708.029745,-373.710930 C 710.755593,-375.284700 714.113975,-375.284700 716.839824,-373.710930"
         style="stroke:#FF0000;fill:none;stroke-linecap: round" />
      <path
         id="path4171"
         d="M 716.839824,-373.710930 C 719.565672,-372.137163 721.244863,-369.228717 721.244863,-366.081180"
         style="stroke:#FF0000;fill:none;stroke-linecap: round" />
      <path
         id="path4173"
         d="M 721.244863,-366.081180 C 721.244863,-362.933642 719.565672,-360.025196 716.839824,-358.451426"
         style="stroke:#FF0000;fill:none;stroke-linecap: round" />
      <path
         id="path4175"
         d="M 716.839824,-358.451426 C 714.113975,-356.877659 710.755593,-356.877659 708.029745,-358.451426"
         style="stroke:#FF0000;fill:none;stroke-linecap: round" />
      <path
         id="path4177"
         d="M 708.029745,-358.451426 C 705.303896,-360.025196 703.624706,-362.933642 703.624706,-366.081180"
         style="stroke:#FF0000;fill:none;stroke-linecap: round" />
      <path
         id="path4179"
         d="M 913.822186,-365.670156 C 913.822186,-368.817693 915.501377,-371.726139 918.227225,-373.299906"
         style="stroke:#FF0000;fill:none;stroke-linecap: round" />
      <path
         id="path4181"
         d="M 918.227225,-373.299906 C 920.953074,-374.873676 924.311456,-374.873676 927.037304,-373.299906"
         style="stroke:#FF0000;fill:none;stroke-linecap: round" />
      <path
         id="path4183"
         d="M 927.037304,-373.299906 C 929.763152,-371.726139 931.442343,-368.817693 931.442343,-365.670156"
         style="stroke:#FF0000;fill:none;stroke-linecap: round" />
      <path
         id="path4185"
         d="M 931.442343,-365.670156 C 931.442343,-362.522619 929.763152,-359.614173 927.037304,-358.040402"
         style="stroke:#FF0000;fill:none;stroke-linecap: round" />
      <path
         id="path4187"
         d="M 927.037304,-358.040402 C 924.311456,-356.466635 920.953074,-356.466635 918.227225,-358.040402"
         style="stroke:#FF0000;fill:none;stroke-linecap: round" />
      <path
         id="path4189"
         d="M 918.227225,-358.040402 C 915.501377,-359.614173 913.822186,-362.522619 913.822186,-365.670156"
         style="stroke:#FF0000;fill:none;stroke-linecap: round" />
      <path
         id="path4191"
         d="M 729.128013,-353.600235 C 733.181556,-355.400235 735.012737,-360.151101 733.212737,-364.213148"
         style="stroke:#FF0000;fill:none;stroke-linecap: round" />
      <path
         id="path4193"
         d="M 713.662186,-303.761494 C 709.833937,-317.208054 708.641344,-331.267907 710.150060,-345.167164"
         style="stroke:#FF0000;fill:none;stroke-linecap: round" />
      <path
         id="path4195"
         d="M 733.212737,-364.213148 L 729.303761,-373.051573 L 744.676044,-373.051573 L 744.676044,-303.761494 L 713.662186,-303.761494 L 733.212737,-364.213148 z"
         style="stroke:#FF0000;fill:none;stroke-linecap: round" />
      <path
         id="path4197"
         d="M 710.150060,-345.167164 L 729.128013,-353.600235 L 710.150060,-345.167164 z"
         style="stroke:#FF0000;fill:none;stroke-linecap: round" />
      <path
         id="path4199"
         d="M 830.038564,-372.320235 C 831.929272,-372.320235 843.389745,-370.134723 843.389745,-361.565589"
         style="stroke:#FF0000;fill:none;stroke-linecap: round" />
      <path
         id="path4201"
         d="M 843.389745,-361.565589 C 843.389745,-354.450628 834.599509,-351.899447 827.371162,-351.899447"
         style="stroke:#FF0000;fill:none;stroke-linecap: round" />
      <path
         id="path4203"
         d="M 793.431950,-351.896613 L 793.431950,-372.320235 L 830.038564,-372.320235 L 793.431950,-351.896613 z"
         style="stroke:#FF0000;fill:none;stroke-linecap: round" />
      <path
         id="path4205"
         d="M 743.454312,-241.932203 C 743.454312,-245.079741 745.133503,-247.988186 747.859351,-249.561953"
         style="stroke:#FF0000;fill:none;stroke-linecap: round" />
      <path
         id="path4207"
         d="M 747.859351,-249.561953 C 750.585200,-251.135724 753.943581,-251.135724 756.669430,-249.561953"
         style="stroke:#FF0000;fill:none;stroke-linecap: round" />
      <path
         id="path4209"
         d="M 756.669430,-249.561953 C 759.395278,-247.988186 761.074469,-245.079741 761.074469,-241.932203"
         style="stroke:#FF0000;fill:none;stroke-linecap: round" />
      <path
         id="path4211"
         d="M 761.074469,-241.932203 C 761.074469,-238.784666 759.395278,-235.876220 756.669430,-234.302450"
         style="stroke:#FF0000;fill:none;stroke-linecap: round" />
      <path
         id="path4213"
         d="M 756.669430,-234.302450 C 753.943581,-232.728683 750.585200,-232.728683 747.859351,-234.302450"
         style="stroke:#FF0000;fill:none;stroke-linecap: round" />
      <path
         id="path4215"
         d="M 747.859351,-234.302450 C 745.133503,-235.876220 743.454312,-238.784666 743.454312,-241.932203"
         style="stroke:#FF0000;fill:none;stroke-linecap: round" />
      <path
         id="path4217"
         d="M 873.992580,-241.521180 C 873.992580,-244.668717 875.671770,-247.577163 878.397619,-249.150930"
         style="stroke:#FF0000;fill:none;stroke-linecap: round" />
      <path
         id="path4219"
         d="M 878.397619,-249.150930 C 881.123467,-250.724700 884.481849,-250.724700 887.207698,-249.150930"
         style="stroke:#FF0000;fill:none;stroke-linecap: round" />
      <path
         id="path4221"
         d="M 887.207698,-249.150930 C 889.933546,-247.577163 891.612737,-244.668717 891.612737,-241.521180"
         style="stroke:#FF0000;fill:none;stroke-linecap: round" />
      <path
         id="path4223"
         d="M 891.612737,-241.521180 C 891.612737,-238.373642 889.933546,-235.465196 887.207698,-233.891426"
         style="stroke:#FF0000;fill:none;stroke-linecap: round" />
      <path
         id="path4225"
         d="M 887.207698,-233.891426 C 884.481849,-232.317659 881.123467,-232.317659 878.397619,-233.891426"
         style="stroke:#FF0000;fill:none;stroke-linecap: round" />
      <path
         id="path4227"
         d="M 878.397619,-233.891426 C 875.671770,-235.465196 873.992580,-238.373642 873.992580,-241.521180"
         style="stroke:#FF0000;fill:none;stroke-linecap: round" />
      <path
         id="path4229"
         d="M 876.716674,-261.499762 C 872.376831,-262.429526 868.107855,-259.668581 867.178091,-255.320235"
         style="stroke:#FF0000;fill:none;stroke-linecap: round" />
      <path
         id="path4231"
         d="M 827.371162,-351.899447 L 793.431950,-351.896613 L 827.371162,-351.899447 z"
         style="stroke:#FF0000;fill:none;stroke-linecap: round" />
      <path
         id="path4233"
         d="M 862.756044,-234.684014 C 833.979465,-221.648985 800.949930,-221.807346 772.299666,-235.117715"
         style="stroke:#FF0000;fill:none;stroke-linecap: round" />
      <path
         id="path4235"
         d="M 867.178091,-255.320235 L 862.756044,-234.684014 L 867.178091,-255.320235 z"
         style="stroke:#FF0000;fill:none;stroke-linecap: round" />
      <path
         id="path4237"
         d="M 767.880454,-255.753935 C 766.950690,-260.096613 762.681713,-262.863227 758.344706,-261.930628"
         style="stroke:#FF0000;fill:none;stroke-linecap: round" />
      <path
         id="path4239"
         d="M 772.299666,-235.117715 L 767.880454,-255.753935 L 772.299666,-235.117715 z"
         style="stroke:#FF0000;fill:none;stroke-linecap: round" />
      <path
         id="path4241"
         d="M 740.126438,-258.018817 C 736.741442,-261.504758 733.594511,-265.214218 730.706910,-269.122124"
         style="stroke:#FF0000;fill:none;stroke-linecap: round" />
      <path
         id="path4243"
         d="M 758.344706,-261.930628 L 740.126438,-258.018817 L 758.344706,-261.930628 z"
         style="stroke:#FF0000;fill:none;stroke-linecap: round" />
      <path
         id="path4245"
         d="M 819.351950,-269.122124 C 820.355414,-269.122124 821.024391,-269.303542 821.024391,-270.216298"
         style="stroke:#FF0000;fill:none;stroke-linecap: round" />
      <path
         id="path4247"
         d="M 730.706910,-269.122124 L 819.351950,-269.122124 L 730.706910,-269.122124 z"
         style="stroke:#FF0000;fill:none;stroke-linecap: round" />
      <path
         id="path4249"
         d="M 821.024391,-301.573148 C 821.024391,-302.485904 820.355414,-302.667321 819.351950,-302.667321"
         style="stroke:#FF0000;fill:none;stroke-linecap: round" />
      <path
         id="path4251"
         d="M 821.024391,-270.216298 L 821.024391,-301.573148 L 821.024391,-270.216298 z"
         style="stroke:#FF0000;fill:none;stroke-linecap: round" />
      <path
         id="path4253"
         d="M 821.466595,-322.543857 C 824.026280,-322.543857 835.152265,-321.812518 838.709745,-307.591101"
         style="stroke:#FF0000;fill:none;stroke-linecap: round" />
      <path
         id="path4255"
         d="M 838.709745,-307.591101 C 839.823761,-303.217243 842.270060,-288.990156 843.942501,-284.434880"
         style="stroke:#FF0000;fill:none;stroke-linecap: round" />
      <path
         id="path4257"
         d="M 843.942501,-284.434880 C 845.609272,-279.326849 852.395414,-269.122124 859.626595,-269.122124"
         style="stroke:#FF0000;fill:none;stroke-linecap: round" />
      <path
         id="path4259"
         d="M 819.351950,-302.667321 L 793.426280,-302.667321 L 793.426280,-322.543857 L 821.466595,-322.543857 L 819.351950,-302.667321 z"
         style="stroke:#FF0000;fill:none;stroke-linecap: round" />
      <path
         id="path4261"
         d="M 905.394784,-269.122124 C 902.325224,-265.013596 898.968139,-261.127942 895.348800,-257.494408"
         style="stroke:#FF0000;fill:none;stroke-linecap: round" />
      <path
         id="path4263"
         d="M 859.626595,-269.122124 L 905.394784,-269.122124 L 859.626595,-269.122124 z"
         style="stroke:#FF0000;fill:none;stroke-linecap: round" />
      <path
         id="path4265"
         d="M 925.940296,-344.291258 C 926.562604,-338.032935 926.639430,-331.732343 926.169902,-325.460707"
         style="stroke:#FF0000;fill:none;stroke-linecap: round" />
      <path
         id="path4267"
         d="M 895.348800,-257.494408 L 876.716674,-261.499762 L 895.348800,-257.494408 z"
         style="stroke:#FF0000;fill:none;stroke-linecap: round" />
      <path
         id="path4269"
         d="M 915.041083,-325.460707 C 913.927068,-325.460707 913.479194,-324.729369 913.479194,-323.638030"
         style="stroke:#FF0000;fill:none;stroke-linecap: round" />
      <path
         id="path4271"
         d="M 926.169902,-325.460707 L 915.041083,-325.460707 L 926.169902,-325.460707 z"
         style="stroke:#FF0000;fill:none;stroke-linecap: round" />
      <path
         id="path4273"
         d="M 913.479194,-318.527164 C 913.479194,-306.496928 906.695887,-303.880550 900.751635,-303.214408"
         style="stroke:#FF0000;fill:none;stroke-linecap: round" />
      <path
         id="path4275"
         d="M 900.751635,-303.214408 C 895.090847,-302.576613 888.814942,-305.584172 888.041083,-309.048109"
         style="stroke:#FF0000;fill:none;stroke-linecap: round" />
      <path
         id="path4277"
         d="M 888.041083,-309.048109 C 884.701871,-327.830471 879.137461,-331.841494 870.350060,-338.772203"
         style="stroke:#FF0000;fill:none;stroke-linecap: round" />
      <path
         id="path4279"
         d="M 870.350060,-338.772203 C 881.254942,-345.697243 892.602028,-355.913306 892.602028,-369.587636"
         style="stroke:#FF0000;fill:none;stroke-linecap: round" />
      <path
         id="path4281"
         d="M 892.602028,-369.587636 C 892.602028,-384.353306 882.479509,-393.653778 875.579981,-398.214723"
         style="stroke:#FF0000;fill:none;stroke-linecap: round" />
      <path
         id="path4283"
         d="M 875.579981,-398.214723 C 865.899666,-404.595510 855.181871,-405.873935 852.290532,-405.873935"
         style="stroke:#FF0000;fill:none;stroke-linecap: round" />
      <path
         id="path4285"
         d="M 852.290532,-405.873935 C 852.290532,-405.873935 737.195414,-405.873935 737.195414,-405.873935"
         style="stroke:#FF0000;fill:none;stroke-linecap: round" />
      <path
         id="path4287"
         d="M 737.195414,-405.873935 C 753.106170,-423.653535 774.435285,-435.691013 797.879509,-440.122124"
         style="stroke:#FF0000;fill:none;stroke-linecap: round" />
      <path
         id="path4289"
         d="M 913.479194,-323.638030 L 913.479194,-318.527164 L 913.479194,-323.638030 z"
         style="stroke:#FF0000;fill:none;stroke-linecap: round" />
      <path
         id="path4291"
         d="M 811.446123,-425.889369 C 814.513209,-422.677715 819.592894,-422.558660 822.801713,-425.628581"
         style="stroke:#FF0000;fill:none;stroke-linecap: round" />
      <path
         id="path4293"
         d="M 822.801713,-425.628581 C 822.801713,-425.628581 837.981241,-440.147636 837.981241,-440.147636"
         style="stroke:#FF0000;fill:none;stroke-linecap: round" />
      <path
         id="path4295"
         d="M 837.981241,-440.147636 C 869.299714,-434.281333 896.454772,-414.941283 912.237619,-387.261652"
         style="stroke:#FF0000;fill:none;stroke-linecap: round" />
      <path
         id="path4297"
         d="M 797.879509,-440.122124 L 811.446123,-425.889369 L 797.879509,-440.122124 z"
         style="stroke:#FF0000;fill:none;stroke-linecap: round" />
      <path
         id="path4299"
         d="M 901.845808,-363.790786 C 900.051477,-359.728739 901.882658,-354.977872 905.933367,-353.177872"
         style="stroke:#FF0000;fill:none;stroke-linecap: round" />
      <path
         id="path4301"
         d="M 912.237619,-387.261652 L 901.845808,-363.790786 L 912.237619,-387.261652 z"
         style="stroke:#FF0000;fill:none;stroke-linecap: round" />
      <path
         id="path4303"
         d="M 905.933367,-353.177872 L 925.940296,-344.291258 L 905.933367,-353.177872 z"
         style="stroke:#FF0000;fill:none;stroke-linecap: round" />
      <path
         id="path4305"
         d="M 962.206753,-357.523384 C 964.383761,-359.552991 963.570217,-363.637715 960.786595,-364.675195"
         style="stroke:#FF0000;fill:none;stroke-linecap: round" />
      <path
         id="path4307"
         d="M 951.857461,-343.911416 L 951.503131,-347.539762 L 962.206753,-357.523384 L 951.857461,-343.911416 z"
         style="stroke:#FF0000;fill:none;stroke-linecap: round" />
      <path
         id="path4309"
         d="M 954.567383,-385.178187 C 956.307855,-387.587636 954.709115,-391.434250 951.778091,-391.916140"
         style="stroke:#FF0000;fill:none;stroke-linecap: round" />
      <path
         id="path4311"
         d="M 960.786595,-364.675195 L 947.103761,-369.791731 L 946.032265,-373.323699 L 954.567383,-385.178187 L 960.786595,-364.675195 z"
         style="stroke:#FF0000;fill:none;stroke-linecap: round" />
      <path
         id="path4313"
         d="M 941.678249,-410.811888 C 942.919824,-413.521809 940.612422,-416.988581 937.630375,-416.875195"
         style="stroke:#FF0000;fill:none;stroke-linecap: round" />
      <path
         id="path4315"
         d="M 951.778091,-391.916140 L 937.349745,-394.263227 L 935.614942,-397.503227 L 941.678249,-410.811888 L 951.778091,-391.916140 z"
         style="stroke:#FF0000;fill:none;stroke-linecap: round" />
      <path
         id="path4317"
         d="M 924.038249,-433.435195 C 924.718564,-436.332203 921.779036,-439.274565 918.882028,-438.594250"
         style="stroke:#FF0000;fill:none;stroke-linecap: round" />
      <path
         id="path4319"
         d="M 937.630375,-416.875195 L 922.986595,-416.364959 L 920.673524,-419.171258 L 924.038249,-433.435195 L 937.630375,-416.875195 z"
         style="stroke:#FF0000;fill:none;stroke-linecap: round" />
      <path
         id="path4321"
         d="M 902.322028,-452.189211 C 902.435414,-455.154250 898.965808,-457.470156 896.261556,-456.239920"
         style="stroke:#FF0000;fill:none;stroke-linecap: round" />
      <path
         id="path4323"
         d="M 918.882028,-438.594250 L 904.620926,-435.232361 L 901.808957,-437.545431 L 902.322028,-452.189211 L 918.882028,-438.594250 z"
         style="stroke:#FF0000;fill:none;stroke-linecap: round" />
      <path
         id="path4325"
         d="M 877.362973,-466.342597 C 876.886753,-469.267951 873.037304,-470.866691 870.627855,-469.131888"
         style="stroke:#FF0000;fill:none;stroke-linecap: round" />
      <path
         id="path4327"
         d="M 896.261556,-456.239920 L 882.955729,-450.173778 L 879.715729,-451.911416 L 877.362973,-466.342597 L 896.261556,-456.239920 z"
         style="stroke:#FF0000;fill:none;stroke-linecap: round" />
      <path
         id="path4329"
         d="M 850.122028,-475.351101 C 849.084548,-478.140392 844.996989,-478.942597 842.973052,-476.776928"
         style="stroke:#FF0000;fill:none;stroke-linecap: round" />
      <path
         id="path4331"
         d="M 870.627855,-469.131888 L 858.764863,-460.596770 L 855.238564,-461.665431 L 850.122028,-475.351101 L 870.627855,-469.131888 z"
         style="stroke:#FF0000;fill:none;stroke-linecap: round" />
      <path
         id="path4333"
         d="M 821.650847,-478.877400 C 820.091792,-481.400235 815.916359,-481.400235 814.362973,-478.877400"
         style="stroke:#FF0000;fill:none;stroke-linecap: round" />
      <path
         id="path4335"
         d="M 842.973052,-476.776928 L 832.989430,-466.064802 L 829.361083,-466.419132 L 821.650847,-478.877400 L 842.973052,-476.776928 z"
         style="stroke:#FF0000;fill:none;stroke-linecap: round" />
      <path
         id="path4337"
         d="M 793.035099,-476.776928 C 791.011162,-478.942597 786.923603,-478.140392 785.886123,-475.351101"
         style="stroke:#FF0000;fill:none;stroke-linecap: round" />
      <path
         id="path4339"
         d="M 814.362973,-478.877400 L 806.652737,-466.419132 L 803.021556,-466.064802 L 793.035099,-476.776928 L 814.362973,-478.877400 z"
         style="stroke:#FF0000;fill:none;stroke-linecap: round" />
      <path
         id="path4341"
         d="M 765.380296,-469.131888 C 762.970847,-470.872361 759.118564,-469.267951 758.642343,-466.342597"
         style="stroke:#FF0000;fill:none;stroke-linecap: round" />
      <path
         id="path4343"
         d="M 785.886123,-475.351101 L 780.769587,-461.665431 L 777.240454,-460.596770 L 765.380296,-469.131888 L 785.886123,-475.351101 z"
         style="stroke:#FF0000;fill:none;stroke-linecap: round" />
      <path
         id="path4345"
         d="M 739.743761,-456.239920 C 737.039509,-457.475825 733.569902,-455.154250 733.683288,-452.189211"
         style="stroke:#FF0000;fill:none;stroke-linecap: round" />
      <path
         id="path4347"
         d="M 758.642343,-466.342597 L 756.289587,-451.911416 L 753.049587,-450.173778 L 739.743761,-456.239920 L 758.642343,-466.342597 z"
         style="stroke:#FF0000;fill:none;stroke-linecap: round" />
      <path
         id="path4349"
         d="M 717.120454,-438.594250 C 714.223446,-439.268896 711.281083,-436.332203 711.961398,-433.435195"
         style="stroke:#FF0000;fill:none;stroke-linecap: round" />
      <path
         id="path4351"
         d="M 733.683288,-452.189211 L 734.193524,-437.545431 L 731.381556,-435.232361 L 717.120454,-438.594250 L 733.683288,-452.189211 z"
         style="stroke:#FF0000;fill:none;stroke-linecap: round" />
      <path
         id="path4353"
         d="M 698.369272,-416.875195 C 695.415572,-416.960235 693.088328,-413.521809 694.318564,-410.811888"
         style="stroke:#FF0000;fill:none;stroke-linecap: round" />
      <path
         id="path4355"
         d="M 711.961398,-433.435195 L 715.320454,-419.171258 L 713.013052,-416.364959 L 698.369272,-416.875195 L 711.961398,-433.435195 z"
         style="stroke:#FF0000;fill:none;stroke-linecap: round" />
      <path
         id="path4357"
         d="M 684.218721,-391.916140 C 681.287698,-391.439920 679.700296,-387.587636 681.429430,-385.178187"
         style="stroke:#FF0000;fill:none;stroke-linecap: round" />
      <path
         id="path4359"
         d="M 694.318564,-410.811888 L 700.384706,-397.503227 L 698.647068,-394.263227 L 684.218721,-391.916140 L 694.318564,-410.811888 z"
         style="stroke:#FF0000;fill:none;stroke-linecap: round" />
      <path
         id="path4361"
         d="M 675.207383,-364.675195 C 672.429430,-363.637715 671.615887,-359.552991 673.787225,-357.523384"
         style="stroke:#FF0000;fill:none;stroke-linecap: round" />
      <path
         id="path4363"
         d="M 681.429430,-385.178187 L 689.964548,-373.323699 L 688.893052,-369.791731 L 675.207383,-364.675195 L 681.429430,-385.178187 z"
         style="stroke:#FF0000;fill:none;stroke-linecap: round" />
      <path
         id="path4365"
         d="M 671.683918,-336.201180 C 669.161083,-334.642124 669.161083,-330.466691 671.683918,-328.913306"
         style="stroke:#FF0000;fill:none;stroke-linecap: round" />
      <path
         id="path4367"
         d="M 673.787225,-357.523384 L 684.493682,-347.539762 L 684.139351,-343.911416 L 671.683918,-336.201180 L 673.787225,-357.523384 z"
         style="stroke:#FF0000;fill:none;stroke-linecap: round" />
      <path
         id="path4369"
         d="M 673.787225,-307.588266 C 671.615887,-305.564329 672.429430,-301.482439 675.207383,-300.439290"
         style="stroke:#FF0000;fill:none;stroke-linecap: round" />
      <path
         id="path4371"
         d="M 671.683918,-328.913306 L 684.139351,-321.203069 L 684.493682,-317.574723 L 673.787225,-307.588266 L 671.683918,-328.913306 z"
         style="stroke:#FF0000;fill:none;stroke-linecap: round" />
      <path
         id="path4373"
         d="M 681.429430,-279.933463 C 679.694627,-277.518345 681.290532,-273.668896 684.221556,-273.198345"
         style="stroke:#FF0000;fill:none;stroke-linecap: round" />
      <path
         id="path4375"
         d="M 675.207383,-300.439290 L 688.893052,-295.322754 L 689.964548,-291.790786 L 681.429430,-279.933463 L 675.207383,-300.439290 z"
         style="stroke:#FF0000;fill:none;stroke-linecap: round" />
      <path
         id="path4377"
         d="M 694.318564,-254.302597 C 693.082658,-251.598345 695.415572,-248.120235 698.369272,-248.239290"
         style="stroke:#FF0000;fill:none;stroke-linecap: round" />
      <path
         id="path4379"
         d="M 684.221556,-273.198345 L 698.647068,-270.851258 L 700.384706,-267.605589 L 694.318564,-254.302597 L 684.221556,-273.198345 z"
         style="stroke:#FF0000;fill:none;stroke-linecap: round" />
      <path
         id="path4381"
         d="M 711.961398,-231.673620 C 711.281083,-228.782282 714.223446,-225.845589 717.120454,-226.525904"
         style="stroke:#FF0000;fill:none;stroke-linecap: round" />
      <path
         id="path4383"
         d="M 698.369272,-248.239290 L 713.007383,-248.752361 L 715.320454,-245.940392 L 711.961398,-231.673620 L 698.369272,-248.239290 z"
         style="stroke:#FF0000;fill:none;stroke-linecap: round" />
      <path
         id="path4385"
         d="M 733.683288,-212.930943 C 733.569902,-209.965904 737.039509,-207.647164 739.743761,-208.883069"
         style="stroke:#FF0000;fill:none;stroke-linecap: round" />
      <path
         id="path4387"
         d="M 717.120454,-226.525904 L 731.381556,-229.884959 L 734.193524,-227.577557 L 733.683288,-212.930943 L 717.120454,-226.525904 z"
         style="stroke:#FF0000;fill:none;stroke-linecap: round" />
      <path
         id="path4389"
         d="M 758.642343,-198.786061 C 759.118564,-195.849369 762.970847,-194.261967 765.380296,-195.991101"
         style="stroke:#FF0000;fill:none;stroke-linecap: round" />
      <path
         id="path4391"
         d="M 739.743761,-208.883069 L 753.049587,-214.946376 L 756.289587,-213.208739 L 758.642343,-198.786061 L 739.743761,-208.883069 z"
         style="stroke:#FF0000;fill:none;stroke-linecap: round" />
      <path
         id="path4393"
         d="M 785.883288,-189.777557 C 786.920769,-186.999605 791.008328,-186.180392 793.032265,-188.357400"
         style="stroke:#FF0000;fill:none;stroke-linecap: round" />
      <path
         id="path4395"
         d="M 765.380296,-195.991101 L 777.234784,-204.531888 L 780.766753,-203.457557 L 785.883288,-189.777557 L 765.380296,-195.991101 z"
         style="stroke:#FF0000;fill:none;stroke-linecap: round" />
      <path
         id="path4397"
         d="M 814.360139,-186.245589 C 815.913524,-183.734093 820.088957,-183.728424 821.648013,-186.245589"
         style="stroke:#FF0000;fill:none;stroke-linecap: round" />
      <path
         id="path4399"
         d="M 793.032265,-188.357400 L 803.018721,-199.063857 L 806.649902,-198.701022 L 814.360139,-186.245589 L 793.032265,-188.357400 z"
         style="stroke:#FF0000;fill:none;stroke-linecap: round" />
      <path
         id="path4401"
         d="M 842.970217,-188.357400 C 844.994154,-186.180392 849.081713,-186.999605 850.119194,-189.777557"
         style="stroke:#FF0000;fill:none;stroke-linecap: round" />
      <path
         id="path4403"
         d="M 821.648013,-186.245589 L 829.358249,-198.701022 L 832.986595,-199.063857 L 842.970217,-188.357400 L 821.648013,-186.245589 z"
         style="stroke:#FF0000;fill:none;stroke-linecap: round" />
      <path
         id="path4405"
         d="M 870.625020,-195.991101 C 873.034469,-194.261967 876.883918,-195.855038 877.360139,-198.786061"
         style="stroke:#FF0000;fill:none;stroke-linecap: round" />
      <path
         id="path4407"
         d="M 850.119194,-189.777557 L 855.235729,-203.457557 L 858.767698,-204.531888 L 870.625020,-195.991101 L 850.119194,-189.777557 z"
         style="stroke:#FF0000;fill:none;stroke-linecap: round" />
      <path
         id="path4409"
         d="M 896.258721,-208.883069 C 898.962973,-207.647164 902.426910,-209.960235 902.319194,-212.930943"
         style="stroke:#FF0000;fill:none;stroke-linecap: round" />
      <path
         id="path4411"
         d="M 877.360139,-198.786061 L 879.712894,-213.208739 L 882.952894,-214.946376 L 896.258721,-208.883069 L 877.360139,-198.786061 z"
         style="stroke:#FF0000;fill:none;stroke-linecap: round" />
      <path
         id="path4413"
         d="M 918.879194,-226.525904 C 921.776202,-225.845589 924.715729,-228.782282 924.035414,-231.673620"
         style="stroke:#FF0000;fill:none;stroke-linecap: round" />
      <path
         id="path4415"
         d="M 902.319194,-212.930943 L 901.808957,-227.577557 L 904.618091,-229.884959 L 918.879194,-226.525904 L 902.319194,-212.930943 z"
         style="stroke:#FF0000;fill:none;stroke-linecap: round" />
      <path
         id="path4417"
         d="M 937.627540,-248.239290 C 940.581241,-248.120235 942.916989,-251.598345 941.675414,-254.302597"
         style="stroke:#FF0000;fill:none;stroke-linecap: round" />
      <path
         id="path4419"
         d="M 924.035414,-231.673620 L 920.676359,-245.940392 L 922.983761,-248.752361 L 937.627540,-248.239290 L 924.035414,-231.673620 z"
         style="stroke:#FF0000;fill:none;stroke-linecap: round" />
      <path
         id="path4421"
         d="M 951.775257,-273.198345 C 954.711950,-273.668896 956.305020,-277.518345 954.564548,-279.933463"
         style="stroke:#FF0000;fill:none;stroke-linecap: round" />
      <path
         id="path4423"
         d="M 941.675414,-254.302597 L 935.612107,-267.605589 L 937.346910,-270.851258 L 951.775257,-273.198345 L 941.675414,-254.302597 z"
         style="stroke:#FF0000;fill:none;stroke-linecap: round" />
      <path
         id="path4425"
         d="M 960.783761,-300.439290 C 963.567383,-301.482439 964.380926,-305.564329 962.203918,-307.588266"
         style="stroke:#FF0000;fill:none;stroke-linecap: round" />
      <path
         id="path4427"
         d="M 954.564548,-279.933463 L 946.029430,-291.790786 L 947.100926,-295.322754 L 960.783761,-300.439290 L 954.564548,-279.933463 z"
         style="stroke:#FF0000;fill:none;stroke-linecap: round" />
      <path
         id="path4429"
         d="M 964.310060,-328.913306 C 966.832894,-330.466691 966.835729,-334.642124 964.310060,-336.201180"
         style="stroke:#FF0000;fill:none;stroke-linecap: round" />
      <path
         id="path4431"
         d="M 962.203918,-307.588266 L 951.500296,-317.574723 L 951.854627,-321.203069 L 964.310060,-328.913306 L 962.203918,-307.588266 z"
         style="stroke:#FF0000;fill:none;stroke-linecap: round" />
      <path
         id="path4433"
         d="M 964.310060,-336.201180 L 951.857461,-343.911416 L 964.310060,-336.201180 z"
         style="stroke:#FF0000;fill:none;stroke-linecap: round" />
    </symbol>
    <symbol
       id="Cathar_cross">
      <path
         id="path4436"
         d="M 257.574171,781.857751 C 261.980709,836.443361 233.986465,901.707194 199.134680,946.972488"
         style="stroke:#FF0000;fill:none;stroke-linecap: round" />
      <path
         id="path4438"
         d="M 199.134680,946.972488 C 232.480984,957.323480 260.273530,972.929509 283.549209,997.185543"
         style="stroke:#FF0000;fill:none;stroke-linecap: round" />
      <path
         id="path4440"
         d="M 283.549209,997.185543 C 308.453924,969.695405 338.207187,955.154523 367.420620,946.249285"
         style="stroke:#FF0000;fill:none;stroke-linecap: round" />
      <path
         id="path4442"
         d="M 367.420620,946.249285 C 328.754721,897.456529 308.206772,832.250693 309.354661,781.534063"
         style="stroke:#FF0000;fill:none;stroke-linecap: round" />
      <path
         id="path4444"
         d="M 257.574171,755.937128 C 261.980709,701.351518 233.986465,636.087685 199.134680,590.822391"
         style="stroke:#FF0000;fill:none;stroke-linecap: round" />
      <path
         id="path4446"
         d="M 199.134680,590.822391 C 232.480984,580.471398 260.273530,564.865370 283.549209,540.609335"
         style="stroke:#FF0000;fill:none;stroke-linecap: round" />
      <path
         id="path4448"
         d="M 283.549209,540.609335 C 308.453924,568.099474 338.207187,582.640356 367.420620,591.545594"
         style="stroke:#FF0000;fill:none;stroke-linecap: round" />
      <path
         id="path4450"
         d="M 367.420620,591.545594 C 328.754721,640.338350 308.206772,705.544186 309.354661,756.260816"
         style="stroke:#FF0000;fill:none;stroke-linecap: round" />
      <path
         id="path4452"
         d="M 296.425049,794.787987 C 351.010658,790.381446 416.274491,818.375698 461.539786,853.227468"
         style="stroke:#FF0000;fill:none;stroke-linecap: round" />
      <path
         id="path4454"
         d="M 461.539786,853.227468 C 471.890778,819.881150 487.496806,792.088611 511.752841,768.812939"
         style="stroke:#FF0000;fill:none;stroke-linecap: round" />
      <path
         id="path4456"
         d="M 511.752841,768.812939 C 484.262702,743.908224 469.721820,714.154961 460.816583,684.941528"
         style="stroke:#FF0000;fill:none;stroke-linecap: round" />
      <path
         id="path4458"
         d="M 460.816583,684.941528 C 412.023827,723.607427 346.817991,744.155376 296.101361,743.007487"
         style="stroke:#FF0000;fill:none;stroke-linecap: round" />
      <path
         id="path4460"
         d="M 270.504397,794.787987 C 215.918787,790.381446 150.654954,818.375698 105.389660,853.227468"
         style="stroke:#FF0000;fill:none;stroke-linecap: round" />
      <path
         id="path4462"
         d="M 105.389660,853.227468 C 95.038668,819.881150 79.432639,792.088611 55.176605,768.812939"
         style="stroke:#FF0000;fill:none;stroke-linecap: round" />
      <path
         id="path4464"
         d="M 55.176605,768.812939 C 82.666743,743.908224 97.207625,714.154961 106.112863,684.941528"
         style="stroke:#FF0000;fill:none;stroke-linecap: round" />
      <path
         id="path4466"
         d="M 106.112863,684.941528 C 154.905619,723.607427 220.111455,744.155376 270.828085,743.007487"
         style="stroke:#FF0000;fill:none;stroke-linecap: round" />
      <path
         id="path4468"
         d="M 283.464553,1010.149785 C 289.103014,1010.149785 294.510540,1012.373469 298.497533,1016.331651"
         style="stroke:#FF0000;fill:none;stroke-linecap: round" />
      <path
         id="path4470"
         d="M 298.497533,1016.331651 C 302.484526,1020.289837 304.724392,1025.658283 304.724388,1031.256000"
         style="stroke:#FF0000;fill:none;stroke-linecap: round" />
      <path
         id="path4472"
         d="M 304.724388,1031.256000 C 304.724381,1042.912626 295.206031,1052.362187 283.464553,1052.362187"
         style="stroke:#FF0000;fill:none;stroke-linecap: round" />
      <path
         id="path4474"
         d="M 283.464553,1052.362187 C 271.723075,1052.362187 262.204728,1042.912626 262.204717,1031.256000"
         style="stroke:#FF0000;fill:none;stroke-linecap: round" />
      <path
         id="path4476"
         d="M 262.204717,1031.256000 C 262.204714,1025.658283 264.444583,1020.289837 268.431576,1016.331654"
         style="stroke:#FF0000;fill:none;stroke-linecap: round" />
      <path
         id="path4478"
         d="M 268.431576,1016.331654 C 272.418566,1012.373469 277.826092,1010.149785 283.464553,1010.149785"
         style="stroke:#FF0000;fill:none;stroke-linecap: round" />
      <path
         id="path4480"
         d="M 162.992119,938.976240 C 168.630580,938.976240 174.038102,941.216113 178.025095,945.203109"
         style="stroke:#FF0000;fill:none;stroke-linecap: round" />
      <path
         id="path4482"
         d="M 178.025095,945.203109 C 182.012088,949.190106 184.251958,954.597632 184.251954,960.236096"
         style="stroke:#FF0000;fill:none;stroke-linecap: round" />
      <path
         id="path4484"
         d="M 184.251954,960.236096 C 184.251947,971.977574 174.733593,981.495921 162.992119,981.495921"
         style="stroke:#FF0000;fill:none;stroke-linecap: round" />
      <path
         id="path4486"
         d="M 162.992119,981.495921 C 151.250641,981.495921 141.732291,971.977574 141.732283,960.236096"
         style="stroke:#FF0000;fill:none;stroke-linecap: round" />
      <path
         id="path4488"
         d="M 141.732283,960.236096 C 141.732280,954.597632 143.972146,949.190106 147.959139,945.203109"
         style="stroke:#FF0000;fill:none;stroke-linecap: round" />
      <path
         id="path4490"
         d="M 147.959139,945.203109 C 151.946132,941.216113 157.353658,938.976240 162.992119,938.976240"
         style="stroke:#FF0000;fill:none;stroke-linecap: round" />
      <path
         id="path4492"
         d="M 403.936994,938.976240 C 409.575455,938.976240 414.982981,941.216113 418.969974,945.203109"
         style="stroke:#FF0000;fill:none;stroke-linecap: round" />
      <path
         id="path4494"
         d="M 418.969974,945.203109 C 422.956967,949.190106 425.196833,954.597632 425.196829,960.236096"
         style="stroke:#FF0000;fill:none;stroke-linecap: round" />
      <path
         id="path4496"
         d="M 425.196829,960.236096 C 425.196822,971.977574 415.678472,981.495921 403.936994,981.495921"
         style="stroke:#FF0000;fill:none;stroke-linecap: round" />
      <path
         id="path4498"
         d="M 403.936994,981.495921 C 392.195516,981.495921 382.677169,971.977574 382.677158,960.236096"
         style="stroke:#FF0000;fill:none;stroke-linecap: round" />
      <path
         id="path4500"
         d="M 382.677158,960.236096 C 382.677155,954.597632 384.917024,949.190106 388.904017,945.203109"
         style="stroke:#FF0000;fill:none;stroke-linecap: round" />
      <path
         id="path4502"
         d="M 388.904017,945.203109 C 392.891007,941.216113 398.298533,938.976240 403.936994,938.976240"
         style="stroke:#FF0000;fill:none;stroke-linecap: round" />
      <path
         id="path4504"
         d="M 283.464553,527.645094 C 289.103014,527.645094 294.510540,525.421410 298.497533,521.463228"
         style="stroke:#FF0000;fill:none;stroke-linecap: round" />
      <path
         id="path4506"
         d="M 298.497533,521.463228 C 302.484526,517.505042 304.724392,512.136595 304.724388,506.538879"
         style="stroke:#FF0000;fill:none;stroke-linecap: round" />
      <path
         id="path4508"
         d="M 304.724388,506.538879 C 304.724381,494.882252 295.206031,485.432692 283.464553,485.432692"
         style="stroke:#FF0000;fill:none;stroke-linecap: round" />
      <path
         id="path4510"
         d="M 283.464553,485.432692 C 271.723075,485.432692 262.204728,494.882252 262.204717,506.538879"
         style="stroke:#FF0000;fill:none;stroke-linecap: round" />
      <path
         id="path4512"
         d="M 262.204717,506.538879 C 262.204714,512.136595 264.444583,517.505042 268.431576,521.463224"
         style="stroke:#FF0000;fill:none;stroke-linecap: round" />
      <path
         id="path4514"
         d="M 268.431576,521.463224 C 272.418566,525.421410 277.826092,527.645094 283.464553,527.645094"
         style="stroke:#FF0000;fill:none;stroke-linecap: round" />
      <path
         id="path4516"
         d="M 162.992119,598.818639 C 168.630580,598.818639 174.038102,596.578766 178.025095,592.591769"
         style="stroke:#FF0000;fill:none;stroke-linecap: round" />
      <path
         id="path4518"
         d="M 178.025095,592.591769 C 182.012088,588.604773 184.251958,583.197247 184.251954,577.558782"
         style="stroke:#FF0000;fill:none;stroke-linecap: round" />
      <path
         id="path4520"
         d="M 184.251954,577.558782 C 184.251947,565.817304 174.733593,556.298957 162.992119,556.298957"
         style="stroke:#FF0000;fill:none;stroke-linecap: round" />
      <path
         id="path4522"
         d="M 162.992119,556.298957 C 151.250641,556.298957 141.732291,565.817304 141.732283,577.558782"
         style="stroke:#FF0000;fill:none;stroke-linecap: round" />
      <path
         id="path4524"
         d="M 141.732283,577.558782 C 141.732280,583.197247 143.972146,588.604773 147.959139,592.591769"
         style="stroke:#FF0000;fill:none;stroke-linecap: round" />
      <path
         id="path4526"
         d="M 147.959139,592.591769 C 151.946132,596.578766 157.353658,598.818639 162.992119,598.818639"
         style="stroke:#FF0000;fill:none;stroke-linecap: round" />
      <path
         id="path4528"
         d="M 403.936994,598.818639 C 409.575455,598.818639 414.982981,596.578766 418.969974,592.591769"
         style="stroke:#FF0000;fill:none;stroke-linecap: round" />
      <path
         id="path4530"
         d="M 418.969974,592.591769 C 422.956967,588.604773 425.196833,583.197247 425.196829,577.558782"
         style="stroke:#FF0000;fill:none;stroke-linecap: round" />
      <path
         id="path4532"
         d="M 425.196829,577.558782 C 425.196822,565.817304 415.678472,556.298957 403.936994,556.298957"
         style="stroke:#FF0000;fill:none;stroke-linecap: round" />
      <path
         id="path4534"
         d="M 403.936994,556.298957 C 392.195516,556.298957 382.677169,565.817304 382.677158,577.558782"
         style="stroke:#FF0000;fill:none;stroke-linecap: round" />
      <path
         id="path4536"
         d="M 382.677158,577.558782 C 382.677155,583.197247 384.917024,588.604773 388.904017,592.591769"
         style="stroke:#FF0000;fill:none;stroke-linecap: round" />
      <path
         id="path4538"
         d="M 388.904017,592.591769 C 392.891007,596.578766 398.298533,598.818639 403.936994,598.818639"
         style="stroke:#FF0000;fill:none;stroke-linecap: round" />
      <path
         id="path4540"
         d="M 524.717054,768.897680 C 524.717054,763.259219 526.940738,757.851693 530.898920,753.864700"
         style="stroke:#FF0000;fill:none;stroke-linecap: round" />
      <path
         id="path4542"
         d="M 530.898920,753.864700 C 534.857106,749.877707 540.225553,747.637841 545.823269,747.637845"
         style="stroke:#FF0000;fill:none;stroke-linecap: round" />
      <path
         id="path4544"
         d="M 545.823269,747.637845 C 557.479896,747.637852 566.929456,757.156202 566.929456,768.897680"
         style="stroke:#FF0000;fill:none;stroke-linecap: round" />
      <path
         id="path4546"
         d="M 566.929456,768.897680 C 566.929456,780.639158 557.479896,790.157505 545.823269,790.157516"
         style="stroke:#FF0000;fill:none;stroke-linecap: round" />
      <path
         id="path4548"
         d="M 545.823269,790.157516 C 540.225553,790.157519 534.857106,787.917650 530.898924,783.930657"
         style="stroke:#FF0000;fill:none;stroke-linecap: round" />
      <path
         id="path4550"
         d="M 530.898924,783.930657 C 526.940738,779.943667 524.717054,774.536141 524.717054,768.897680"
         style="stroke:#FF0000;fill:none;stroke-linecap: round" />
      <path
         id="path4552"
         d="M 453.543509,889.370121 C 453.543509,883.731660 455.783382,878.324134 459.770379,874.337141"
         style="stroke:#FF0000;fill:none;stroke-linecap: round" />
      <path
         id="path4554"
         d="M 459.770379,874.337141 C 463.757375,870.350148 469.164901,868.110282 474.803366,868.110286"
         style="stroke:#FF0000;fill:none;stroke-linecap: round" />
      <path
         id="path4556"
         d="M 474.803366,868.110286 C 486.544844,868.110293 496.063191,877.628643 496.063191,889.370121"
         style="stroke:#FF0000;fill:none;stroke-linecap: round" />
      <path
         id="path4558"
         d="M 496.063191,889.370121 C 496.063191,901.111599 486.544844,910.629946 474.803366,910.629957"
         style="stroke:#FF0000;fill:none;stroke-linecap: round" />
      <path
         id="path4560"
         d="M 474.803366,910.629957 C 469.164901,910.629960 463.757375,908.390091 459.770379,904.403098"
         style="stroke:#FF0000;fill:none;stroke-linecap: round" />
      <path
         id="path4562"
         d="M 459.770379,904.403098 C 455.783382,900.416108 453.543509,895.008582 453.543509,889.370121"
         style="stroke:#FF0000;fill:none;stroke-linecap: round" />
      <path
         id="path4564"
         d="M 453.543509,648.425239 C 453.543509,642.786778 455.783382,637.379252 459.770379,633.392259"
         style="stroke:#FF0000;fill:none;stroke-linecap: round" />
      <path
         id="path4566"
         d="M 459.770379,633.392259 C 463.757375,629.405267 469.164901,627.165400 474.803366,627.165404"
         style="stroke:#FF0000;fill:none;stroke-linecap: round" />
      <path
         id="path4568"
         d="M 474.803366,627.165404 C 486.544844,627.165411 496.063191,636.683761 496.063191,648.425239"
         style="stroke:#FF0000;fill:none;stroke-linecap: round" />
      <path
         id="path4570"
         d="M 496.063191,648.425239 C 496.063191,660.166717 486.544844,669.685064 474.803366,669.685075"
         style="stroke:#FF0000;fill:none;stroke-linecap: round" />
      <path
         id="path4572"
         d="M 474.803366,669.685075 C 469.164901,669.685078 463.757375,667.445209 459.770379,663.458216"
         style="stroke:#FF0000;fill:none;stroke-linecap: round" />
      <path
         id="path4574"
         d="M 459.770379,663.458216 C 455.783382,659.471226 453.543509,654.063700 453.543509,648.425239"
         style="stroke:#FF0000;fill:none;stroke-linecap: round" />
      <path
         id="path4576"
         d="M 42.212363,768.897680 C 42.212363,763.259219 39.988680,757.851693 36.030497,753.864700"
         style="stroke:#FF0000;fill:none;stroke-linecap: round" />
      <path
         id="path4578"
         d="M 36.030497,753.864700 C 32.072311,749.877707 26.703865,747.637841 21.106148,747.637845"
         style="stroke:#FF0000;fill:none;stroke-linecap: round" />
      <path
         id="path4580"
         d="M 21.106148,747.637845 C 9.449522,747.637852 -0.000039,757.156202 -0.000039,768.897680"
         style="stroke:#FF0000;fill:none;stroke-linecap: round" />
      <path
         id="path4582"
         d="M -0.000039,768.897680 C -0.000039,780.639158 9.449522,790.157505 21.106148,790.157516"
         style="stroke:#FF0000;fill:none;stroke-linecap: round" />
      <path
         id="path4584"
         d="M 21.106148,790.157516 C 26.703865,790.157519 32.072311,787.917650 36.030494,783.930657"
         style="stroke:#FF0000;fill:none;stroke-linecap: round" />
      <path
         id="path4586"
         d="M 36.030494,783.930657 C 39.988680,779.943667 42.212363,774.536141 42.212363,768.897680"
         style="stroke:#FF0000;fill:none;stroke-linecap: round" />
      <path
         id="path4588"
         d="M 113.385908,889.370121 C 113.385908,883.731660 111.146035,878.324134 107.159039,874.337141"
         style="stroke:#FF0000;fill:none;stroke-linecap: round" />
      <path
         id="path4590"
         d="M 107.159039,874.337141 C 103.172042,870.350148 97.764516,868.110282 92.126052,868.110286"
         style="stroke:#FF0000;fill:none;stroke-linecap: round" />
      <path
         id="path4592"
         d="M 92.126052,868.110286 C 80.384574,868.110293 70.866227,877.628643 70.866227,889.370121"
         style="stroke:#FF0000;fill:none;stroke-linecap: round" />
      <path
         id="path4594"
         d="M 70.866227,889.370121 C 70.866227,901.111599 80.384574,910.629946 92.126052,910.629957"
         style="stroke:#FF0000;fill:none;stroke-linecap: round" />
      <path
         id="path4596"
         d="M 92.126052,910.629957 C 97.764516,910.629960 103.172042,908.390091 107.159039,904.403098"
         style="stroke:#FF0000;fill:none;stroke-linecap: round" />
      <path
         id="path4598"
         d="M 107.159039,904.403098 C 111.146035,900.416108 113.385908,895.008582 113.385908,889.370121"
         style="stroke:#FF0000;fill:none;stroke-linecap: round" />
      <path
         id="path4600"
         d="M 113.385908,648.425239 C 113.385908,642.786778 111.146035,637.379252 107.159039,633.392259"
         style="stroke:#FF0000;fill:none;stroke-linecap: round" />
      <path
         id="path4602"
         d="M 107.159039,633.392259 C 103.172042,629.405267 97.764516,627.165400 92.126052,627.165404"
         style="stroke:#FF0000;fill:none;stroke-linecap: round" />
      <path
         id="path4604"
         d="M 92.126052,627.165404 C 80.384574,627.165411 70.866227,636.683761 70.866227,648.425239"
         style="stroke:#FF0000;fill:none;stroke-linecap: round" />
      <path
         id="path4606"
         d="M 70.866227,648.425239 C 70.866227,660.166717 80.384574,669.685064 92.126052,669.685075"
         style="stroke:#FF0000;fill:none;stroke-linecap: round" />
      <path
         id="path4608"
         d="M 92.126052,669.685075 C 97.764516,669.685078 103.172042,667.445209 107.159039,663.458216"
         style="stroke:#FF0000;fill:none;stroke-linecap: round" />
      <path
         id="path4610"
         d="M 107.159039,663.458216 C 111.146035,659.471226 113.385908,654.063700 113.385908,648.425239"
         style="stroke:#FF0000;fill:none;stroke-linecap: round" />
    </symbol>
    <symbol
       id="boules">
      <path
         id="path4613"
         d="M 7.972441,977.952756 A 7.972441,7.972441 -0.000000 1 0 -7.972441,977.952756 7.972441,7.972441 -0.000000 1 0 7.972441,977.952756 z"
         style="stroke:#FF0000;fill:none;stroke-linecap: round" />
      <path
         id="path4615"
         d="M -29.232283,987.921732 A 7.972441,7.972441 -0.000000 1 0 -45.177165,987.921732 7.972441,7.972441 -0.000000 1 0 -29.232283,987.921732 z"
         style="stroke:#FF0000;fill:none;stroke-linecap: round" />
      <path
         id="path4617"
         d="M -56.468032,1015.157480 A 7.972441,7.972441 -0.000000 1 0 -72.412914,1015.157480 7.972441,7.972441 -0.000000 1 0 -56.468032,1015.157480 z"
         style="stroke:#FF0000;fill:none;stroke-linecap: round" />
      <path
         id="path4619"
         d="M -66.437008,1052.362205 A 7.972441,7.972441 -0.000000 1 0 -82.381890,1052.362205 7.972441,7.972441 -0.000000 1 0 -66.437008,1052.362205 z"
         style="stroke:#FF0000;fill:none;stroke-linecap: round" />
      <path
         id="path4621"
         d="M -56.468032,1089.566929 A 7.972441,7.972441 -0.000000 1 0 -72.412914,1089.566929 7.972441,7.972441 -0.000000 1 0 -56.468032,1089.566929 z"
         style="stroke:#FF0000;fill:none;stroke-linecap: round" />
      <path
         id="path4623"
         d="M -29.232283,1116.802678 A 7.972441,7.972441 -0.000000 1 0 -45.177165,1116.802678 7.972441,7.972441 -0.000000 1 0 -29.232283,1116.802678 z"
         style="stroke:#FF0000;fill:none;stroke-linecap: round" />
      <path
         id="path4625"
         d="M 7.972441,1126.771654 A 7.972441,7.972441 -0.000000 1 0 -7.972441,1126.771654 7.972441,7.972441 -0.000000 1 0 7.972441,1126.771654 z"
         style="stroke:#FF0000;fill:none;stroke-linecap: round" />
      <path
         id="path4627"
         d="M 45.177165,1116.802678 A 7.972441,7.972441 -0.000000 1 0 29.232283,1116.802678 7.972441,7.972441 -0.000000 1 0 45.177165,1116.802678 z"
         style="stroke:#FF0000;fill:none;stroke-linecap: round" />
      <path
         id="path4629"
         d="M 72.412914,1089.566929 A 7.972441,7.972441 -0.000000 1 0 56.468032,1089.566929 7.972441,7.972441 -0.000000 1 0 72.412914,1089.566929 z"
         style="stroke:#FF0000;fill:none;stroke-linecap: round" />
      <path
         id="path4631"
         d="M 82.381890,1052.362205 A 7.972441,7.972441 -0.000000 1 0 66.437008,1052.362205 7.972441,7.972441 -0.000000 1 0 82.381890,1052.362205 z"
         style="stroke:#FF0000;fill:none;stroke-linecap: round" />
      <path
         id="path4633"
         d="M 72.412914,1015.157480 A 7.972441,7.972441 -0.000000 1 0 56.468032,1015.157480 7.972441,7.972441 -0.000000 1 0 72.412914,1015.157480 z"
         style="stroke:#FF0000;fill:none;stroke-linecap: round" />
      <path
         id="path4635"
         d="M 45.177165,987.921732 A 7.972441,7.972441 -0.000000 1 0 29.232283,987.921732 7.972441,7.972441 -0.000000 1 0 45.177165,987.921732 z"
         style="stroke:#FF0000;fill:none;stroke-linecap: round" />
    </symbol>
  </defs>
  <sodipodi:namedview
     id="base"
     pagecolor="#ffffff"
     bordercolor="#666666"
     borderopacity="1.0"
     inkscape:pageopacity="0.0"
     inkscape:pageshadow="2"
     inkscape:zoom="0.7"
     inkscape:cx="634.60172"
     inkscape:cy="338.90023"
     inkscape:document-units="px"
     inkscape:current-layer="layer1"
     showgrid="false"
     inkscape:window-width="2482"
     inkscape:window-height="1417"
     inkscape:window-x="-8"
     inkscape:window-y="-8"
     inkscape:window-maximized="1" />
  <metadata
     id="metadata7">
    <rdf:RDF>
      <cc:Work
         rdf:about="">
        <dc:format>image/svg+xml</dc:format>
        <dc:type
           rdf:resource="http://purl.org/dc/dcmitype/StillImage" />
        <dc:title></dc:title>
      </cc:Work>
    </rdf:RDF>
  </metadata>
  <g
     inkscape:label="Layer 1"
     inkscape:groupmode="layer"
     id="layer1">
    <path
       id="path4929"
       style="fill:#000000;fill-opacity:1;stroke:none;stroke-linecap:round;stroke-opacity:1"
       d="m 368.28127,379.73623 -7.6046,12.1699 c -2.47301,0.2096 -4.93975,0.48754 -7.3974,0.8335 l -10.122,-10.1726 c -2.31063,-2.34274 -6.27865,-1.43708 -7.344,1.6762 l -4.7059,13.557 c -2.36438,0.75462 -4.70744,1.57446 -7.0265,2.4586 l -12.1318,-7.6651 c -2.77404,-1.76997 -6.4412,-0.004 -6.787,3.2684 l -1.5711,14.2642 c -2.1372,1.26185 -4.2391,2.58256 -6.3033,3.9606 l -13.5332,-4.7734 c -3.09828,-1.10824 -6.28044,1.42938 -5.8895,4.6966 l 1.6422,14.2562 c -1.80281,1.70579 -3.55811,3.46109 -5.2639,5.2639 l -14.2561,-1.6423 c -3.26726,-0.39102 -5.80496,2.79117 -4.6967,5.8895 l 4.7734,13.5333 c -1.37804,2.06416 -2.69874,4.16603 -3.9606,6.3032 l -14.2641,1.5712 c -3.27235,0.34577 -5.03838,4.01284 -3.2685,6.7869 l 7.6652,12.1318 c -0.88417,2.31909 -1.70405,4.66219 -2.4587,7.0266 l -13.5569,4.7058 c -3.11341,1.06527 -4.01915,5.03344 -1.6763,7.3441 l 10.1726,10.1219 c -0.34596,2.45768 -0.6239,4.92446 -0.8335,7.3975 l -12.1698,7.6046 c -2.79823,1.73136 -2.79828,5.80147 -1e-4,7.5329 l 12.1699,7.6046 c 0.2096,2.47301 0.48754,4.93975 0.8335,7.3974 l -10.1725,10.122 c -2.34285,2.31063 -1.43717,6.27879 1.6762,7.3441 l 13.5569,4.7058 c 0.75465,2.36441 1.57453,4.70751 2.4587,7.0266 l -7.6652,12.1317 c -1.76997,2.77404 -0.004,6.4412 3.2684,6.787 l 14.2642,1.5711 c 1.26186,2.1372 2.58256,4.23911 3.9606,6.3033 l -4.7734,13.5332 c -1.10836,3.09836 1.42938,6.28066 4.6967,5.8896 l 14.2561,-1.6423 c 1.70579,1.80281 3.46109,3.55812 5.2639,5.2639 l -1.6422,14.2561 c -0.39099,3.2672 2.79111,5.80487 5.8894,4.6967 l 13.5333,-4.7734 c 2.0642,1.37804 4.1661,2.69875 6.3033,3.9606 l 1.5711,14.2641 c 0.34574,3.27243 4.01293,5.03849 6.787,3.2685 l 12.1318,-7.6652 c 2.31906,0.88417 4.66212,1.70405 7.0265,2.4587 l 4.7058,13.5569 c 1.06527,3.11341 5.03344,4.01915 7.3441,1.6763 l 10.122,-10.1726 c 2.45765,0.34596 4.92439,0.6239 7.3974,0.8335 l 7.6046,12.1698 c 1.73136,2.79823 5.80147,2.79828 7.5329,1e-4 l 7.6046,-12.1699 c 2.47305,-0.2096 4.93982,-0.48754 7.3975,-0.8335 l 10.1219,10.1725 c 2.31063,2.34285 6.27879,1.43717 7.3441,-1.6762 l 4.7059,-13.5569 c 2.36438,-0.75465 4.70744,-1.57453 7.0265,-2.4587 l 12.1317,7.6652 c 2.77404,1.76997 6.4412,0.004 6.787,-3.2684 l 1.5712,-14.2642 c 2.13717,-1.26186 4.23904,-2.58256 6.3032,-3.9606 l 13.5333,4.7734 c 3.09833,1.10827 6.28052,-1.42944 5.8895,-4.6967 l -1.6423,-14.2561 c 1.80281,-1.70578 3.55812,-3.46109 5.2639,-5.2639 l 14.2561,1.6422 c 3.26724,0.39107 5.80499,-2.79106 4.6968,-5.8894 l -4.7734,-13.5333 c 1.37804,-2.06419 2.69875,-4.1661 3.9606,-6.3033 l 14.2641,-1.5711 c 3.27231,-0.34584 5.03826,-4.01288 3.2684,-6.7869 l -7.6651,-12.1318 c 0.88417,-2.31909 1.70405,-4.66219 2.4587,-7.0266 l 13.5568,-4.7058 c 3.11341,-1.06527 4.01915,-5.03343 1.6763,-7.3441 l -10.1726,-10.122 c 0.34596,-2.45765 0.6239,-4.92439 0.8335,-7.3974 l 12.1699,-7.6046 c 2.79821,-1.73139 2.79821,-5.80151 0,-7.5329 l -12.1699,-7.6046 c -0.2096,-2.47304 -0.48754,-4.93982 -0.8335,-7.3975 l 10.1726,-10.1219 c 2.34285,-2.31063 1.43717,-6.27878 -1.6762,-7.3441 l -13.5569,-4.7058 c -0.75465,-2.36441 -1.57453,-4.70751 -2.4587,-7.0266 l 7.6651,-12.1317 c 1.76997,-2.77404 0.004,-6.4412 -3.2684,-6.787 l -14.2641,-1.5712 c -1.26186,-2.13717 -2.58256,-4.23904 -3.9606,-6.3032 l 4.7734,-13.5333 c 1.10827,-3.09833 -1.42944,-6.28052 -4.6967,-5.8895 l -14.2562,1.6423 c -1.70578,-1.80281 -3.46109,-3.55811 -5.2639,-5.2639 l 1.6423,-14.2561 c 0.39111,-3.2673 -2.79113,-5.80509 -5.8895,-4.6968 l -13.5333,4.7735 c -2.06416,-1.37804 -4.16603,-2.69874 -6.3032,-3.9606 l -1.5712,-14.2642 c -0.34584,-3.27231 -4.01288,-5.03826 -6.7869,-3.2684 l -12.1318,7.6651 c -2.31906,-0.88414 -4.66212,-1.70398 -7.0265,-2.4586 l -4.7059,-13.5569 c -1.0653,-3.11331 -5.03333,-4.01903 -7.344,-1.6763 l -10.122,10.1726 c -2.45768,-0.34596 -4.92445,-0.6239 -7.3975,-0.8335 l -7.6045,-12.1699 c -1.73137,-2.79831 -5.80162,-2.79831 -7.533,0 z"
       inkscape:connector-curvature="0"
       sodipodi:nodetypes="ccccccccccccccccccccccccccccccccccccccccccccccccccccccccccccccccccccccccccccccccccccccccccccccccccccccccccccccccc" />
    <path
       id="path4979"
       style="fill:#ffffff;fill-opacity:1;stroke:none;stroke-linecap:round"
       d="m 488.74237,491.03243 c 0,-4.89231 -3.966,-8.8583 -8.8583,-8.8583 -4.8923,0 -8.8583,3.96599 -8.8583,8.8583 0,4.89231 3.966,8.8583 8.8583,8.8583 4.8923,0 8.8583,-3.96599 8.8583,-8.8583 z m -163.7756,138.1872 c 29.90348,13.64904 64.25852,13.64904 94.162,0 l 3.7394,-23.60985 c 0.6888,-4.34887 4.77258,-7.31591 9.12145,-6.62715 l 23.60985,3.7394 c 22.22169,-24.22209 32.83799,-56.89563 29.0977,-89.55335 l -21.29875,-10.8522 c -3.9232,-1.99899 -5.48309,-6.7998 -3.4841,-10.723 l 10.85225,-21.29875 c -16.16974,-28.61913 -43.96356,-48.8125 -76.17865,-55.34705 l -16.90275,16.9028 c -3.11352,3.11339 -8.16128,3.11339 -11.27475,0 l -16.90285,-16.90275 c -32.2151,6.53453 -60.00888,26.72789 -76.17865,55.347 l 10.85225,21.29875 c 1.99895,3.92318 0.43912,8.72397 -3.48405,10.72295 l -21.29875,10.8523 c -3.74032,32.65765 6.87595,65.33119 29.0976,89.55335 l 23.60985,-3.73945 c 4.34884,-0.68876 8.4326,2.27822 9.1215,6.6271 z m 122.5858,-11.418 c 0,-4.89231 -3.96599,-8.8583 -8.8583,-8.8583 -4.8923,0 -8.8583,3.96599 -8.8583,8.8583 0,4.89231 3.966,8.8583 8.8583,8.8583 4.89231,0 8.8583,-3.96599 8.8583,-8.8583 z m -133.2931,0 c 0.01,-4.89926 -3.95899,-8.87612 -8.85825,-8.87612 -4.89926,0 -8.86813,3.97686 -8.85825,8.87612 -0.01,4.89926 3.95899,8.87612 8.85825,8.87612 4.89926,0 8.86813,-3.97686 8.85825,-8.87612 z m -41.1898,-126.7692 c 0.01,-4.89926 -3.95899,-8.87612 -8.85825,-8.87612 -4.89926,0 -8.86813,3.97686 -8.85825,8.87612 -0.01,4.89926 3.95899,8.87612 8.85825,8.87612 4.89926,0 8.86813,-3.97686 8.85825,-8.87612 z m 107.8363,-78.3477 c 0.01,-4.89926 -3.95899,-8.87612 -8.85825,-8.87612 -4.89926,0 -8.86813,3.97686 -8.85825,8.87612 -0.01,4.89926 3.95899,8.87612 8.85825,8.87612 4.89926,0 8.86813,-3.97686 8.85825,-8.87612 z"
       inkscape:connector-curvature="0"
       sodipodi:nodetypes="ssssscccccccccccccccccccccssssscscsccscsccscsc" />
    <path
       id="path4703"
       style="fill:#000000;fill-opacity:1;stroke:none;stroke-linecap:round"
       d="m 415.45094,601.24722 c 8.95735,-5.17148 3.30028,-18.90871 -6.71947,-16.22399 -12.24573,-12.36865 -20.33694,-28.24298 -23.1504,-45.4193 17.17631,2.81343 33.05063,10.9046 45.4193,23.1503 -2.68489,10.01974 11.05231,15.677 16.22391,6.71969 5.1716,-8.9573 -6.59619,-18.02562 -13.93121,-10.69069 -4.88756,-10.78611 -1.4748,-23.52273 8.151,-30.42 2.6848,10.01974 17.41014,8.05034 17.41014,-2.2927 0,-10.34304 -14.72534,-12.31244 -17.41014,-2.2927 -9.62575,-6.89726 -13.03851,-19.63382 -8.151,-30.4199 7.33496,7.33496 19.10278,-1.73323 13.93129,-10.69057 -5.17148,-8.95734 -18.90871,-3.30028 -16.22399,6.71947 -12.36865,12.24574 -28.24297,20.33694 -45.4193,23.1504 2.81346,-17.17632 10.90467,-33.05065 23.1504,-45.4193 10.01975,2.68472 15.67682,-11.05251 6.71947,-16.22399 -8.95734,-5.17149 -18.02553,6.59633 -10.69057,13.93129 -10.78608,4.88751 -23.52264,1.47475 -30.4199,-8.151 10.01974,-2.6848 8.05034,-17.41014 -2.2927,-17.41014 -10.34303,0 -12.31244,14.72534 -2.2927,17.41014 -6.89727,9.6258 -19.63389,13.03857 -30.42,8.151 7.33494,-7.33502 -1.73338,-19.10281 -10.69069,-13.93121 -8.95731,5.1716 -3.30004,18.9088 6.71969,16.22391 12.2457,12.36867 20.33687,28.24299 23.1503,45.4193 -17.17632,-2.81346 -33.05064,-10.90466 -45.4193,-23.1504 2.68457,-10.01981 -11.05279,-15.67664 -16.22411,-6.71919 -5.17133,8.95745 6.59671,18.02542 13.93151,10.69029 4.88751,10.78608 1.47476,23.52264 -8.151,30.4199 -2.68479,-10.01974 -17.41014,-8.05034 -17.41014,2.2927 0,10.34304 14.72535,12.31244 17.41014,2.2927 9.62581,6.89727 13.03857,19.63389 8.151,30.42 -7.33487,-7.33511 -19.10287,1.73299 -13.93143,10.69041 5.17144,8.95742 18.90877,3.30038 16.22403,-6.71941 12.36867,-12.2457 28.24299,-20.33687 45.4193,-23.1503 -2.81343,17.17631 -10.9046,33.05063 -23.1503,45.4193 -10.01973,-2.68489 -15.677,11.05231 -6.71969,16.22391 8.95731,5.1716 18.02563,-6.59619 10.69069,-13.93121 10.78611,-4.88757 23.52273,-1.4748 30.42,8.151 -10.01974,2.6848 -8.05033,17.41014 2.2927,17.41014 10.34304,0 12.31244,-14.72534 2.2927,-17.41014 6.89726,-9.62575 19.63382,-13.03851 30.4199,-8.151 -7.33496,7.33496 1.73323,19.10278 10.69057,13.93129 z"
       inkscape:connector-curvature="0"
       sodipodi:nodetypes="scccsccsccscccsccsccscccsccsccscccsccsccs" />
  </g>
</svg>
