999
dxfrw 0.6.3
  0
SECTION
  2
HEADER
  9
$ACADVER
  1
AC1021
  9
$DWGCODEPAGE
  3
ANSI_1252
  9
$INSBASE
 10
0
 20
0
 30
0
  9
$EXTMIN
 10
499.685433397752
 20
276.75
 30
0
  9
$EXTMAX
 10
1900
 20
841.8911453511691
 30
0
  9
$LIMMIN
 10
0
 20
0
  9
$LIMMAX
 10
420
 20
297
  9
$ORTHOMODE
 70
    0
  9
$REGENMODE
 70
    1
  9
$FILLMODE
 70
    1
  9
$QTEXTMODE
 70
    0
  9
$MIRRTEXT
 70
    0
  9
$LTSCALE
 40
1
  9
$ATTMODE
 70
    0
  9
$TEXTSIZE
 40
2.5
  9
$TRACEWID
 40
15.68
  9
$TEXTSTYLE
  7
STANDARD
  9
$CLAYER
  8
noname
  9
$CELTYPE
  6
BYLAYER
  9
$CECOLOR
 62
  256
  9
$CELTSCALE
 40
1
  9
$DISPSILH
 70
    0
  9
$DIMSCALE
 40
1
  9
$DIMASZ
 40
2.5
  9
$DIMEXO
 40
0.625
  9
$DIMDLI
 40
3.75
  9
$DIMRND
 40
0
  9
$DIMDLE
 40
0
  9
$DIMEXE
 40
1.25
  9
$DIMTP
 40
0
  9
$DIMTM
 40
0
  9
$DIMTXT
 40
2.5
  9
$DIMCEN
 40
2.5
  9
$DIMTSZ
 40
0
  9
$DIMTOL
 70
    0
  9
$DIMLIM
 70
    0
  9
$DIMTIH
 70
    0
  9
$DIMTOH
 70
    0
  9
$DIMSE1
 70
    0
  9
$DIMSE2
 70
    0
  9
$DIMTAD
 70
    1
  9
$DIMZIN
 70
    8
  9
$DIMBLK
  1

  9
$DIMASO
 70
    1
  9
$DIMSHO
 70
    1
  9
$DIMPOST
  1

  9
$DIMAPOST
  1

  9
$DIMALT
 70
    0
  9
$DIMALTD
 70
    3
  9
$DIMALTF
 40
0.03937
  9
$DIMLFAC
 40
1
  9
$DIMTOFL
 70
    1
  9
$DIMTVP
 40
0
  9
$DIMTIX
 70
    0
  9
$DIMSOXD
 70
    0
  9
$DIMSAH
 70
    0
  9
$DIMBLK1
  1

  9
$DIMBLK2
  1

  9
$DIMSTYLE
  2
STANDARD
  9
$DIMCLRD
 70
    0
  9
$DIMCLRE
 70
    0
  9
$DIMCLRT
 70
    0
  9
$DIMTFAC
 40
1
  9
$DIMGAP
 40
0.625
  9
$DIMJUST
 70
    0
  9
$DIMSD1
 70
    0
  9
$DIMSD2
 70
    0
  9
$DIMTOLJ
 70
    0
  9
$DIMTZIN
 70
    8
  9
$DIMALTZ
 70
    0
  9
$DIMALTTZ
 70
    0
  9
$DIMUPT
 70
    0
  9
$DIMDEC
 70
    2
  9
$DIMTDEC
 70
    2
  9
$DIMALTU
 70
    2
  9
$DIMALTTD
 70
    3
  9
$DIMTXSTY
  7
STANDARD
  9
$DIMAUNIT
 70
    0
  9
$DIMADEC
 70
    0
  9
$DIMALTRND
 40
0
  9
$DIMAZIN
 70
    0
  9
$DIMDSEP
 70
   44
  9
$DIMATFIT
 70
    3
  9
$DIMFRAC
 70
    0
  9
$DIMLDRBLK
  1
STANDARD
  9
$DIMLUNIT
 70
    2
  9
$DIMLWD
 70
   -2
  9
$DIMLWE
 70
   -2
  9
$DIMTMOVE
 70
    0
  9
$DIMFXL
 40
1
  9
$DIMFXLON
 70
    0
  9
$DIMJOGANG
 40
0.7854
  9
$DIMTFILL
 70
    0
  9
$DIMTFILLCLR
 70
    0
  9
$DIMARCSYM
 70
    0
  9
$DIMLTYPE
  6

  9
$DIMLTEX1
  6

  9
$DIMLTEX2
  6

  9
$LUNITS
 70
    2
  9
$LUPREC
 70
    4
  9
$SKETCHINC
 40
1
  9
$FILLETRAD
 40
0
  9
$AUNITS
 70
    0
  9
$AUPREC
 70
    2
  9
$MENU
  1
.
  9
$ELEVATION
 40
0
  9
$PELEVATION
 40
0
  9
$THICKNESS
 40
0
  9
$LIMCHECK
 70
    0
  9
$CHAMFERA
 40
0
  9
$CHAMFERB
 40
0
  9
$CHAMFERC
 40
0
  9
$CHAMFERD
 40
0
  9
$SKPOLY
 70
    0
  9
$USRTIMER
 70
    1
  9
$ANGBASE
 50
0
  9
$ANGDIR
 70
    0
  9
$PDMODE
 70
   34
  9
$PDSIZE
 40
0
  9
$PLINEWID
 40
0
  9
$SPLFRAME
 70
    0
  9
$SPLINETYPE
 70
    2
  9
$SPLINESEGS
 70
    8
  9
$HANDSEED
  5
20000
  9
$SURFTAB1
 70
    6
  9
$SURFTAB2
 70
    6
  9
$SURFTYPE
 70
    6
  9
$SURFU
 70
    6
  9
$SURFV
 70
    6
  9
$UCSBASE
  2

  9
$UCSNAME
  2

  9
$UCSORG
 10
0
 20
0
 30
0
  9
$UCSXDIR
 10
1
 20
0
 30
0
  9
$UCSYDIR
 10
0
 20
1
 30
0
  9
$UCSORTHOREF
  2

  9
$UCSORTHOVIEW
 70
    0
  9
$UCSORGTOP
 10
0
 20
0
 30
0
  9
$UCSORGBOTTOM
 10
0
 20
0
 30
0
  9
$UCSORGLEFT
 10
0
 20
0
 30
0
  9
$UCSORGRIGHT
 10
0
 20
0
 30
0
  9
$UCSORGFRONT
 10
0
 20
0
 30
0
  9
$UCSORGBACK
 10
0
 20
0
 30
0
  9
$PUCSBASE
  2

  9
$PUCSNAME
  2

  9
$PUCSORG
 10
0
 20
0
 30
0
  9
$PUCSXDIR
 10
1
 20
0
 30
0
  9
$PUCSYDIR
 10
0
 20
1
 30
0
  9
$PUCSORTHOREF
  2

  9
$PUCSORTHOVIEW
 70
    0
  9
$PUCSORGTOP
 10
0
 20
0
 30
0
  9
$PUCSORGBOTTOM
 10
0
 20
0
 30
0
  9
$PUCSORGLEFT
 10
0
 20
0
 30
0
  9
$PUCSORGRIGHT
 10
0
 20
0
 30
0
  9
$PUCSORGFRONT
 10
0
 20
0
 30
0
  9
$PUCSORGBACK
 10
0
 20
0
 30
0
  9
$USERI1
 70
    0
  9
$USERI2
 70
    0
  9
$USERI3
 70
    0
  9
$USERI4
 70
    0
  9
$USERI5
 70
    0
  9
$USERR1
 40
0
  9
$USERR2
 40
0
  9
$USERR3
 40
0
  9
$USERR4
 40
0
  9
$USERR5
 40
0
  9
$WORLDVIEW
 70
    1
  9
$SHADEDGE
 70
    3
  9
$SHADEDIF
 70
   70
  9
$TILEMODE
 70
    1
  9
$MAXACTVP
 70
   64
  9
$PINSBASE
 10
0
 20
0
 30
0
  9
$PLIMCHECK
 70
    0
  9
$PEXTMIN
 10
0
 20
0
 30
0
  9
$PEXTMAX
 10
0
 20
0
 30
0
  9
$GRIDMODE
 70
    1
  9
$SNAPSTYLE
 70
    0
  9
$PLIMMIN
 10
0
 20
0
  9
$PLIMMAX
 10
297
 20
210
  9
$UNITMODE
 70
    0
  9
$VISRETAIN
 70
    1
  9
$PLINEGEN
 70
    0
  9
$PSLTSCALE
 70
    1
  9
$TREEDEPTH
 70
 3020
  9
$CMLSTYLE
  2
Standard
  9
$CMLJUST
 70
    0
  9
$CMLSCALE
 40
20
  9
$PROXYGRAPHICS
 70
    1
  9
$MEASUREMENT
 70
    1
  9
$CELWEIGHT
370
   -1
  9
$ENDCAPS
280
    0
  9
$JOINSTYLE
280
    0
  9
$LWDISPLAY
290
    0
  9
$INSUNITS
 70
    4
  9
$HYPERLINKBASE
  1

  9
$STYLESHEET
  1

  9
$XEDIT
290
    1
  9
$CEPSNTYPE
380
    0
  9
$PSTYLEMODE
290
    1
  9
$EXTNAMES
290
    1
  9
$PSVPSCALE
 40
1
  9
$OLESTARTUP
290
    0
  9
$SORTENTS
280
  127
  9
$INDEXCTL
280
    0
  9
$HIDETEXT
280
    1
  9
$XCLIPFRAME
290
    0
  9
$HALOGAP
280
    0
  9
$OBSCOLOR
 70
  257
  9
$OBSLTYPE
280
    0
  9
$INTERSECTIONDISPLAY
280
    0
  9
$INTERSECTIONCOLOR
 70
  257
  9
$DIMASSOC
280
    1
  9
$PROJECTNAME
  1

  9
$CAMERADISPLAY
290
    0
  9
$LENSLENGTH
 40
50
  9
$CAMERAHEIGHT
 40
0
  9
$STEPSPERSEC
 40
2
  9
$STEPSIZE
 40
50
  9
$3DDWFPREC
 40
2
  9
$PSOLWIDTH
 40
5
  9
$PSOLHEIGHT
 40
80
  9
$LOFTANG1
 40
1.570796326794897
  9
$LOFTANG2
 40
1.570796326794897
  9
$LOFTMAG1
 40
0
  9
$LOFTMAG2
 40
0
  9
$LOFTPARAM
 70
    7
  9
$LOFTNORMALS
280
    1
  9
$LATITUDE
 40
1
  9
$LONGITUDE
 40
1
  9
$NORTHDIRECTION
 40
0
  9
$TIMEZONE
 70
-8000
  9
$LIGHTGLYPHDISPLAY
280
    1
  9
$TILEMODELIGHTSYNCH
280
    1
  9
$SOLIDHIST
280
    1
  9
$SHOWHIST
280
    1
  9
$DWFFRAME
280
    2
  9
$DGNFRAME
280
    0
  9
$REALWORLDSCALE
290
    1
  9
$INTERFERECOLOR
 62
    1
  9
$CSHADOW
280
    0
  9
$SHADOWPLANELOCATION
 40
0
  0
ENDSEC
  0
SECTION
  2
CLASSES
  0
ENDSEC
  0
SECTION
  2
TABLES
  0
TABLE
  2
VPORT
  5
8
330
0
100
AcDbSymbolTable
 70
    1
  0
VPORT
  5
31
330
2
100
AcDbSymbolTableRecord
100
AcDbViewportTableRecord
  2
*ACTIVE
 70
    0
 10
0
 20
0
 11
1
 21
1
 12
583.3340671571293
 22
440.5571914825462
 13
0
 23
0
 14
10
 24
10
 15
10
 25
10
 16
0
 26
0
 36
1
 17
0
 27
0
 37
0
 40
228.496450541448
 41
1.890058479532164
 42
50
 43
0
 44
0
 50
0
 51
0
 71
    0
 72
  100
 73
    1
 74
    3
 75
    0
 76
    1
 77
    0
 78
    0
281
    0
 65
    1
110
0
120
0
130
0
111
1
121
0
131
0
112
0
122
1
132
0
 79
    0
146
0
348
10020
 60
    7
 61
    5
292
1
282
    1
141
0
142
0
 63
  250
421
3358443
  0
ENDTAB
  0
TABLE
  2
LTYPE
  5
5
330
0
100
AcDbSymbolTable
 70
    4
  0
LTYPE
  5
14
330
5
100
AcDbSymbolTableRecord
100
AcDbLinetypeTableRecord
  2
ByBlock
 70
    0
  3

 72
   65
 73
    0
 40
0
  0
LTYPE
  5
15
330
5
100
AcDbSymbolTableRecord
100
AcDbLinetypeTableRecord
  2
ByLayer
 70
    0
  3

 72
   65
 73
    0
 40
0
  0
LTYPE
  5
16
330
5
100
AcDbSymbolTableRecord
100
AcDbLinetypeTableRecord
  2
Continuous
 70
    0
  3
Solid line
 72
   65
 73
    0
 40
0
  0
LTYPE
  5
32
330
5
100
AcDbSymbolTableRecord
100
AcDbLinetypeTableRecord
  2
DOT
 70
    0
  3
Dot . . . . . . . . . . . . . . . . . . . . . .
 72
   65
 73
    2
 40
6.35
 49
0
 74
    0
 49
-6.35
 74
    0
  0
LTYPE
  5
33
330
5
100
AcDbSymbolTableRecord
100
AcDbLinetypeTableRecord
  2
DOTTINY
 70
    0
  3
Dot (.15x) .....................................
 72
   65
 73
    2
 40
0.9525
 49
0
 74
    0
 49
-0.9525
 74
    0
  0
LTYPE
  5
34
330
5
100
AcDbSymbolTableRecord
100
AcDbLinetypeTableRecord
  2
DOT2
 70
    0
  3
Dot (.5x) .....................................
 72
   65
 73
    2
 40
3.175
 49
0
 74
    0
 49
-3.175
 74
    0
  0
LTYPE
  5
35
330
5
100
AcDbSymbolTableRecord
100
AcDbLinetypeTableRecord
  2
DOTX2
 70
    0
  3
Dot (2x) .  .  .  .  .  .  .  .  .  .  .  .  .
 72
   65
 73
    2
 40
12.7
 49
0
 74
    0
 49
-12.7
 74
    0
  0
LTYPE
  5
36
330
5
100
AcDbSymbolTableRecord
100
AcDbLinetypeTableRecord
  2
DASHED
 70
    0
  3
Dashed _ _ _ _ _ _ _ _ _ _ _ _ _ _ _ _ _
 72
   65
 73
    2
 40
19.05
 49
12.7
 74
    0
 49
-6.35
 74
    0
  0
LTYPE
  5
37
330
5
100
AcDbSymbolTableRecord
100
AcDbLinetypeTableRecord
  2
DASHEDTINY
 70
    0
  3
Dashed (.15x) _ _ _ _ _ _ _ _ _ _ _ _ _ _ _ _ _
 72
   65
 73
    2
 40
2.8575
 49
1.905
 74
    0
 49
-0.9525
 74
    0
  0
LTYPE
  5
38
330
5
100
AcDbSymbolTableRecord
100
AcDbLinetypeTableRecord
  2
DASHED2
 70
    0
  3
Dashed (.5x) _ _ _ _ _ _ _ _ _ _ _ _ _ _ _ _ _
 72
   65
 73
    2
 40
9.524999999999999
 49
6.35
 74
    0
 49
-3.175
 74
    0
  0
LTYPE
  5
39
330
5
100
AcDbSymbolTableRecord
100
AcDbLinetypeTableRecord
  2
DASHEDX2
 70
    0
  3
Dashed (2x) ____  ____  ____  ____  ____  ___
 72
   65
 73
    2
 40
38.09999999999999
 49
25.4
 74
    0
 49
-12.7
 74
    0
  0
LTYPE
  5
3A
330
5
100
AcDbSymbolTableRecord
100
AcDbLinetypeTableRecord
  2
DASHDOT
 70
    0
  3
Dash dot __ . __ . __ . __ . __ . __ . __ . __
 72
   65
 73
    4
 40
25.4
 49
12.7
 74
    0
 49
-6.35
 74
    0
 49
0
 74
    0
 49
-6.35
 74
    0
  0
LTYPE
  5
3B
330
5
100
AcDbSymbolTableRecord
100
AcDbLinetypeTableRecord
  2
DASHDOTTINY
 70
    0
  3
Dash dot (.15x) _._._._._._._._._._._._._._._.
 72
   65
 73
    4
 40
3.81
 49
1.905
 74
    0
 49
-0.9525
 74
    0
 49
0
 74
    0
 49
-0.9525
 74
    0
  0
LTYPE
  5
3C
330
5
100
AcDbSymbolTableRecord
100
AcDbLinetypeTableRecord
  2
DASHDOT2
 70
    0
  3
Dash dot (.5x) _._._._._._._._._._._._._._._.
 72
   65
 73
    4
 40
12.7
 49
6.35
 74
    0
 49
-3.175
 74
    0
 49
0
 74
    0
 49
-3.175
 74
    0
  0
LTYPE
  5
3D
330
5
100
AcDbSymbolTableRecord
100
AcDbLinetypeTableRecord
  2
DASHDOTX2
 70
    0
  3
Dash dot (2x) ____  .  ____  .  ____  .  ___
 72
   65
 73
    4
 40
50.8
 49
25.4
 74
    0
 49
-12.7
 74
    0
 49
0
 74
    0
 49
-12.7
 74
    0
  0
LTYPE
  5
3E
330
5
100
AcDbSymbolTableRecord
100
AcDbLinetypeTableRecord
  2
DIVIDE
 70
    0
  3
Divide ____ . . ____ . . ____ . . ____ . . ____
 72
   65
 73
    6
 40
31.75
 49
12.7
 74
    0
 49
-6.35
 74
    0
 49
0
 74
    0
 49
-6.35
 74
    0
 49
0
 74
    0
 49
-6.35
 74
    0
  0
LTYPE
  5
3F
330
5
100
AcDbSymbolTableRecord
100
AcDbLinetypeTableRecord
  2
DIVIDETINY
 70
    0
  3
Divide (.15x) __..__..__..__..__..__..__..__.._
 72
   65
 73
    6
 40
4.7625
 49
1.905
 74
    0
 49
-0.9525
 74
    0
 49
0
 74
    0
 49
-0.9525
 74
    0
 49
0
 74
    0
 49
-0.9525
 74
    0
  0
LTYPE
  5
40
330
5
100
AcDbSymbolTableRecord
100
AcDbLinetypeTableRecord
  2
DIVIDE2
 70
    0
  3
Divide (.5x) __..__..__..__..__..__..__..__.._
 72
   65
 73
    6
 40
15.875
 49
6.35
 74
    0
 49
-3.175
 74
    0
 49
0
 74
    0
 49
-3.175
 74
    0
 49
0
 74
    0
 49
-3.175
 74
    0
  0
LTYPE
  5
41
330
5
100
AcDbSymbolTableRecord
100
AcDbLinetypeTableRecord
  2
DIVIDEX2
 70
    0
  3
Divide (2x) ________  .  .  ________  .  .  _
 72
   65
 73
    6
 40
63.5
 49
25.4
 74
    0
 49
-12.7
 74
    0
 49
0
 74
    0
 49
-12.7
 74
    0
 49
0
 74
    0
 49
-12.7
 74
    0
  0
LTYPE
  5
42
330
5
100
AcDbSymbolTableRecord
100
AcDbLinetypeTableRecord
  2
BORDER
 70
    0
  3
Border __ __ . __ __ . __ __ . __ __ . __ __ .
 72
   65
 73
    6
 40
44.45
 49
12.7
 74
    0
 49
-6.35
 74
    0
 49
12.7
 74
    0
 49
-6.35
 74
    0
 49
0
 74
    0
 49
-6.35
 74
    0
  0
LTYPE
  5
43
330
5
100
AcDbSymbolTableRecord
100
AcDbLinetypeTableRecord
  2
BORDERTINY
 70
    0
  3
Border (.15x) __.__.__.__.__.__.__.__.__.__.__.
 72
   65
 73
    6
 40
6.6675
 49
1.905
 74
    0
 49
-0.9525
 74
    0
 49
1.905
 74
    0
 49
-0.9525
 74
    0
 49
0
 74
    0
 49
-0.9525
 74
    0
  0
LTYPE
  5
44
330
5
100
AcDbSymbolTableRecord
100
AcDbLinetypeTableRecord
  2
BORDER2
 70
    0
  3
Border (.5x) __.__.__.__.__.__.__.__.__.__.__.
 72
   65
 73
    6
 40
22.225
 49
6.35
 74
    0
 49
-3.175
 74
    0
 49
6.35
 74
    0
 49
-3.175
 74
    0
 49
0
 74
    0
 49
-3.175
 74
    0
  0
LTYPE
  5
45
330
5
100
AcDbSymbolTableRecord
100
AcDbLinetypeTableRecord
  2
BORDERX2
 70
    0
  3
Border (2x) ____  ____  .  ____  ____  .  ___
 72
   65
 73
    6
 40
88.89999999999999
 49
25.4
 74
    0
 49
-12.7
 74
    0
 49
25.4
 74
    0
 49
-12.7
 74
    0
 49
0
 74
    0
 49
-12.7
 74
    0
  0
LTYPE
  5
46
330
5
100
AcDbSymbolTableRecord
100
AcDbLinetypeTableRecord
  2
CENTER
 70
    0
  3
Center ____ _ ____ _ ____ _ ____ _ ____ _ ____
 72
   65
 73
    4
 40
50.8
 49
31.75
 74
    0
 49
-6.35
 74
    0
 49
6.35
 74
    0
 49
-6.35
 74
    0
  0
LTYPE
  5
47
330
5
100
AcDbSymbolTableRecord
100
AcDbLinetypeTableRecord
  2
CENTERTINY
 70
    0
  3
Center (.15x) ___ _ ___ _ ___ _ ___ _ ___ _ ___
 72
   65
 73
    4
 40
7.62
 49
4.7625
 74
    0
 49
-0.9525
 74
    0
 49
0.9525
 74
    0
 49
-0.9525
 74
    0
  0
LTYPE
  5
48
330
5
100
AcDbSymbolTableRecord
100
AcDbLinetypeTableRecord
  2
CENTER2
 70
    0
  3
Center (.5x) ___ _ ___ _ ___ _ ___ _ ___ _ ___
 72
   65
 73
    4
 40
28.575
 49
19.05
 74
    0
 49
-3.175
 74
    0
 49
3.175
 74
    0
 49
-3.175
 74
    0
  0
LTYPE
  5
49
330
5
100
AcDbSymbolTableRecord
100
AcDbLinetypeTableRecord
  2
CENTERX2
 70
    0
  3
Center (2x) ________  __  ________  __  _____
 72
   65
 73
    4
 40
101.6
 49
63.5
 74
    0
 49
-12.7
 74
    0
 49
12.7
 74
    0
 49
-12.7
 74
    0
  0
ENDTAB
  0
TABLE
  2
LAYER
  5
2
330
0
100
AcDbSymbolTable
 70
    1
  0
LAYER
  5
10
330
2
100
AcDbSymbolTableRecord
100
AcDbLayerTableRecord
  2
0
 70
    0
 62
    1
  6
CONTINUOUS
370
    0
390
F
  0
LAYER
  5
4A
330
2
100
AcDbSymbolTableRecord
100
AcDbLayerTableRecord
  2
Layer_1
 70
    0
 62
    1
  6
CONTINUOUS
370
   -3
390
F
  0
LAYER
  5
4B
330
2
100
AcDbSymbolTableRecord
100
AcDbLayerTableRecord
  2
noname
 70
    0
 62
    2
  6
CONTINUOUS
370
    0
390
F
  0
ENDTAB
  0
TABLE
  2
STYLE
  5
3
330
0
100
AcDbSymbolTable
 70
    3
  0
STYLE
  5
4C
330
2
100
AcDbSymbolTableRecord
100
AcDbTextStyleTableRecord
  2
Standard
 70
    0
 40
0
 41
1
 50
0
 71
    0
 42
1
  3
txt
  4

  0
ENDTAB
  0
TABLE
  2
VIEW
  5
6
330
0
100
AcDbSymbolTable
 70
    0
  0
ENDTAB
  0
TABLE
  2
UCS
  5
7
330
0
100
AcDbSymbolTable
 70
    0
  0
ENDTAB
  0
TABLE
  2
APPID
  5
9
330
0
100
AcDbSymbolTable
 70
    1
  0
APPID
  5
12
330
9
100
AcDbSymbolTableRecord
100
AcDbRegAppTableRecord
  2
ACAD
 70
    0
  0
APPID
  5
4D
330
9
100
AcDbSymbolTableRecord
100
AcDbRegAppTableRecord
  2
LibreCad
 70
    0
  0
ENDTAB
  0
TABLE
  2
DIMSTYLE
  5
A
330
0
100
AcDbSymbolTable
 70
    1
100
AcDbDimStyleTable
 71
    1
  0
DIMSTYLE
105
4E
330
A
100
AcDbSymbolTableRecord
100
AcDbDimStyleTableRecord
  2
Standard
 70
    0
 40
1
 41
2.5
 42
0.625
 43
0.38
 44
1.25
 45
0
 46
0
 47
0
 48
0
 49
1
140
2.5
141
0.09
142
0
143
25.4
144
1
145
0
146
1
147
0.625
148
0
 71
    0
 72
    0
 73
    0
 74
    1
 75
    0
 76
    0
 77
    0
 78
    8
 79
    0
170
    0
171
    2
172
    0
173
    0
174
    0
175
    0
176
    0
177
    0
178
    0
179
    0
271
    2
272
    4
273
    2
274
    2
275
    0
276
    0
277
    2
278
   44
279
    0
280
    0
281
    0
282
    0
283
    1
284
    0
285
    0
286
    0
288
    0
289
    3
340
STANDARD
341

371
   -2
372
   -2
  0
ENDTAB
  0
TABLE
  2
BLOCK_RECORD
  5
1
330
0
100
AcDbSymbolTable
 70
    2
  0
BLOCK_RECORD
  5
1F
330
1
100
AcDbSymbolTableRecord
100
AcDbBlockTableRecord
  2
*Model_Space
 70
    0
280
    1
281
    0
  0
BLOCK_RECORD
  5
1E
330
1
100
AcDbSymbolTableRecord
100
AcDbBlockTableRecord
  2
*Paper_Space
 70
    0
280
    1
281
    0
  0
BLOCK_RECORD
  5
4F
330
1
100
AcDbSymbolTableRecord
100
AcDbBlockTableRecord
  2
logo rust
 70
    0
280
    1
281
    0
  0
BLOCK_RECORD
  5
52
330
1
100
AcDbSymbolTableRecord
100
AcDbBlockTableRecord
  2
Cathar_cross
 70
    0
280
    1
281
    0
  0
BLOCK_RECORD
  5
55
330
1
100
AcDbSymbolTableRecord
100
AcDbBlockTableRecord
  2
boules
 70
    0
280
    1
281
    0
  0
ENDTAB
  0
ENDSEC
  0
SECTION
  2
BLOCKS
  0
BLOCK
  5
20
330
1F
100
AcDbEntity
  8
0
100
AcDbBlockBegin
  2
*Model_Space
 70
    0
 10
0
 20
0
 30
0
  3
*Model_Space
  1

  0
ENDBLK
  5
21
330
1F
100
AcDbEntity
  8
0
100
AcDbBlockEnd
  0
BLOCK
  5
1C
330
1B
100
AcDbEntity
  8
0
100
AcDbBlockBegin
  2
*Paper_Space
 70
    0
 10
0
 20
0
 30
0
  3
*Paper_Space
  1

  0
ENDBLK
  5
1D
330
1F
100
AcDbEntity
  8
0
100
AcDbBlockEnd
  0
BLOCK
  5
50
330
4F
100
AcDbEntity
  8
0
100
AcDbBlockBegin
  2
logo rust
 70
    0
 10
0
 20
0
  3
logo rust
  1

  0
SPLINE
  5
58
100
AcDbEntity
  8
Layer_1
  6
ByLayer
 62
    7
370
   -1
100
AcDbSpline
210
0
220
0
230
0
 70
    8
 71
    3
 72
    8
 73
    4
 74
    0
 42
1e-007
 43
1e-007
 40
0
 40
0
 40
0
 40
0
 40
1
 40
1
 40
1
 40
1
 10
228.240128
 20
422.828244
 30
0
 10
228.240128
 20
423.716549
 30
0
 10
228.714033
 20
424.537377
 30
0
 10
229.483328
 20
424.981529
 30
0
  0
SPLINE
  5
59
100
AcDbEntity
  8
Layer_1
  6
ByLayer
 62
    7
370
   -1
100
AcDbSpline
210
0
220
0
230
0
 70
    8
 71
    3
 72
    8
 73
    4
 74
    0
 42
1e-007
 43
1e-007
 40
0
 40
0
 40
0
 40
0
 40
1
 40
1
 40
1
 40
1
 10
229.483328
 20
424.981529
 30
0
 10
230.252623
 20
425.425682
 30
0
 10
231.200433
 20
425.425682
 30
0
 10
231.969728
 20
424.981529
 30
0
  0
SPLINE
  5
5A
100
AcDbEntity
  8
Layer_1
  6
ByLayer
 62
    7
370
   -1
100
AcDbSpline
210
0
220
0
230
0
 70
    8
 71
    3
 72
    8
 73
    4
 74
    0
 42
1e-007
 43
1e-007
 40
0
 40
0
 40
0
 40
0
 40
1
 40
1
 40
1
 40
1
 10
231.969728
 20
424.981529
 30
0
 10
232.739023
 20
424.537377
 30
0
 10
233.212928
 20
423.716549
 30
0
 10
233.212928
 20
422.828244
 30
0
  0
SPLINE
  5
5B
100
AcDbEntity
  8
Layer_1
  6
ByLayer
 62
    7
370
   -1
100
AcDbSpline
210
0
220
0
230
0
 70
    8
 71
    3
 72
    8
 73
    4
 74
    0
 42
1e-007
 43
1e-007
 40
0
 40
0
 40
0
 40
0
 40
1
 40
1
 40
1
 40
1
 10
233.212928
 20
422.828244
 30
0
 10
233.212928
 20
421.939939
 30
0
 10
232.739023
 20
421.119111
 30
0
 10
231.969728
 20
420.674958
 30
0
  0
SPLINE
  5
5C
100
AcDbEntity
  8
Layer_1
  6
ByLayer
 62
    7
370
   -1
100
AcDbSpline
210
0
220
0
230
0
 70
    8
 71
    3
 72
    8
 73
    4
 74
    0
 42
1e-007
 43
1e-007
 40
0
 40
0
 40
0
 40
0
 40
1
 40
1
 40
1
 40
1
 10
231.969728
 20
420.674958
 30
0
 10
231.200433
 20
420.230806
 30
0
 10
230.252623
 20
420.230806
 30
0
 10
229.483328
 20
420.674958
 30
0
  0
SPLINE
  5
5D
100
AcDbEntity
  8
Layer_1
  6
ByLayer
 62
    7
370
   -1
100
AcDbSpline
210
0
220
0
230
0
 70
    8
 71
    3
 72
    8
 73
    4
 74
    0
 42
1e-007
 43
1e-007
 40
0
 40
0
 40
0
 40
0
 40
1
 40
1
 40
1
 40
1
 10
229.483328
 20
420.674958
 30
0
 10
228.714033
 20
421.119111
 30
0
 10
228.240128
 20
421.939939
 30
0
 10
228.240128
 20
422.828244
 30
0
  0
SPLINE
  5
5E
100
AcDbEntity
  8
Layer_1
  6
ByLayer
 62
    7
370
   -1
100
AcDbSpline
210
0
220
0
230
0
 70
    8
 71
    3
 72
    8
 73
    4
 74
    0
 42
1e-007
 43
1e-007
 40
0
 40
0
 40
0
 40
0
 40
1
 40
1
 40
1
 40
1
 10
198.578528
 20
400.316244
 30
0
 10
198.578528
 20
401.204549
 30
0
 10
199.052433
 20
402.025377
 30
0
 10
199.821728
 20
402.469529
 30
0
  0
SPLINE
  5
5F
100
AcDbEntity
  8
Layer_1
  6
ByLayer
 62
    7
370
   -1
100
AcDbSpline
210
0
220
0
230
0
 70
    8
 71
    3
 72
    8
 73
    4
 74
    0
 42
1e-007
 43
1e-007
 40
0
 40
0
 40
0
 40
0
 40
1
 40
1
 40
1
 40
1
 10
199.821728
 20
402.469529
 30
0
 10
200.591023
 20
402.913682
 30
0
 10
201.538833
 20
402.913682
 30
0
 10
202.308128
 20
402.469529
 30
0
  0
SPLINE
  5
60
100
AcDbEntity
  8
Layer_1
  6
ByLayer
 62
    7
370
   -1
100
AcDbSpline
210
0
220
0
230
0
 70
    8
 71
    3
 72
    8
 73
    4
 74
    0
 42
1e-007
 43
1e-007
 40
0
 40
0
 40
0
 40
0
 40
1
 40
1
 40
1
 40
1
 10
202.308128
 20
402.469529
 30
0
 10
203.077423
 20
402.025377
 30
0
 10
203.551328
 20
401.204549
 30
0
 10
203.551328
 20
400.316244
 30
0
  0
SPLINE
  5
61
100
AcDbEntity
  8
Layer_1
  6
ByLayer
 62
    7
370
   -1
100
AcDbSpline
210
0
220
0
230
0
 70
    8
 71
    3
 72
    8
 73
    4
 74
    0
 42
1e-007
 43
1e-007
 40
0
 40
0
 40
0
 40
0
 40
1
 40
1
 40
1
 40
1
 10
203.551328
 20
400.316244
 30
0
 10
203.551328
 20
399.427939
 30
0
 10
203.077423
 20
398.607111
 30
0
 10
202.308128
 20
398.162958
 30
0
  0
SPLINE
  5
62
100
AcDbEntity
  8
Layer_1
  6
ByLayer
 62
    7
370
   -1
100
AcDbSpline
210
0
220
0
230
0
 70
    8
 71
    3
 72
    8
 73
    4
 74
    0
 42
1e-007
 43
1e-007
 40
0
 40
0
 40
0
 40
0
 40
1
 40
1
 40
1
 40
1
 10
202.308128
 20
398.162958
 30
0
 10
201.538833
 20
397.718806
 30
0
 10
200.591023
 20
397.718806
 30
0
 10
199.821728
 20
398.162958
 30
0
  0
SPLINE
  5
63
100
AcDbEntity
  8
Layer_1
  6
ByLayer
 62
    7
370
   -1
100
AcDbSpline
210
0
220
0
230
0
 70
    8
 71
    3
 72
    8
 73
    4
 74
    0
 42
1e-007
 43
1e-007
 40
0
 40
0
 40
0
 40
0
 40
1
 40
1
 40
1
 40
1
 10
199.821728
 20
398.162958
 30
0
 10
199.052433
 20
398.607111
 30
0
 10
198.578528
 20
399.427939
 30
0
 10
198.578528
 20
400.316244
 30
0
  0
SPLINE
  5
64
100
AcDbEntity
  8
Layer_1
  6
ByLayer
 62
    7
370
   -1
100
AcDbSpline
210
0
220
0
230
0
 70
    8
 71
    3
 72
    8
 73
    4
 74
    0
 42
1e-007
 43
1e-007
 40
0
 40
0
 40
0
 40
0
 40
1
 40
1
 40
1
 40
1
 10
257.900928
 20
400.200244
 30
0
 10
257.900928
 20
401.088549
 30
0
 10
258.374833
 20
401.909377
 30
0
 10
259.144128
 20
402.353529
 30
0
  0
SPLINE
  5
65
100
AcDbEntity
  8
Layer_1
  6
ByLayer
 62
    7
370
   -1
100
AcDbSpline
210
0
220
0
230
0
 70
    8
 71
    3
 72
    8
 73
    4
 74
    0
 42
1e-007
 43
1e-007
 40
0
 40
0
 40
0
 40
0
 40
1
 40
1
 40
1
 40
1
 10
259.144128
 20
402.353529
 30
0
 10
259.913423
 20
402.797682
 30
0
 10
260.861233
 20
402.797682
 30
0
 10
261.630528
 20
402.353529
 30
0
  0
SPLINE
  5
66
100
AcDbEntity
  8
Layer_1
  6
ByLayer
 62
    7
370
   -1
100
AcDbSpline
210
0
220
0
230
0
 70
    8
 71
    3
 72
    8
 73
    4
 74
    0
 42
1e-007
 43
1e-007
 40
0
 40
0
 40
0
 40
0
 40
1
 40
1
 40
1
 40
1
 10
261.630528
 20
402.353529
 30
0
 10
262.399823
 20
401.909377
 30
0
 10
262.873728
 20
401.088549
 30
0
 10
262.873728
 20
400.200244
 30
0
  0
SPLINE
  5
67
100
AcDbEntity
  8
Layer_1
  6
ByLayer
 62
    7
370
   -1
100
AcDbSpline
210
0
220
0
230
0
 70
    8
 71
    3
 72
    8
 73
    4
 74
    0
 42
1e-007
 43
1e-007
 40
0
 40
0
 40
0
 40
0
 40
1
 40
1
 40
1
 40
1
 10
262.873728
 20
400.200244
 30
0
 10
262.873728
 20
399.311939
 30
0
 10
262.399823
 20
398.491111
 30
0
 10
261.630528
 20
398.046958
 30
0
  0
SPLINE
  5
68
100
AcDbEntity
  8
Layer_1
  6
ByLayer
 62
    7
370
   -1
100
AcDbSpline
210
0
220
0
230
0
 70
    8
 71
    3
 72
    8
 73
    4
 74
    0
 42
1e-007
 43
1e-007
 40
0
 40
0
 40
0
 40
0
 40
1
 40
1
 40
1
 40
1
 10
261.630528
 20
398.046958
 30
0
 10
260.861233
 20
397.602806
 30
0
 10
259.913423
 20
397.602806
 30
0
 10
259.144128
 20
398.046958
 30
0
  0
SPLINE
  5
69
100
AcDbEntity
  8
Layer_1
  6
ByLayer
 62
    7
370
   -1
100
AcDbSpline
210
0
220
0
230
0
 70
    8
 71
    3
 72
    8
 73
    4
 74
    0
 42
1e-007
 43
1e-007
 40
0
 40
0
 40
0
 40
0
 40
1
 40
1
 40
1
 40
1
 10
259.144128
 20
398.046958
 30
0
 10
258.374833
 20
398.491111
 30
0
 10
257.900928
 20
399.311939
 30
0
 10
257.900928
 20
400.200244
 30
0
  0
SPLINE
  5
6A
100
AcDbEntity
  8
Layer_1
  6
ByLayer
 62
    7
370
   -1
100
AcDbSpline
210
0
220
0
230
0
 70
    8
 71
    3
 72
    8
 73
    4
 74
    0
 42
1e-007
 43
1e-007
 40
0
 40
0
 40
0
 40
0
 40
1
 40
1
 40
1
 40
1
 10
205.776128
 20
396.793844
 30
0
 10
206.920128
 20
397.301844
 30
0
 10
207.436928
 20
398.642644
 30
0
 10
206.928928
 20
399.789044
 30
0
  0
SPLINE
  5
6B
100
AcDbEntity
  8
Layer_1
  6
ByLayer
 62
    7
370
   -1
100
AcDbSpline
210
0
220
0
230
0
 70
    8
 71
    3
 72
    8
 73
    4
 74
    0
 42
1e-007
 43
1e-007
 40
0
 40
0
 40
0
 40
0
 40
1
 40
1
 40
1
 40
1
 10
201.411328
 20
382.728244
 30
0
 10
200.330911
 20
386.523162
 30
0
 10
199.994335
 20
390.491165
 30
0
 10
200.420128
 20
394.413844
 30
0
  0
LWPOLYLINE
  5
6C
100
AcDbEntity
  8
Layer_1
  6
ByLayer
 62
    7
370
   -1
100
AcDbPolyline
 90
    5
 70
    1
 43
0
 10
206.928928
 20
399.789044
 10
205.825728
 20
402.283444
 10
210.164128
 20
402.283444
 10
210.164128
 20
382.728244
 10
201.411328
 20
382.728244
  0
LWPOLYLINE
  5
6D
100
AcDbEntity
  8
Layer_1
  6
ByLayer
 62
    7
370
   -1
100
AcDbPolyline
 90
    2
 70
    1
 43
0
 10
200.420128
 20
394.413844
 10
205.776128
 20
396.793844
  0
SPLINE
  5
6E
100
AcDbEntity
  8
Layer_1
  6
ByLayer
 62
    7
370
   -1
100
AcDbSpline
210
0
220
0
230
0
 70
    8
 71
    3
 72
    8
 73
    4
 74
    0
 42
1e-007
 43
1e-007
 40
0
 40
0
 40
0
 40
0
 40
1
 40
1
 40
1
 40
1
 10
234.255328
 20
402.077044
 30
0
 10
234.788928
 20
402.077044
 30
0
 10
238.023328
 20
401.460244
 30
0
 10
238.023328
 20
399.041844
 30
0
  0
SPLINE
  5
6F
100
AcDbEntity
  8
Layer_1
  6
ByLayer
 62
    7
370
   -1
100
AcDbSpline
210
0
220
0
230
0
 70
    8
 71
    3
 72
    8
 73
    4
 74
    0
 42
1e-007
 43
1e-007
 40
0
 40
0
 40
0
 40
0
 40
1
 40
1
 40
1
 40
1
 10
238.023328
 20
399.041844
 30
0
 10
238.023328
 20
397.033844
 30
0
 10
235.542528
 20
396.313844
 30
0
 10
233.502528
 20
396.313844
 30
0
  0
LWPOLYLINE
  5
70
100
AcDbEntity
  8
Layer_1
  6
ByLayer
 62
    7
370
   -1
100
AcDbPolyline
 90
    3
 70
    1
 43
0
 10
223.924128
 20
396.313044
 10
223.924128
 20
402.077044
 10
234.255328
 20
402.077044
  0
SPLINE
  5
71
100
AcDbEntity
  8
Layer_1
  6
ByLayer
 62
    7
370
   -1
100
AcDbSpline
210
0
220
0
230
0
 70
    8
 71
    3
 72
    8
 73
    4
 74
    0
 42
1e-007
 43
1e-007
 40
0
 40
0
 40
0
 40
0
 40
1
 40
1
 40
1
 40
1
 10
209.819328
 20
365.278644
 30
0
 10
209.819328
 20
366.166949
 30
0
 10
210.293233
 20
366.987777
 30
0
 10
211.062528
 20
367.431929
 30
0
  0
SPLINE
  5
72
100
AcDbEntity
  8
Layer_1
  6
ByLayer
 62
    7
370
   -1
100
AcDbSpline
210
0
220
0
230
0
 70
    8
 71
    3
 72
    8
 73
    4
 74
    0
 42
1e-007
 43
1e-007
 40
0
 40
0
 40
0
 40
0
 40
1
 40
1
 40
1
 40
1
 10
211.062528
 20
367.431929
 30
0
 10
211.831823
 20
367.876082
 30
0
 10
212.779633
 20
367.876082
 30
0
 10
213.548928
 20
367.431929
 30
0
  0
SPLINE
  5
73
100
AcDbEntity
  8
Layer_1
  6
ByLayer
 62
    7
370
   -1
100
AcDbSpline
210
0
220
0
230
0
 70
    8
 71
    3
 72
    8
 73
    4
 74
    0
 42
1e-007
 43
1e-007
 40
0
 40
0
 40
0
 40
0
 40
1
 40
1
 40
1
 40
1
 10
213.548928
 20
367.431929
 30
0
 10
214.318223
 20
366.987777
 30
0
 10
214.792128
 20
366.166949
 30
0
 10
214.792128
 20
365.278644
 30
0
  0
SPLINE
  5
74
100
AcDbEntity
  8
Layer_1
  6
ByLayer
 62
    7
370
   -1
100
AcDbSpline
210
0
220
0
230
0
 70
    8
 71
    3
 72
    8
 73
    4
 74
    0
 42
1e-007
 43
1e-007
 40
0
 40
0
 40
0
 40
0
 40
1
 40
1
 40
1
 40
1
 10
214.792128
 20
365.278644
 30
0
 10
214.792128
 20
364.390339
 30
0
 10
214.318223
 20
363.569511
 30
0
 10
213.548928
 20
363.125358
 30
0
  0
SPLINE
  5
75
100
AcDbEntity
  8
Layer_1
  6
ByLayer
 62
    7
370
   -1
100
AcDbSpline
210
0
220
0
230
0
 70
    8
 71
    3
 72
    8
 73
    4
 74
    0
 42
1e-007
 43
1e-007
 40
0
 40
0
 40
0
 40
0
 40
1
 40
1
 40
1
 40
1
 10
213.548928
 20
363.125358
 30
0
 10
212.779633
 20
362.681206
 30
0
 10
211.831823
 20
362.681206
 30
0
 10
211.062528
 20
363.125358
 30
0
  0
SPLINE
  5
76
100
AcDbEntity
  8
Layer_1
  6
ByLayer
 62
    7
370
   -1
100
AcDbSpline
210
0
220
0
230
0
 70
    8
 71
    3
 72
    8
 73
    4
 74
    0
 42
1e-007
 43
1e-007
 40
0
 40
0
 40
0
 40
0
 40
1
 40
1
 40
1
 40
1
 10
211.062528
 20
363.125358
 30
0
 10
210.293233
 20
363.569511
 30
0
 10
209.819328
 20
364.390339
 30
0
 10
209.819328
 20
365.278644
 30
0
  0
SPLINE
  5
77
100
AcDbEntity
  8
Layer_1
  6
ByLayer
 62
    7
370
   -1
100
AcDbSpline
210
0
220
0
230
0
 70
    8
 71
    3
 72
    8
 73
    4
 74
    0
 42
1e-007
 43
1e-007
 40
0
 40
0
 40
0
 40
0
 40
1
 40
1
 40
1
 40
1
 10
246.660128
 20
365.162644
 30
0
 10
246.660128
 20
366.050949
 30
0
 10
247.134033
 20
366.871777
 30
0
 10
247.903328
 20
367.315929
 30
0
  0
SPLINE
  5
78
100
AcDbEntity
  8
Layer_1
  6
ByLayer
 62
    7
370
   -1
100
AcDbSpline
210
0
220
0
230
0
 70
    8
 71
    3
 72
    8
 73
    4
 74
    0
 42
1e-007
 43
1e-007
 40
0
 40
0
 40
0
 40
0
 40
1
 40
1
 40
1
 40
1
 10
247.903328
 20
367.315929
 30
0
 10
248.672623
 20
367.760082
 30
0
 10
249.620433
 20
367.760082
 30
0
 10
250.389728
 20
367.315929
 30
0
  0
SPLINE
  5
79
100
AcDbEntity
  8
Layer_1
  6
ByLayer
 62
    7
370
   -1
100
AcDbSpline
210
0
220
0
230
0
 70
    8
 71
    3
 72
    8
 73
    4
 74
    0
 42
1e-007
 43
1e-007
 40
0
 40
0
 40
0
 40
0
 40
1
 40
1
 40
1
 40
1
 10
250.389728
 20
367.315929
 30
0
 10
251.159023
 20
366.871777
 30
0
 10
251.632928
 20
366.050949
 30
0
 10
251.632928
 20
365.162644
 30
0
  0
SPLINE
  5
7A
100
AcDbEntity
  8
Layer_1
  6
ByLayer
 62
    7
370
   -1
100
AcDbSpline
210
0
220
0
230
0
 70
    8
 71
    3
 72
    8
 73
    4
 74
    0
 42
1e-007
 43
1e-007
 40
0
 40
0
 40
0
 40
0
 40
1
 40
1
 40
1
 40
1
 10
251.632928
 20
365.162644
 30
0
 10
251.632928
 20
364.274339
 30
0
 10
251.159023
 20
363.453511
 30
0
 10
250.389728
 20
363.009358
 30
0
  0
SPLINE
  5
7B
100
AcDbEntity
  8
Layer_1
  6
ByLayer
 62
    7
370
   -1
100
AcDbSpline
210
0
220
0
230
0
 70
    8
 71
    3
 72
    8
 73
    4
 74
    0
 42
1e-007
 43
1e-007
 40
0
 40
0
 40
0
 40
0
 40
1
 40
1
 40
1
 40
1
 10
250.389728
 20
363.009358
 30
0
 10
249.620433
 20
362.565206
 30
0
 10
248.672623
 20
362.565206
 30
0
 10
247.903328
 20
363.009358
 30
0
  0
SPLINE
  5
7C
100
AcDbEntity
  8
Layer_1
  6
ByLayer
 62
    7
370
   -1
100
AcDbSpline
210
0
220
0
230
0
 70
    8
 71
    3
 72
    8
 73
    4
 74
    0
 42
1e-007
 43
1e-007
 40
0
 40
0
 40
0
 40
0
 40
1
 40
1
 40
1
 40
1
 10
247.903328
 20
363.009358
 30
0
 10
247.134033
 20
363.453511
 30
0
 10
246.660128
 20
364.274339
 30
0
 10
246.660128
 20
365.162644
 30
0
  0
SPLINE
  5
7D
100
AcDbEntity
  8
Layer_1
  6
ByLayer
 62
    7
370
   -1
100
AcDbSpline
210
0
220
0
230
0
 70
    8
 71
    3
 72
    8
 73
    4
 74
    0
 42
1e-007
 43
1e-007
 40
0
 40
0
 40
0
 40
0
 40
1
 40
1
 40
1
 40
1
 10
247.428928
 20
370.801044
 30
0
 10
246.204128
 20
371.063444
 30
0
 10
244.999328
 20
370.284244
 30
0
 10
244.736928
 20
369.057044
 30
0
  0
LWPOLYLINE
  5
7E
100
AcDbEntity
  8
Layer_1
  6
ByLayer
 62
    7
370
   -1
100
AcDbPolyline
 90
    2
 70
    1
 43
0
 10
233.502528
 20
396.313844
 10
223.924128
 20
396.313044
  0
SPLINE
  5
7F
100
AcDbEntity
  8
Layer_1
  6
ByLayer
 62
    7
370
   -1
100
AcDbSpline
210
0
220
0
230
0
 70
    8
 71
    3
 72
    8
 73
    4
 74
    0
 42
1e-007
 43
1e-007
 40
0
 40
0
 40
0
 40
0
 40
1
 40
1
 40
1
 40
1
 10
243.488928
 20
363.233044
 30
0
 10
235.367538
 20
359.554269
 30
0
 10
226.045869
 20
359.598962
 30
0
 10
217.960128
 20
363.355444
 30
0
  0
LWPOLYLINE
  5
80
100
AcDbEntity
  8
Layer_1
  6
ByLayer
 62
    7
370
   -1
100
AcDbPolyline
 90
    2
 70
    1
 43
0
 10
244.736928
 20
369.057044
 10
243.488928
 20
363.233044
  0
SPLINE
  5
81
100
AcDbEntity
  8
Layer_1
  6
ByLayer
 62
    7
370
   -1
100
AcDbSpline
210
0
220
0
230
0
 70
    8
 71
    3
 72
    8
 73
    4
 74
    0
 42
1e-007
 43
1e-007
 40
0
 40
0
 40
0
 40
0
 40
1
 40
1
 40
1
 40
1
 10
216.712928
 20
369.179444
 30
0
 10
216.450528
 20
370.405044
 30
0
 10
215.245728
 20
371.185844
 30
0
 10
214.021728
 20
370.922644
 30
0
  0
LWPOLYLINE
  5
82
100
AcDbEntity
  8
Layer_1
  6
ByLayer
 62
    7
370
   -1
100
AcDbPolyline
 90
    2
 70
    1
 43
0
 10
217.960128
 20
363.355444
 10
216.712928
 20
369.179444
  0
SPLINE
  5
83
100
AcDbEntity
  8
Layer_1
  6
ByLayer
 62
    7
370
   -1
100
AcDbSpline
210
0
220
0
230
0
 70
    8
 71
    3
 72
    8
 73
    4
 74
    0
 42
1e-007
 43
1e-007
 40
0
 40
0
 40
0
 40
0
 40
1
 40
1
 40
1
 40
1
 10
208.880128
 20
369.818644
 30
0
 10
207.924807
 20
370.802454
 30
0
 10
207.036673
 20
371.849346
 30
0
 10
206.221728
 20
372.952244
 30
0
  0
LWPOLYLINE
  5
84
100
AcDbEntity
  8
Layer_1
  6
ByLayer
 62
    7
370
   -1
100
AcDbPolyline
 90
    2
 70
    1
 43
0
 10
214.021728
 20
370.922644
 10
208.880128
 20
369.818644
  0
SPLINE
  5
85
100
AcDbEntity
  8
Layer_1
  6
ByLayer
 62
    7
370
   -1
100
AcDbSpline
210
0
220
0
230
0
 70
    8
 71
    3
 72
    8
 73
    4
 74
    0
 42
1e-007
 43
1e-007
 40
0
 40
0
 40
0
 40
0
 40
1
 40
1
 40
1
 40
1
 10
231.239328
 20
372.952244
 30
0
 10
231.522528
 20
372.952244
 30
0
 10
231.711328
 20
373.003444
 30
0
 10
231.711328
 20
373.261044
 30
0
  0
LWPOLYLINE
  5
86
100
AcDbEntity
  8
Layer_1
  6
ByLayer
 62
    7
370
   -1
100
AcDbPolyline
 90
    2
 70
    1
 43
0
 10
206.221728
 20
372.952244
 10
231.239328
 20
372.952244
  0
SPLINE
  5
87
100
AcDbEntity
  8
Layer_1
  6
ByLayer
 62
    7
370
   -1
100
AcDbSpline
210
0
220
0
230
0
 70
    8
 71
    3
 72
    8
 73
    4
 74
    0
 42
1e-007
 43
1e-007
 40
0
 40
0
 40
0
 40
0
 40
1
 40
1
 40
1
 40
1
 10
231.711328
 20
382.110644
 30
0
 10
231.711328
 20
382.368244
 30
0
 10
231.522528
 20
382.419444
 30
0
 10
231.239328
 20
382.419444
 30
0
  0
LWPOLYLINE
  5
88
100
AcDbEntity
  8
Layer_1
  6
ByLayer
 62
    7
370
   -1
100
AcDbPolyline
 90
    2
 70
    1
 43
0
 10
231.711328
 20
373.261044
 10
231.711328
 20
382.110644
  0
SPLINE
  5
89
100
AcDbEntity
  8
Layer_1
  6
ByLayer
 62
    7
370
   -1
100
AcDbSpline
210
0
220
0
230
0
 70
    8
 71
    3
 72
    8
 73
    4
 74
    0
 42
1e-007
 43
1e-007
 40
0
 40
0
 40
0
 40
0
 40
1
 40
1
 40
1
 40
1
 10
231.836128
 20
388.029044
 30
0
 10
232.558528
 20
388.029044
 30
0
 10
235.698528
 20
387.822644
 30
0
 10
236.702528
 20
383.809044
 30
0
  0
SPLINE
  5
8A
100
AcDbEntity
  8
Layer_1
  6
ByLayer
 62
    7
370
   -1
100
AcDbSpline
210
0
220
0
230
0
 70
    8
 71
    3
 72
    8
 73
    4
 74
    0
 42
1e-007
 43
1e-007
 40
0
 40
0
 40
0
 40
0
 40
1
 40
1
 40
1
 40
1
 10
236.702528
 20
383.809044
 30
0
 10
237.016928
 20
382.574644
 30
0
 10
237.707328
 20
378.559444
 30
0
 10
238.179328
 20
377.273844
 30
0
  0
SPLINE
  5
8B
100
AcDbEntity
  8
Layer_1
  6
ByLayer
 62
    7
370
   -1
100
AcDbSpline
210
0
220
0
230
0
 70
    8
 71
    3
 72
    8
 73
    4
 74
    0
 42
1e-007
 43
1e-007
 40
0
 40
0
 40
0
 40
0
 40
1
 40
1
 40
1
 40
1
 10
238.179328
 20
377.273844
 30
0
 10
238.649728
 20
375.832244
 30
0
 10
240.564928
 20
372.952244
 30
0
 10
242.605728
 20
372.952244
 30
0
  0
LWPOLYLINE
  5
8C
100
AcDbEntity
  8
Layer_1
  6
ByLayer
 62
    7
370
   -1
100
AcDbPolyline
 90
    4
 70
    1
 43
0
 10
231.239328
 20
382.419444
 10
223.922528
 20
382.419444
 10
223.922528
 20
388.029044
 10
231.836128
 20
388.029044
  0
SPLINE
  5
8D
100
AcDbEntity
  8
Layer_1
  6
ByLayer
 62
    7
370
   -1
100
AcDbSpline
210
0
220
0
230
0
 70
    8
 71
    3
 72
    8
 73
    4
 74
    0
 42
1e-007
 43
1e-007
 40
0
 40
0
 40
0
 40
0
 40
1
 40
1
 40
1
 40
1
 10
255.522528
 20
372.952244
 30
0
 10
254.65623
 20
371.792726
 30
0
 10
253.708786
 20
370.696108
 30
0
 10
252.687328
 20
369.670644
 30
0
  0
LWPOLYLINE
  5
8E
100
AcDbEntity
  8
Layer_1
  6
ByLayer
 62
    7
370
   -1
100
AcDbPolyline
 90
    2
 70
    1
 43
0
 10
242.605728
 20
372.952244
 10
255.522528
 20
372.952244
  0
SPLINE
  5
8F
100
AcDbEntity
  8
Layer_1
  6
ByLayer
 62
    7
370
   -1
100
AcDbSpline
210
0
220
0
230
0
 70
    8
 71
    3
 72
    8
 73
    4
 74
    0
 42
1e-007
 43
1e-007
 40
0
 40
0
 40
0
 40
0
 40
1
 40
1
 40
1
 40
1
 10
261.320928
 20
394.166644
 30
0
 10
261.496557
 20
392.400406
 30
0
 10
261.518239
 20
390.622239
 30
0
 10
261.385728
 20
388.852244
 30
0
  0
LWPOLYLINE
  5
90
100
AcDbEntity
  8
Layer_1
  6
ByLayer
 62
    7
370
   -1
100
AcDbPolyline
 90
    2
 70
    1
 43
0
 10
252.687328
 20
369.670644
 10
247.428928
 20
370.801044
  0
SPLINE
  5
91
100
AcDbEntity
  8
Layer_1
  6
ByLayer
 62
    7
370
   -1
100
AcDbSpline
210
0
220
0
230
0
 70
    8
 71
    3
 72
    8
 73
    4
 74
    0
 42
1e-007
 43
1e-007
 40
0
 40
0
 40
0
 40
0
 40
1
 40
1
 40
1
 40
1
 10
258.244928
 20
388.852244
 30
0
 10
257.930528
 20
388.852244
 30
0
 10
257.804128
 20
388.645844
 30
0
 10
257.804128
 20
388.337844
 30
0
  0
LWPOLYLINE
  5
92
100
AcDbEntity
  8
Layer_1
  6
ByLayer
 62
    7
370
   -1
100
AcDbPolyline
 90
    2
 70
    1
 43
0
 10
261.385728
 20
388.852244
 10
258.244928
 20
388.852244
  0
SPLINE
  5
93
100
AcDbEntity
  8
Layer_1
  6
ByLayer
 62
    7
370
   -1
100
AcDbSpline
210
0
220
0
230
0
 70
    8
 71
    3
 72
    8
 73
    4
 74
    0
 42
1e-007
 43
1e-007
 40
0
 40
0
 40
0
 40
0
 40
1
 40
1
 40
1
 40
1
 10
257.804128
 20
386.895444
 30
0
 10
257.804128
 20
383.500244
 30
0
 10
255.889728
 20
382.761844
 30
0
 10
254.212128
 20
382.573844
 30
0
  0
SPLINE
  5
94
100
AcDbEntity
  8
Layer_1
  6
ByLayer
 62
    7
370
   -1
100
AcDbSpline
210
0
220
0
230
0
 70
    8
 71
    3
 72
    8
 73
    4
 74
    0
 42
1e-007
 43
1e-007
 40
0
 40
0
 40
0
 40
0
 40
1
 40
1
 40
1
 40
1
 10
254.212128
 20
382.573844
 30
0
 10
252.614528
 20
382.393844
 30
0
 10
250.843328
 20
383.242644
 30
0
 10
250.624928
 20
384.220244
 30
0
  0
SPLINE
  5
95
100
AcDbEntity
  8
Layer_1
  6
ByLayer
 62
    7
370
   -1
100
AcDbSpline
210
0
220
0
230
0
 70
    8
 71
    3
 72
    8
 73
    4
 74
    0
 42
1e-007
 43
1e-007
 40
0
 40
0
 40
0
 40
0
 40
1
 40
1
 40
1
 40
1
 10
250.624928
 20
384.220244
 30
0
 10
249.682528
 20
389.521044
 30
0
 10
248.112128
 20
390.653044
 30
0
 10
245.632128
 20
392.609044
 30
0
  0
SPLINE
  5
96
100
AcDbEntity
  8
Layer_1
  6
ByLayer
 62
    7
370
   -1
100
AcDbSpline
210
0
220
0
230
0
 70
    8
 71
    3
 72
    8
 73
    4
 74
    0
 42
1e-007
 43
1e-007
 40
0
 40
0
 40
0
 40
0
 40
1
 40
1
 40
1
 40
1
 10
245.632128
 20
392.609044
 30
0
 10
248.709728
 20
394.563444
 30
0
 10
251.912128
 20
397.446644
 30
0
 10
251.912128
 20
401.305844
 30
0
  0
SPLINE
  5
97
100
AcDbEntity
  8
Layer_1
  6
ByLayer
 62
    7
370
   -1
100
AcDbSpline
210
0
220
0
230
0
 70
    8
 71
    3
 72
    8
 73
    4
 74
    0
 42
1e-007
 43
1e-007
 40
0
 40
0
 40
0
 40
0
 40
1
 40
1
 40
1
 40
1
 10
251.912128
 20
401.305844
 30
0
 10
251.912128
 20
405.473044
 30
0
 10
249.055328
 20
408.097844
 30
0
 10
247.108128
 20
409.385044
 30
0
  0
SPLINE
  5
98
100
AcDbEntity
  8
Layer_1
  6
ByLayer
 62
    7
370
   -1
100
AcDbSpline
210
0
220
0
230
0
 70
    8
 71
    3
 72
    8
 73
    4
 74
    0
 42
1e-007
 43
1e-007
 40
0
 40
0
 40
0
 40
0
 40
1
 40
1
 40
1
 40
1
 10
247.108128
 20
409.385044
 30
0
 10
244.376128
 20
411.185844
 30
0
 10
241.351328
 20
411.546644
 30
0
 10
240.535328
 20
411.546644
 30
0
  0
SPLINE
  5
99
100
AcDbEntity
  8
Layer_1
  6
ByLayer
 62
    7
370
   -1
100
AcDbSpline
210
0
220
0
230
0
 70
    8
 71
    3
 72
    8
 73
    4
 74
    0
 42
1e-007
 43
1e-007
 40
0
 40
0
 40
0
 40
0
 40
1
 40
1
 40
1
 40
1
 10
240.535328
 20
411.546644
 30
0
 10
240.535328
 20
411.546644
 30
0
 10
208.052928
 20
411.546644
 30
0
 10
208.052928
 20
411.546644
 30
0
  0
SPLINE
  5
9A
100
AcDbEntity
  8
Layer_1
  6
ByLayer
 62
    7
370
   -1
100
AcDbSpline
210
0
220
0
230
0
 70
    8
 71
    3
 72
    8
 73
    4
 74
    0
 42
1e-007
 43
1e-007
 40
0
 40
0
 40
0
 40
0
 40
1
 40
1
 40
1
 40
1
 10
208.052928
 20
411.546644
 30
0
 10
212.543297
 20
416.564442
 30
0
 10
218.562847
 20
419.961686
 30
0
 10
225.179328
 20
421.212244
 30
0
  0
LWPOLYLINE
  5
9B
100
AcDbEntity
  8
Layer_1
  6
ByLayer
 62
    7
370
   -1
100
AcDbPolyline
 90
    2
 70
    1
 43
0
 10
257.804128
 20
388.337844
 10
257.804128
 20
386.895444
  0
SPLINE
  5
9C
100
AcDbEntity
  8
Layer_1
  6
ByLayer
 62
    7
370
   -1
100
AcDbSpline
210
0
220
0
230
0
 70
    8
 71
    3
 72
    8
 73
    4
 74
    0
 42
1e-007
 43
1e-007
 40
0
 40
0
 40
0
 40
0
 40
1
 40
1
 40
1
 40
1
 10
229.008128
 20
417.195444
 30
0
 10
229.873728
 20
416.289044
 30
0
 10
231.307328
 20
416.255444
 30
0
 10
232.212928
 20
417.121844
 30
0
  0
SPLINE
  5
9D
100
AcDbEntity
  8
Layer_1
  6
ByLayer
 62
    7
370
   -1
100
AcDbSpline
210
0
220
0
230
0
 70
    8
 71
    3
 72
    8
 73
    4
 74
    0
 42
1e-007
 43
1e-007
 40
0
 40
0
 40
0
 40
0
 40
1
 40
1
 40
1
 40
1
 10
232.212928
 20
417.121844
 30
0
 10
232.212928
 20
417.121844
 30
0
 10
236.496928
 20
421.219444
 30
0
 10
236.496928
 20
421.219444
 30
0
  0
SPLINE
  5
9E
100
AcDbEntity
  8
Layer_1
  6
ByLayer
 62
    7
370
   -1
100
AcDbSpline
210
0
220
0
230
0
 70
    8
 71
    3
 72
    8
 73
    4
 74
    0
 42
1e-007
 43
1e-007
 40
0
 40
0
 40
0
 40
0
 40
1
 40
1
 40
1
 40
1
 10
236.496928
 20
421.219444
 30
0
 10
245.335697
 20
419.563843
 30
0
 10
252.999458
 20
414.105651
 30
0
 10
257.453728
 20
406.293844
 30
0
  0
LWPOLYLINE
  5
9F
100
AcDbEntity
  8
Layer_1
  6
ByLayer
 62
    7
370
   -1
100
AcDbPolyline
 90
    2
 70
    1
 43
0
 10
225.179328
 20
421.212244
 10
229.008128
 20
417.195444
  0
SPLINE
  5
A0
100
AcDbEntity
  8
Layer_1
  6
ByLayer
 62
    7
370
   -1
100
AcDbSpline
210
0
220
0
230
0
 70
    8
 71
    3
 72
    8
 73
    4
 74
    0
 42
1e-007
 43
1e-007
 40
0
 40
0
 40
0
 40
0
 40
1
 40
1
 40
1
 40
1
 10
254.520928
 20
399.669844
 30
0
 10
254.014528
 20
398.523444
 30
0
 10
254.531328
 20
397.182644
 30
0
 10
255.674528
 20
396.674644
 30
0
  0
LWPOLYLINE
  5
A1
100
AcDbEntity
  8
Layer_1
  6
ByLayer
 62
    7
370
   -1
100
AcDbPolyline
 90
    2
 70
    1
 43
0
 10
257.453728
 20
406.293844
 10
254.520928
 20
399.669844
  0
LWPOLYLINE
  5
A2
100
AcDbEntity
  8
Layer_1
  6
ByLayer
 62
    7
370
   -1
100
AcDbPolyline
 90
    2
 70
    1
 43
0
 10
255.674528
 20
396.674644
 10
261.320928
 20
394.166644
  0
SPLINE
  5
A3
100
AcDbEntity
  8
Layer_1
  6
ByLayer
 62
    7
370
   -1
100
AcDbSpline
210
0
220
0
230
0
 70
    8
 71
    3
 72
    8
 73
    4
 74
    0
 42
1e-007
 43
1e-007
 40
0
 40
0
 40
0
 40
0
 40
1
 40
1
 40
1
 40
1
 10
271.556128
 20
397.901044
 30
0
 10
272.170528
 20
398.473844
 30
0
 10
271.940928
 20
399.626644
 30
0
 10
271.155328
 20
399.919444
 30
0
  0
LWPOLYLINE
  5
A4
100
AcDbEntity
  8
Layer_1
  6
ByLayer
 62
    7
370
   -1
100
AcDbPolyline
 90
    3
 70
    1
 43
0
 10
268.635328
 20
394.059444
 10
268.535328
 20
395.083444
 10
271.556128
 20
397.901044
  0
SPLINE
  5
A5
100
AcDbEntity
  8
Layer_1
  6
ByLayer
 62
    7
370
   -1
100
AcDbSpline
210
0
220
0
230
0
 70
    8
 71
    3
 72
    8
 73
    4
 74
    0
 42
1e-007
 43
1e-007
 40
0
 40
0
 40
0
 40
0
 40
1
 40
1
 40
1
 40
1
 10
269.400128
 20
405.705844
 30
0
 10
269.891328
 20
406.385844
 30
0
 10
269.440128
 20
407.471444
 30
0
 10
268.612928
 20
407.607444
 30
0
  0
LWPOLYLINE
  5
A6
100
AcDbEntity
  8
Layer_1
  6
ByLayer
 62
    7
370
   -1
100
AcDbPolyline
 90
    4
 70
    1
 43
0
 10
271.155328
 20
399.919444
 10
267.293728
 20
401.363444
 10
266.991328
 20
402.360244
 10
269.400128
 20
405.705844
  0
SPLINE
  5
A7
100
AcDbEntity
  8
Layer_1
  6
ByLayer
 62
    7
370
   -1
100
AcDbSpline
210
0
220
0
230
0
 70
    8
 71
    3
 72
    8
 73
    4
 74
    0
 42
1e-007
 43
1e-007
 40
0
 40
0
 40
0
 40
0
 40
1
 40
1
 40
1
 40
1
 10
265.762528
 20
412.940244
 30
0
 10
266.112928
 20
413.705044
 30
0
 10
265.461728
 20
414.683444
 30
0
 10
264.620128
 20
414.651444
 30
0
  0
LWPOLYLINE
  5
A8
100
AcDbEntity
  8
Layer_1
  6
ByLayer
 62
    7
370
   -1
100
AcDbPolyline
 90
    4
 70
    1
 43
0
 10
268.612928
 20
407.607444
 10
264.540928
 20
408.269844
 10
264.051328
 20
409.184244
 10
265.762528
 20
412.940244
  0
SPLINE
  5
A9
100
AcDbEntity
  8
Layer_1
  6
ByLayer
 62
    7
370
   -1
100
AcDbSpline
210
0
220
0
230
0
 70
    8
 71
    3
 72
    8
 73
    4
 74
    0
 42
1e-007
 43
1e-007
 40
0
 40
0
 40
0
 40
0
 40
1
 40
1
 40
1
 40
1
 10
260.784128
 20
419.325044
 30
0
 10
260.976128
 20
420.142644
 30
0
 10
260.146528
 20
420.973044
 30
0
 10
259.328928
 20
420.781044
 30
0
  0
LWPOLYLINE
  5
AA
100
AcDbEntity
  8
Layer_1
  6
ByLayer
 62
    7
370
   -1
100
AcDbPolyline
 90
    4
 70
    1
 43
0
 10
264.620128
 20
414.651444
 10
260.487328
 20
414.507444
 10
259.834528
 20
415.299444
 10
260.784128
 20
419.325044
  0
SPLINE
  5
AB
100
AcDbEntity
  8
Layer_1
  6
ByLayer
 62
    7
370
   -1
100
AcDbSpline
210
0
220
0
230
0
 70
    8
 71
    3
 72
    8
 73
    4
 74
    0
 42
1e-007
 43
1e-007
 40
0
 40
0
 40
0
 40
0
 40
1
 40
1
 40
1
 40
1
 10
254.655328
 20
424.617844
 30
0
 10
254.687328
 20
425.454644
 30
0
 10
253.708128
 20
426.108244
 30
0
 10
252.944928
 20
425.761044
 30
0
  0
LWPOLYLINE
  5
AC
100
AcDbEntity
  8
Layer_1
  6
ByLayer
 62
    7
370
   -1
100
AcDbPolyline
 90
    4
 70
    1
 43
0
 10
259.328928
 20
420.781044
 10
255.304128
 20
419.832244
 10
254.510528
 20
420.485044
 10
254.655328
 20
424.617844
  0
SPLINE
  5
AD
100
AcDbEntity
  8
Layer_1
  6
ByLayer
 62
    7
370
   -1
100
AcDbSpline
210
0
220
0
230
0
 70
    8
 71
    3
 72
    8
 73
    4
 74
    0
 42
1e-007
 43
1e-007
 40
0
 40
0
 40
0
 40
0
 40
1
 40
1
 40
1
 40
1
 10
247.611328
 20
428.612244
 30
0
 10
247.476928
 20
429.437844
 30
0
 10
246.390528
 20
429.889044
 30
0
 10
245.710528
 20
429.399444
 30
0
  0
LWPOLYLINE
  5
AE
100
AcDbEntity
  8
Layer_1
  6
ByLayer
 62
    7
370
   -1
100
AcDbPolyline
 90
    4
 70
    1
 43
0
 10
252.944928
 20
425.761044
 10
249.189728
 20
424.049044
 10
248.275328
 20
424.539444
 10
247.611328
 20
428.612244
  0
SPLINE
  5
AF
100
AcDbEntity
  8
Layer_1
  6
ByLayer
 62
    7
370
   -1
100
AcDbSpline
210
0
220
0
230
0
 70
    8
 71
    3
 72
    8
 73
    4
 74
    0
 42
1e-007
 43
1e-007
 40
0
 40
0
 40
0
 40
0
 40
1
 40
1
 40
1
 40
1
 10
239.923328
 20
431.154644
 30
0
 10
239.630528
 20
431.941844
 30
0
 10
238.476928
 20
432.168244
 30
0
 10
237.905728
 20
431.557044
 30
0
  0
LWPOLYLINE
  5
B0
100
AcDbEntity
  8
Layer_1
  6
ByLayer
 62
    7
370
   -1
100
AcDbPolyline
 90
    4
 70
    1
 43
0
 10
245.710528
 20
429.399444
 10
242.362528
 20
426.990644
 10
241.367328
 20
427.292244
 10
239.923328
 20
431.154644
  0
SPLINE
  5
B1
100
AcDbEntity
  8
Layer_1
  6
ByLayer
 62
    7
370
   -1
100
AcDbSpline
210
0
220
0
230
0
 70
    8
 71
    3
 72
    8
 73
    4
 74
    0
 42
1e-007
 43
1e-007
 40
0
 40
0
 40
0
 40
0
 40
1
 40
1
 40
1
 40
1
 10
231.888128
 20
432.149844
 30
0
 10
231.448128
 20
432.861844
 30
0
 10
230.269728
 20
432.861844
 30
0
 10
229.831328
 20
432.149844
 30
0
  0
LWPOLYLINE
  5
B2
100
AcDbEntity
  8
Layer_1
  6
ByLayer
 62
    7
370
   -1
100
AcDbPolyline
 90
    4
 70
    1
 43
0
 10
237.905728
 20
431.557044
 10
235.088128
 20
428.533844
 10
234.064128
 20
428.633844
 10
231.888128
 20
432.149844
  0
SPLINE
  5
B3
100
AcDbEntity
  8
Layer_1
  6
ByLayer
 62
    7
370
   -1
100
AcDbSpline
210
0
220
0
230
0
 70
    8
 71
    3
 72
    8
 73
    4
 74
    0
 42
1e-007
 43
1e-007
 40
0
 40
0
 40
0
 40
0
 40
1
 40
1
 40
1
 40
1
 10
223.812128
 20
431.557044
 30
0
 10
223.240928
 20
432.168244
 30
0
 10
222.087328
 20
431.941844
 30
0
 10
221.794528
 20
431.154644
 30
0
  0
LWPOLYLINE
  5
B4
100
AcDbEntity
  8
Layer_1
  6
ByLayer
 62
    7
370
   -1
100
AcDbPolyline
 90
    4
 70
    1
 43
0
 10
229.831328
 20
432.149844
 10
227.655328
 20
428.633844
 10
226.630528
 20
428.533844
 10
223.812128
 20
431.557044
  0
SPLINE
  5
B5
100
AcDbEntity
  8
Layer_1
  6
ByLayer
 62
    7
370
   -1
100
AcDbSpline
210
0
220
0
230
0
 70
    8
 71
    3
 72
    8
 73
    4
 74
    0
 42
1e-007
 43
1e-007
 40
0
 40
0
 40
0
 40
0
 40
1
 40
1
 40
1
 40
1
 10
216.007328
 20
429.399444
 30
0
 10
215.327328
 20
429.890644
 30
0
 10
214.240128
 20
429.437844
 30
0
 10
214.105728
 20
428.612244
 30
0
  0
LWPOLYLINE
  5
B6
100
AcDbEntity
  8
Layer_1
  6
ByLayer
 62
    7
370
   -1
100
AcDbPolyline
 90
    4
 70
    1
 43
0
 10
221.794528
 20
431.154644
 10
220.350528
 20
427.292244
 10
219.354528
 20
426.990644
 10
216.007328
 20
429.399444
  0
SPLINE
  5
B7
100
AcDbEntity
  8
Layer_1
  6
ByLayer
 62
    7
370
   -1
100
AcDbSpline
210
0
220
0
230
0
 70
    8
 71
    3
 72
    8
 73
    4
 74
    0
 42
1e-007
 43
1e-007
 40
0
 40
0
 40
0
 40
0
 40
1
 40
1
 40
1
 40
1
 10
208.772128
 20
425.761044
 30
0
 10
208.008928
 20
426.109844
 30
0
 10
207.029728
 20
425.454644
 30
0
 10
207.061728
 20
424.617844
 30
0
  0
LWPOLYLINE
  5
B8
100
AcDbEntity
  8
Layer_1
  6
ByLayer
 62
    7
370
   -1
100
AcDbPolyline
 90
    4
 70
    1
 43
0
 10
214.105728
 20
428.612244
 10
213.441728
 20
424.539444
 10
212.527328
 20
424.049044
 10
208.772128
 20
425.761044
  0
SPLINE
  5
B9
100
AcDbEntity
  8
Layer_1
  6
ByLayer
 62
    7
370
   -1
100
AcDbSpline
210
0
220
0
230
0
 70
    8
 71
    3
 72
    8
 73
    4
 74
    0
 42
1e-007
 43
1e-007
 40
0
 40
0
 40
0
 40
0
 40
1
 40
1
 40
1
 40
1
 10
202.387328
 20
420.781044
 30
0
 10
201.569728
 20
420.971444
 30
0
 10
200.739328
 20
420.142644
 30
0
 10
200.931328
 20
419.325044
 30
0
  0
LWPOLYLINE
  5
BA
100
AcDbEntity
  8
Layer_1
  6
ByLayer
 62
    7
370
   -1
100
AcDbPolyline
 90
    4
 70
    1
 43
0
 10
207.061728
 20
424.617844
 10
207.205728
 20
420.485044
 10
206.412128
 20
419.832244
 10
202.387328
 20
420.781044
  0
SPLINE
  5
BB
100
AcDbEntity
  8
Layer_1
  6
ByLayer
 62
    7
370
   -1
100
AcDbSpline
210
0
220
0
230
0
 70
    8
 71
    3
 72
    8
 73
    4
 74
    0
 42
1e-007
 43
1e-007
 40
0
 40
0
 40
0
 40
0
 40
1
 40
1
 40
1
 40
1
 10
197.095328
 20
414.651444
 30
0
 10
196.261728
 20
414.675444
 30
0
 10
195.604928
 20
413.705044
 30
0
 10
195.952128
 20
412.940244
 30
0
  0
LWPOLYLINE
  5
BC
100
AcDbEntity
  8
Layer_1
  6
ByLayer
 62
    7
370
   -1
100
AcDbPolyline
 90
    4
 70
    1
 43
0
 10
200.931328
 20
419.325044
 10
201.879328
 20
415.299444
 10
201.228128
 20
414.507444
 10
197.095328
 20
414.651444
  0
SPLINE
  5
BD
100
AcDbEntity
  8
Layer_1
  6
ByLayer
 62
    7
370
   -1
100
AcDbSpline
210
0
220
0
230
0
 70
    8
 71
    3
 72
    8
 73
    4
 74
    0
 42
1e-007
 43
1e-007
 40
0
 40
0
 40
0
 40
0
 40
1
 40
1
 40
1
 40
1
 10
193.101728
 20
407.607444
 30
0
 10
192.274528
 20
407.473044
 30
0
 10
191.826528
 20
406.385844
 30
0
 10
192.314528
 20
405.705844
 30
0
  0
LWPOLYLINE
  5
BE
100
AcDbEntity
  8
Layer_1
  6
ByLayer
 62
    7
370
   -1
100
AcDbPolyline
 90
    4
 70
    1
 43
0
 10
195.952128
 20
412.940244
 10
197.664128
 20
409.184244
 10
197.173728
 20
408.269844
 10
193.101728
 20
407.607444
  0
SPLINE
  5
BF
100
AcDbEntity
  8
Layer_1
  6
ByLayer
 62
    7
370
   -1
100
AcDbSpline
210
0
220
0
230
0
 70
    8
 71
    3
 72
    8
 73
    4
 74
    0
 42
1e-007
 43
1e-007
 40
0
 40
0
 40
0
 40
0
 40
1
 40
1
 40
1
 40
1
 10
190.558528
 20
399.919444
 30
0
 10
189.774528
 20
399.626644
 30
0
 10
189.544928
 20
398.473844
 30
0
 10
190.157728
 20
397.901044
 30
0
  0
LWPOLYLINE
  5
C0
100
AcDbEntity
  8
Layer_1
  6
ByLayer
 62
    7
370
   -1
100
AcDbPolyline
 90
    4
 70
    1
 43
0
 10
192.314528
 20
405.705844
 10
194.723328
 20
402.360244
 10
194.420928
 20
401.363444
 10
190.558528
 20
399.919444
  0
SPLINE
  5
C1
100
AcDbEntity
  8
Layer_1
  6
ByLayer
 62
    7
370
   -1
100
AcDbSpline
210
0
220
0
230
0
 70
    8
 71
    3
 72
    8
 73
    4
 74
    0
 42
1e-007
 43
1e-007
 40
0
 40
0
 40
0
 40
0
 40
1
 40
1
 40
1
 40
1
 10
189.564128
 20
391.883444
 30
0
 10
188.852128
 20
391.443444
 30
0
 10
188.852128
 20
390.265044
 30
0
 10
189.564128
 20
389.826644
 30
0
  0
LWPOLYLINE
  5
C2
100
AcDbEntity
  8
Layer_1
  6
ByLayer
 62
    7
370
   -1
100
AcDbPolyline
 90
    4
 70
    1
 43
0
 10
190.157728
 20
397.901044
 10
193.179328
 20
395.083444
 10
193.079328
 20
394.059444
 10
189.564128
 20
391.883444
  0
SPLINE
  5
C3
100
AcDbEntity
  8
Layer_1
  6
ByLayer
 62
    7
370
   -1
100
AcDbSpline
210
0
220
0
230
0
 70
    8
 71
    3
 72
    8
 73
    4
 74
    0
 42
1e-007
 43
1e-007
 40
0
 40
0
 40
0
 40
0
 40
1
 40
1
 40
1
 40
1
 10
190.157728
 20
383.808244
 30
0
 10
189.544928
 20
383.237044
 30
0
 10
189.774528
 20
382.085044
 30
0
 10
190.558528
 20
381.790644
 30
0
  0
LWPOLYLINE
  5
C4
100
AcDbEntity
  8
Layer_1
  6
ByLayer
 62
    7
370
   -1
100
AcDbPolyline
 90
    4
 70
    1
 43
0
 10
189.564128
 20
389.826644
 10
193.079328
 20
387.650644
 10
193.179328
 20
386.626644
 10
190.157728
 20
383.808244
  0
SPLINE
  5
C5
100
AcDbEntity
  8
Layer_1
  6
ByLayer
 62
    7
370
   -1
100
AcDbSpline
210
0
220
0
230
0
 70
    8
 71
    3
 72
    8
 73
    4
 74
    0
 42
1e-007
 43
1e-007
 40
0
 40
0
 40
0
 40
0
 40
1
 40
1
 40
1
 40
1
 10
192.314528
 20
376.003444
 30
0
 10
191.824928
 20
375.321844
 30
0
 10
192.275328
 20
374.235444
 30
0
 10
193.102528
 20
374.102644
 30
0
  0
LWPOLYLINE
  5
C6
100
AcDbEntity
  8
Layer_1
  6
ByLayer
 62
    7
370
   -1
100
AcDbPolyline
 90
    4
 70
    1
 43
0
 10
190.558528
 20
381.790644
 10
194.420928
 20
380.346644
 10
194.723328
 20
379.349844
 10
192.314528
 20
376.003444
  0
SPLINE
  5
C7
100
AcDbEntity
  8
Layer_1
  6
ByLayer
 62
    7
370
   -1
100
AcDbSpline
210
0
220
0
230
0
 70
    8
 71
    3
 72
    8
 73
    4
 74
    0
 42
1e-007
 43
1e-007
 40
0
 40
0
 40
0
 40
0
 40
1
 40
1
 40
1
 40
1
 10
195.952128
 20
368.769844
 30
0
 10
195.603328
 20
368.006644
 30
0
 10
196.261728
 20
367.025044
 30
0
 10
197.095328
 20
367.058644
 30
0
  0
LWPOLYLINE
  5
C8
100
AcDbEntity
  8
Layer_1
  6
ByLayer
 62
    7
370
   -1
100
AcDbPolyline
 90
    4
 70
    1
 43
0
 10
193.102528
 20
374.102644
 10
197.173728
 20
373.440244
 10
197.664128
 20
372.524244
 10
195.952128
 20
368.769844
  0
SPLINE
  5
C9
100
AcDbEntity
  8
Layer_1
  6
ByLayer
 62
    7
370
   -1
100
AcDbSpline
210
0
220
0
230
0
 70
    8
 71
    3
 72
    8
 73
    4
 74
    0
 42
1e-007
 43
1e-007
 40
0
 40
0
 40
0
 40
0
 40
1
 40
1
 40
1
 40
1
 10
200.931328
 20
362.383444
 30
0
 10
200.739328
 20
361.567444
 30
0
 10
201.569728
 20
360.738644
 30
0
 10
202.387328
 20
360.930644
 30
0
  0
LWPOLYLINE
  5
CA
100
AcDbEntity
  8
Layer_1
  6
ByLayer
 62
    7
370
   -1
100
AcDbPolyline
 90
    4
 70
    1
 43
0
 10
197.095328
 20
367.058644
 10
201.226528
 20
367.203444
 10
201.879328
 20
366.409844
 10
200.931328
 20
362.383444
  0
SPLINE
  5
CB
100
AcDbEntity
  8
Layer_1
  6
ByLayer
 62
    7
370
   -1
100
AcDbSpline
210
0
220
0
230
0
 70
    8
 71
    3
 72
    8
 73
    4
 74
    0
 42
1e-007
 43
1e-007
 40
0
 40
0
 40
0
 40
0
 40
1
 40
1
 40
1
 40
1
 10
207.061728
 20
357.093844
 30
0
 10
207.029728
 20
356.257044
 30
0
 10
208.008928
 20
355.602644
 30
0
 10
208.772128
 20
355.951444
 30
0
  0
LWPOLYLINE
  5
CC
100
AcDbEntity
  8
Layer_1
  6
ByLayer
 62
    7
370
   -1
100
AcDbPolyline
 90
    4
 70
    1
 43
0
 10
202.387328
 20
360.930644
 10
206.412128
 20
361.878644
 10
207.205728
 20
361.227444
 10
207.061728
 20
357.093844
  0
SPLINE
  5
CD
100
AcDbEntity
  8
Layer_1
  6
ByLayer
 62
    7
370
   -1
100
AcDbSpline
210
0
220
0
230
0
 70
    8
 71
    3
 72
    8
 73
    4
 74
    0
 42
1e-007
 43
1e-007
 40
0
 40
0
 40
0
 40
0
 40
1
 40
1
 40
1
 40
1
 10
214.105728
 20
353.101844
 30
0
 10
214.240128
 20
352.273044
 30
0
 10
215.327328
 20
351.825044
 30
0
 10
216.007328
 20
352.313044
 30
0
  0
LWPOLYLINE
  5
CE
100
AcDbEntity
  8
Layer_1
  6
ByLayer
 62
    7
370
   -1
100
AcDbPolyline
 90
    4
 70
    1
 43
0
 10
208.772128
 20
355.951444
 10
212.527328
 20
357.662644
 10
213.441728
 20
357.172244
 10
214.105728
 20
353.101844
  0
SPLINE
  5
CF
100
AcDbEntity
  8
Layer_1
  6
ByLayer
 62
    7
370
   -1
100
AcDbSpline
210
0
220
0
230
0
 70
    8
 71
    3
 72
    8
 73
    4
 74
    0
 42
1e-007
 43
1e-007
 40
0
 40
0
 40
0
 40
0
 40
1
 40
1
 40
1
 40
1
 10
221.793728
 20
350.559444
 30
0
 10
222.086528
 20
349.775444
 30
0
 10
223.240128
 20
349.544244
 30
0
 10
223.811328
 20
350.158644
 30
0
  0
LWPOLYLINE
  5
D0
100
AcDbEntity
  8
Layer_1
  6
ByLayer
 62
    7
370
   -1
100
AcDbPolyline
 90
    4
 70
    1
 43
0
 10
216.007328
 20
352.313044
 10
219.352928
 20
354.723444
 10
220.349728
 20
354.420244
 10
221.793728
 20
350.559444
  0
SPLINE
  5
D1
100
AcDbEntity
  8
Layer_1
  6
ByLayer
 62
    7
370
   -1
100
AcDbSpline
210
0
220
0
230
0
 70
    8
 71
    3
 72
    8
 73
    4
 74
    0
 42
1e-007
 43
1e-007
 40
0
 40
0
 40
0
 40
0
 40
1
 40
1
 40
1
 40
1
 10
229.830528
 20
349.562644
 30
0
 10
230.268928
 20
348.853844
 30
0
 10
231.447328
 20
348.852244
 30
0
 10
231.887328
 20
349.562644
 30
0
  0
LWPOLYLINE
  5
D2
100
AcDbEntity
  8
Layer_1
  6
ByLayer
 62
    7
370
   -1
100
AcDbPolyline
 90
    4
 70
    1
 43
0
 10
223.811328
 20
350.158644
 10
226.629728
 20
353.180244
 10
227.654528
 20
353.077844
 10
229.830528
 20
349.562644
  0
SPLINE
  5
D3
100
AcDbEntity
  8
Layer_1
  6
ByLayer
 62
    7
370
   -1
100
AcDbSpline
210
0
220
0
230
0
 70
    8
 71
    3
 72
    8
 73
    4
 74
    0
 42
1e-007
 43
1e-007
 40
0
 40
0
 40
0
 40
0
 40
1
 40
1
 40
1
 40
1
 10
237.904928
 20
350.158644
 30
0
 10
238.476128
 20
349.544244
 30
0
 10
239.629728
 20
349.775444
 30
0
 10
239.922528
 20
350.559444
 30
0
  0
LWPOLYLINE
  5
D4
100
AcDbEntity
  8
Layer_1
  6
ByLayer
 62
    7
370
   -1
100
AcDbPolyline
 90
    4
 70
    1
 43
0
 10
231.887328
 20
349.562644
 10
234.063328
 20
353.077844
 10
235.087328
 20
353.180244
 10
237.904928
 20
350.158644
  0
SPLINE
  5
D5
100
AcDbEntity
  8
Layer_1
  6
ByLayer
 62
    7
370
   -1
100
AcDbSpline
210
0
220
0
230
0
 70
    8
 71
    3
 72
    8
 73
    4
 74
    0
 42
1e-007
 43
1e-007
 40
0
 40
0
 40
0
 40
0
 40
1
 40
1
 40
1
 40
1
 10
245.709728
 20
352.313044
 30
0
 10
246.389728
 20
351.825044
 30
0
 10
247.476128
 20
352.274644
 30
0
 10
247.610528
 20
353.101844
 30
0
  0
LWPOLYLINE
  5
D6
100
AcDbEntity
  8
Layer_1
  6
ByLayer
 62
    7
370
   -1
100
AcDbPolyline
 90
    4
 70
    1
 43
0
 10
239.922528
 20
350.559444
 10
241.366528
 20
354.420244
 10
242.363328
 20
354.723444
 10
245.709728
 20
352.313044
  0
SPLINE
  5
D7
100
AcDbEntity
  8
Layer_1
  6
ByLayer
 62
    7
370
   -1
100
AcDbSpline
210
0
220
0
230
0
 70
    8
 71
    3
 72
    8
 73
    4
 74
    0
 42
1e-007
 43
1e-007
 40
0
 40
0
 40
0
 40
0
 40
1
 40
1
 40
1
 40
1
 10
252.944128
 20
355.951444
 30
0
 10
253.707328
 20
355.602644
 30
0
 10
254.684928
 20
356.255444
 30
0
 10
254.654528
 20
357.093844
 30
0
  0
LWPOLYLINE
  5
D8
100
AcDbEntity
  8
Layer_1
  6
ByLayer
 62
    7
370
   -1
100
AcDbPolyline
 90
    4
 70
    1
 43
0
 10
247.610528
 20
353.101844
 10
248.274528
 20
357.172244
 10
249.188928
 20
357.662644
 10
252.944128
 20
355.951444
  0
SPLINE
  5
D9
100
AcDbEntity
  8
Layer_1
  6
ByLayer
 62
    7
370
   -1
100
AcDbSpline
210
0
220
0
230
0
 70
    8
 71
    3
 72
    8
 73
    4
 74
    0
 42
1e-007
 43
1e-007
 40
0
 40
0
 40
0
 40
0
 40
1
 40
1
 40
1
 40
1
 10
259.328128
 20
360.930644
 30
0
 10
260.145728
 20
360.738644
 30
0
 10
260.975328
 20
361.567444
 30
0
 10
260.783328
 20
362.383444
 30
0
  0
LWPOLYLINE
  5
DA
100
AcDbEntity
  8
Layer_1
  6
ByLayer
 62
    7
370
   -1
100
AcDbPolyline
 90
    4
 70
    1
 43
0
 10
254.654528
 20
357.093844
 10
254.510528
 20
361.227444
 10
255.303328
 20
361.878644
 10
259.328128
 20
360.930644
  0
SPLINE
  5
DB
100
AcDbEntity
  8
Layer_1
  6
ByLayer
 62
    7
370
   -1
100
AcDbSpline
210
0
220
0
230
0
 70
    8
 71
    3
 72
    8
 73
    4
 74
    0
 42
1e-007
 43
1e-007
 40
0
 40
0
 40
0
 40
0
 40
1
 40
1
 40
1
 40
1
 10
264.619328
 20
367.058644
 30
0
 10
265.452928
 20
367.025044
 30
0
 10
266.112128
 20
368.006644
 30
0
 10
265.761728
 20
368.769844
 30
0
  0
LWPOLYLINE
  5
DC
100
AcDbEntity
  8
Layer_1
  6
ByLayer
 62
    7
370
   -1
100
AcDbPolyline
 90
    4
 70
    1
 43
0
 10
260.783328
 20
362.383444
 10
259.835328
 20
366.409844
 10
260.486528
 20
367.203444
 10
264.619328
 20
367.058644
  0
SPLINE
  5
DD
100
AcDbEntity
  8
Layer_1
  6
ByLayer
 62
    7
370
   -1
100
AcDbSpline
210
0
220
0
230
0
 70
    8
 71
    3
 72
    8
 73
    4
 74
    0
 42
1e-007
 43
1e-007
 40
0
 40
0
 40
0
 40
0
 40
1
 40
1
 40
1
 40
1
 10
268.612128
 20
374.102644
 30
0
 10
269.440928
 20
374.235444
 30
0
 10
269.890528
 20
375.321844
 30
0
 10
269.399328
 20
376.003444
 30
0
  0
LWPOLYLINE
  5
DE
100
AcDbEntity
  8
Layer_1
  6
ByLayer
 62
    7
370
   -1
100
AcDbPolyline
 90
    4
 70
    1
 43
0
 10
265.761728
 20
368.769844
 10
264.050528
 20
372.524244
 10
264.540128
 20
373.440244
 10
268.612128
 20
374.102644
  0
SPLINE
  5
DF
100
AcDbEntity
  8
Layer_1
  6
ByLayer
 62
    7
370
   -1
100
AcDbSpline
210
0
220
0
230
0
 70
    8
 71
    3
 72
    8
 73
    4
 74
    0
 42
1e-007
 43
1e-007
 40
0
 40
0
 40
0
 40
0
 40
1
 40
1
 40
1
 40
1
 10
271.154528
 20
381.790644
 30
0
 10
271.940128
 20
382.085044
 30
0
 10
272.169728
 20
383.237044
 30
0
 10
271.555328
 20
383.808244
 30
0
  0
LWPOLYLINE
  5
E0
100
AcDbEntity
  8
Layer_1
  6
ByLayer
 62
    7
370
   -1
100
AcDbPolyline
 90
    4
 70
    1
 43
0
 10
269.399328
 20
376.003444
 10
266.990528
 20
379.349844
 10
267.292928
 20
380.346644
 10
271.154528
 20
381.790644
  0
SPLINE
  5
E1
100
AcDbEntity
  8
Layer_1
  6
ByLayer
 62
    7
370
   -1
100
AcDbSpline
210
0
220
0
230
0
 70
    8
 71
    3
 72
    8
 73
    4
 74
    0
 42
1e-007
 43
1e-007
 40
0
 40
0
 40
0
 40
0
 40
1
 40
1
 40
1
 40
1
 10
272.149728
 20
389.826644
 30
0
 10
272.861728
 20
390.265044
 30
0
 10
272.862528
 20
391.443444
 30
0
 10
272.149728
 20
391.883444
 30
0
  0
LWPOLYLINE
  5
E2
100
AcDbEntity
  8
Layer_1
  6
ByLayer
 62
    7
370
   -1
100
AcDbPolyline
 90
    4
 70
    1
 43
0
 10
271.555328
 20
383.808244
 10
268.534528
 20
386.626644
 10
268.634528
 20
387.650644
 10
272.149728
 20
389.826644
  0
LWPOLYLINE
  5
E3
100
AcDbEntity
  8
Layer_1
  6
ByLayer
 62
    7
370
   -1
100
AcDbPolyline
 90
    2
 70
    1
 43
0
 10
272.149728
 20
391.883444
 10
268.635328
 20
394.059444
  0
ENDBLK
  5
51
330
4F
100
AcDbEntity
  8
0
100
AcDbBlockEnd
  0
BLOCK
  5
53
330
52
100
AcDbEntity
  8
0
100
AcDbBlockBegin
  2
Cathar_cross
 70
    0
 10
0
 20
0
  3
Cathar_cross
  1

  0
SPLINE
  5
E4
100
AcDbEntity
  8
0
  6
ByLayer
 62
    7
370
   -1
100
AcDbSpline
210
0
220
0
230
0
 70
    8
 71
    3
 72
    8
 73
    4
 74
    0
 42
1e-007
 43
1e-007
 40
0
 40
0
 40
0
 40
0
 40
1
 40
1
 40
1
 40
1
 10
72.693155
 20
76.34236799999999
 30
0
 10
73.936778
 20
60.937096
 30
0
 10
66.03618
 20
42.518192
 30
0
 10
56.200232
 20
29.74332
 30
0
  0
SPLINE
  5
E5
100
AcDbEntity
  8
0
  6
ByLayer
 62
    7
370
   -1
100
AcDbSpline
210
0
220
0
230
0
 70
    8
 71
    3
 72
    8
 73
    4
 74
    0
 42
1e-007
 43
1e-007
 40
0
 40
0
 40
0
 40
0
 40
1
 40
1
 40
1
 40
1
 10
56.200232
 20
29.74332
 30
0
 10
65.6113
 20
26.82204
 30
0
 10
73.45497400000001
 20
22.417672
 30
0
 10
80.023888
 20
15.57208
 30
0
  0
SPLINE
  5
E6
100
AcDbEntity
  8
0
  6
ByLayer
 62
    7
370
   -1
100
AcDbSpline
210
0
220
0
230
0
 70
    8
 71
    3
 72
    8
 73
    4
 74
    0
 42
1e-007
 43
1e-007
 40
0
 40
0
 40
0
 40
0
 40
1
 40
1
 40
1
 40
1
 10
80.023888
 20
15.57208
 30
0
 10
87.05255200000001
 20
23.330408
 30
0
 10
95.449584
 20
27.434168
 30
0
 10
103.694264
 20
29.947424
 30
0
  0
SPLINE
  5
E7
100
AcDbEntity
  8
0
  6
ByLayer
 62
    7
370
   -1
100
AcDbSpline
210
0
220
0
230
0
 70
    8
 71
    3
 72
    8
 73
    4
 74
    0
 42
1e-007
 43
1e-007
 40
0
 40
0
 40
0
 40
0
 40
1
 40
1
 40
1
 40
1
 10
103.694264
 20
29.947424
 30
0
 10
92.781888
 20
43.717824
 30
0
 10
86.9828
 20
62.12036
 30
0
 10
87.30676
 20
76.43371999999999
 30
0
  0
SPLINE
  5
E8
100
AcDbEntity
  8
0
  6
ByLayer
 62
    7
370
   -1
100
AcDbSpline
210
0
220
0
230
0
 70
    8
 71
    3
 72
    8
 73
    4
 74
    0
 42
1e-007
 43
1e-007
 40
0
 40
0
 40
0
 40
0
 40
1
 40
1
 40
1
 40
1
 10
72.693155
 20
83.65774399999999
 30
0
 10
73.936778
 20
99.063016
 30
0
 10
66.03618
 20
117.48192
 30
0
 10
56.200232
 20
130.256792
 30
0
  0
SPLINE
  5
E9
100
AcDbEntity
  8
0
  6
ByLayer
 62
    7
370
   -1
100
AcDbSpline
210
0
220
0
230
0
 70
    8
 71
    3
 72
    8
 73
    4
 74
    0
 42
1e-007
 43
1e-007
 40
0
 40
0
 40
0
 40
0
 40
1
 40
1
 40
1
 40
1
 10
56.200232
 20
130.256792
 30
0
 10
65.6113
 20
133.178072
 30
0
 10
73.45497400000001
 20
137.58244
 30
0
 10
80.023888
 20
144.428032
 30
0
  0
SPLINE
  5
EA
100
AcDbEntity
  8
0
  6
ByLayer
 62
    7
370
   -1
100
AcDbSpline
210
0
220
0
230
0
 70
    8
 71
    3
 72
    8
 73
    4
 74
    0
 42
1e-007
 43
1e-007
 40
0
 40
0
 40
0
 40
0
 40
1
 40
1
 40
1
 40
1
 10
80.023888
 20
144.428032
 30
0
 10
87.05255200000001
 20
136.669704
 30
0
 10
95.449584
 20
132.565944
 30
0
 10
103.694264
 20
130.052688
 30
0
  0
SPLINE
  5
EB
100
AcDbEntity
  8
0
  6
ByLayer
 62
    7
370
   -1
100
AcDbSpline
210
0
220
0
230
0
 70
    8
 71
    3
 72
    8
 73
    4
 74
    0
 42
1e-007
 43
1e-007
 40
0
 40
0
 40
0
 40
0
 40
1
 40
1
 40
1
 40
1
 10
103.694264
 20
130.052688
 30
0
 10
92.781888
 20
116.282288
 30
0
 10
86.9828
 20
97.879752
 30
0
 10
87.30676
 20
83.56639199999999
 30
0
  0
SPLINE
  5
EC
100
AcDbEntity
  8
0
  6
ByLayer
 62
    7
370
   -1
100
AcDbSpline
210
0
220
0
230
0
 70
    8
 71
    3
 72
    8
 73
    4
 74
    0
 42
1e-007
 43
1e-007
 40
0
 40
0
 40
0
 40
0
 40
1
 40
1
 40
1
 40
1
 10
83.657736
 20
72.693168
 30
0
 10
99.063008
 20
73.936792
 30
0
 10
117.481912
 20
66.036192
 30
0
 10
130.256784
 20
56.200248
 30
0
  0
SPLINE
  5
ED
100
AcDbEntity
  8
0
  6
ByLayer
 62
    7
370
   -1
100
AcDbSpline
210
0
220
0
230
0
 70
    8
 71
    3
 72
    8
 73
    4
 74
    0
 42
1e-007
 43
1e-007
 40
0
 40
0
 40
0
 40
0
 40
1
 40
1
 40
1
 40
1
 10
130.256784
 20
56.200248
 30
0
 10
133.178064
 20
65.61132000000001
 30
0
 10
137.582432
 20
73.454992
 30
0
 10
144.428024
 20
80.023904
 30
0
  0
SPLINE
  5
EE
100
AcDbEntity
  8
0
  6
ByLayer
 62
    7
370
   -1
100
AcDbSpline
210
0
220
0
230
0
 70
    8
 71
    3
 72
    8
 73
    4
 74
    0
 42
1e-007
 43
1e-007
 40
0
 40
0
 40
0
 40
0
 40
1
 40
1
 40
1
 40
1
 10
144.428024
 20
80.023904
 30
0
 10
136.669696
 20
87.05256799999999
 30
0
 10
132.565936
 20
95.4496
 30
0
 10
130.05268
 20
103.69428
 30
0
  0
SPLINE
  5
EF
100
AcDbEntity
  8
0
  6
ByLayer
 62
    7
370
   -1
100
AcDbSpline
210
0
220
0
230
0
 70
    8
 71
    3
 72
    8
 73
    4
 74
    0
 42
1e-007
 43
1e-007
 40
0
 40
0
 40
0
 40
0
 40
1
 40
1
 40
1
 40
1
 10
130.05268
 20
103.69428
 30
0
 10
116.28228
 20
92.781904
 30
0
 10
97.879744
 20
86.982816
 30
0
 10
83.566384
 20
87.306776
 30
0
  0
SPLINE
  5
F0
100
AcDbEntity
  8
0
  6
ByLayer
 62
    7
370
   -1
100
AcDbSpline
210
0
220
0
230
0
 70
    8
 71
    3
 72
    8
 73
    4
 74
    0
 42
1e-007
 43
1e-007
 40
0
 40
0
 40
0
 40
0
 40
1
 40
1
 40
1
 40
1
 10
76.34235200000001
 20
72.693168
 30
0
 10
60.93708
 20
73.936792
 30
0
 10
42.518176
 20
66.036192
 30
0
 10
29.743304
 20
56.200248
 30
0
  0
SPLINE
  5
F1
100
AcDbEntity
  8
0
  6
ByLayer
 62
    7
370
   -1
100
AcDbSpline
210
0
220
0
230
0
 70
    8
 71
    3
 72
    8
 73
    4
 74
    0
 42
1e-007
 43
1e-007
 40
0
 40
0
 40
0
 40
0
 40
1
 40
1
 40
1
 40
1
 10
29.743304
 20
56.200248
 30
0
 10
26.822024
 20
65.61132000000001
 30
0
 10
22.417656
 20
73.454992
 30
0
 10
15.572064
 20
80.023904
 30
0
  0
SPLINE
  5
F2
100
AcDbEntity
  8
0
  6
ByLayer
 62
    7
370
   -1
100
AcDbSpline
210
0
220
0
230
0
 70
    8
 71
    3
 72
    8
 73
    4
 74
    0
 42
1e-007
 43
1e-007
 40
0
 40
0
 40
0
 40
0
 40
1
 40
1
 40
1
 40
1
 10
15.572064
 20
80.023904
 30
0
 10
23.330392
 20
87.05256799999999
 30
0
 10
27.434152
 20
95.4496
 30
0
 10
29.947408
 20
103.69428
 30
0
  0
SPLINE
  5
F3
100
AcDbEntity
  8
0
  6
ByLayer
 62
    7
370
   -1
100
AcDbSpline
210
0
220
0
230
0
 70
    8
 71
    3
 72
    8
 73
    4
 74
    0
 42
1e-007
 43
1e-007
 40
0
 40
0
 40
0
 40
0
 40
1
 40
1
 40
1
 40
1
 10
29.947408
 20
103.69428
 30
0
 10
43.717808
 20
92.781904
 30
0
 10
62.120344
 20
86.982816
 30
0
 10
76.43370400000001
 20
87.306776
 30
0
  0
SPLINE
  5
F4
100
AcDbEntity
  8
0
  6
ByLayer
 62
    7
370
   -1
100
AcDbSpline
210
0
220
0
230
0
 70
    8
 71
    3
 72
    8
 73
    4
 74
    0
 42
1e-007
 43
1e-007
 40
0
 40
0
 40
0
 40
0
 40
1
 40
1
 40
1
 40
1
 10
79.999996
 20
11.913283
 30
0
 10
81.591295
 20
11.913283
 30
0
 10
83.117419
 20
11.28571
 30
0
 10
84.242637
 20
10.168623
 30
0
  0
SPLINE
  5
F5
100
AcDbEntity
  8
0
  6
ByLayer
 62
    7
370
   -1
100
AcDbSpline
210
0
220
0
230
0
 70
    8
 71
    3
 72
    8
 73
    4
 74
    0
 42
1e-007
 43
1e-007
 40
0
 40
0
 40
0
 40
0
 40
1
 40
1
 40
1
 40
1
 10
84.242637
 20
10.168623
 30
0
 10
85.36785500000001
 20
9.051534999999999
 30
0
 10
85.999995
 20
7.53644
 30
0
 10
85.999994
 20
5.95664
 30
0
  0
SPLINE
  5
F6
100
AcDbEntity
  8
0
  6
ByLayer
 62
    7
370
   -1
100
AcDbSpline
210
0
220
0
230
0
 70
    8
 71
    3
 72
    8
 73
    4
 74
    0
 42
1e-007
 43
1e-007
 40
0
 40
0
 40
0
 40
0
 40
1
 40
1
 40
1
 40
1
 10
85.999994
 20
5.95664
 30
0
 10
85.99999200000001
 20
2.666881
 30
0
 10
83.31370200000001
 20
5e-006
 30
0
 10
79.999996
 20
5e-006
 30
0
  0
SPLINE
  5
F7
100
AcDbEntity
  8
0
  6
ByLayer
 62
    7
370
   -1
100
AcDbSpline
210
0
220
0
230
0
 70
    8
 71
    3
 72
    8
 73
    4
 74
    0
 42
1e-007
 43
1e-007
 40
0
 40
0
 40
0
 40
0
 40
1
 40
1
 40
1
 40
1
 10
79.999996
 20
5e-006
 30
0
 10
76.68629
 20
5e-006
 30
0
 10
74.000001
 20
2.666881
 30
0
 10
73.99999800000001
 20
5.95664
 30
0
  0
SPLINE
  5
F8
100
AcDbEntity
  8
0
  6
ByLayer
 62
    7
370
   -1
100
AcDbSpline
210
0
220
0
230
0
 70
    8
 71
    3
 72
    8
 73
    4
 74
    0
 42
1e-007
 43
1e-007
 40
0
 40
0
 40
0
 40
0
 40
1
 40
1
 40
1
 40
1
 10
73.99999800000001
 20
5.95664
 30
0
 10
73.99999699999999
 20
7.53644
 30
0
 10
74.632138
 20
9.051534999999999
 30
0
 10
75.757356
 20
10.168622
 30
0
  0
SPLINE
  5
F9
100
AcDbEntity
  8
0
  6
ByLayer
 62
    7
370
   -1
100
AcDbSpline
210
0
220
0
230
0
 70
    8
 71
    3
 72
    8
 73
    4
 74
    0
 42
1e-007
 43
1e-007
 40
0
 40
0
 40
0
 40
0
 40
1
 40
1
 40
1
 40
1
 10
75.757356
 20
10.168622
 30
0
 10
76.88257299999999
 20
11.28571
 30
0
 10
78.408697
 20
11.913283
 30
0
 10
79.999996
 20
11.913283
 30
0
  0
SPLINE
  5
FA
100
AcDbEntity
  8
0
  6
ByLayer
 62
    7
370
   -1
100
AcDbSpline
210
0
220
0
230
0
 70
    8
 71
    3
 72
    8
 73
    4
 74
    0
 42
1e-007
 43
1e-007
 40
0
 40
0
 40
0
 40
0
 40
1
 40
1
 40
1
 40
1
 10
45.999998
 20
32.000039
 30
0
 10
47.591297
 20
32.000039
 30
0
 10
49.11742
 20
31.367897
 30
0
 10
50.242638
 20
30.242678
 30
0
  0
SPLINE
  5
FB
100
AcDbEntity
  8
0
  6
ByLayer
 62
    7
370
   -1
100
AcDbSpline
210
0
220
0
230
0
 70
    8
 71
    3
 72
    8
 73
    4
 74
    0
 42
1e-007
 43
1e-007
 40
0
 40
0
 40
0
 40
0
 40
1
 40
1
 40
1
 40
1
 10
50.242638
 20
30.242678
 30
0
 10
51.367856
 20
29.117459
 30
0
 10
51.999997
 20
27.591335
 30
0
 10
51.999996
 20
26.000035
 30
0
  0
SPLINE
  5
FC
100
AcDbEntity
  8
0
  6
ByLayer
 62
    7
370
   -1
100
AcDbSpline
210
0
220
0
230
0
 70
    8
 71
    3
 72
    8
 73
    4
 74
    0
 42
1e-007
 43
1e-007
 40
0
 40
0
 40
0
 40
0
 40
1
 40
1
 40
1
 40
1
 10
51.999996
 20
26.000035
 30
0
 10
51.999994
 20
22.686329
 30
0
 10
49.313703
 20
20.00004
 30
0
 10
45.999998
 20
20.00004
 30
0
  0
SPLINE
  5
FD
100
AcDbEntity
  8
0
  6
ByLayer
 62
    7
370
   -1
100
AcDbSpline
210
0
220
0
230
0
 70
    8
 71
    3
 72
    8
 73
    4
 74
    0
 42
1e-007
 43
1e-007
 40
0
 40
0
 40
0
 40
0
 40
1
 40
1
 40
1
 40
1
 10
45.999998
 20
20.00004
 30
0
 10
42.686292
 20
20.00004
 30
0
 10
40.000002
 20
22.686329
 30
0
 10
40
 20
26.000035
 30
0
  0
SPLINE
  5
FE
100
AcDbEntity
  8
0
  6
ByLayer
 62
    7
370
   -1
100
AcDbSpline
210
0
220
0
230
0
 70
    8
 71
    3
 72
    8
 73
    4
 74
    0
 42
1e-007
 43
1e-007
 40
0
 40
0
 40
0
 40
0
 40
1
 40
1
 40
1
 40
1
 10
40
 20
26.000035
 30
0
 10
39.999999
 20
27.591335
 30
0
 10
40.632139
 20
29.117459
 30
0
 10
41.757357
 20
30.242678
 30
0
  0
SPLINE
  5
FF
100
AcDbEntity
  8
0
  6
ByLayer
 62
    7
370
   -1
100
AcDbSpline
210
0
220
0
230
0
 70
    8
 71
    3
 72
    8
 73
    4
 74
    0
 42
1e-007
 43
1e-007
 40
0
 40
0
 40
0
 40
0
 40
1
 40
1
 40
1
 40
1
 10
41.757357
 20
30.242678
 30
0
 10
42.882575
 20
31.367897
 30
0
 10
44.408699
 20
32.000039
 30
0
 10
45.999998
 20
32.000039
 30
0
  0
SPLINE
  5
100
100
AcDbEntity
  8
0
  6
ByLayer
 62
    7
370
   -1
100
AcDbSpline
210
0
220
0
230
0
 70
    8
 71
    3
 72
    8
 73
    4
 74
    0
 42
1e-007
 43
1e-007
 40
0
 40
0
 40
0
 40
0
 40
1
 40
1
 40
1
 40
1
 10
113.999996
 20
32.000039
 30
0
 10
115.591295
 20
32.000039
 30
0
 10
117.117419
 20
31.367897
 30
0
 10
118.242637
 20
30.242678
 30
0
  0
SPLINE
  5
101
100
AcDbEntity
  8
0
  6
ByLayer
 62
    7
370
   -1
100
AcDbSpline
210
0
220
0
230
0
 70
    8
 71
    3
 72
    8
 73
    4
 74
    0
 42
1e-007
 43
1e-007
 40
0
 40
0
 40
0
 40
0
 40
1
 40
1
 40
1
 40
1
 10
118.242637
 20
30.242678
 30
0
 10
119.367855
 20
29.117459
 30
0
 10
119.999995
 20
27.591335
 30
0
 10
119.999994
 20
26.000035
 30
0
  0
SPLINE
  5
102
100
AcDbEntity
  8
0
  6
ByLayer
 62
    7
370
   -1
100
AcDbSpline
210
0
220
0
230
0
 70
    8
 71
    3
 72
    8
 73
    4
 74
    0
 42
1e-007
 43
1e-007
 40
0
 40
0
 40
0
 40
0
 40
1
 40
1
 40
1
 40
1
 10
119.999994
 20
26.000035
 30
0
 10
119.999992
 20
22.686329
 30
0
 10
117.313702
 20
20.00004
 30
0
 10
113.999996
 20
20.00004
 30
0
  0
SPLINE
  5
103
100
AcDbEntity
  8
0
  6
ByLayer
 62
    7
370
   -1
100
AcDbSpline
210
0
220
0
230
0
 70
    8
 71
    3
 72
    8
 73
    4
 74
    0
 42
1e-007
 43
1e-007
 40
0
 40
0
 40
0
 40
0
 40
1
 40
1
 40
1
 40
1
 10
113.999996
 20
20.00004
 30
0
 10
110.68629
 20
20.00004
 30
0
 10
108.000001
 20
22.686329
 30
0
 10
107.999998
 20
26.000035
 30
0
  0
SPLINE
  5
104
100
AcDbEntity
  8
0
  6
ByLayer
 62
    7
370
   -1
100
AcDbSpline
210
0
220
0
230
0
 70
    8
 71
    3
 72
    8
 73
    4
 74
    0
 42
1e-007
 43
1e-007
 40
0
 40
0
 40
0
 40
0
 40
1
 40
1
 40
1
 40
1
 10
107.999998
 20
26.000035
 30
0
 10
107.999997
 20
27.591335
 30
0
 10
108.632138
 20
29.117459
 30
0
 10
109.757356
 20
30.242678
 30
0
  0
SPLINE
  5
105
100
AcDbEntity
  8
0
  6
ByLayer
 62
    7
370
   -1
100
AcDbSpline
210
0
220
0
230
0
 70
    8
 71
    3
 72
    8
 73
    4
 74
    0
 42
1e-007
 43
1e-007
 40
0
 40
0
 40
0
 40
0
 40
1
 40
1
 40
1
 40
1
 10
109.757356
 20
30.242678
 30
0
 10
110.882573
 20
31.367897
 30
0
 10
112.408697
 20
32.000039
 30
0
 10
113.999996
 20
32.000039
 30
0
  0
SPLINE
  5
106
100
AcDbEntity
  8
0
  6
ByLayer
 62
    7
370
   -1
100
AcDbSpline
210
0
220
0
230
0
 70
    8
 71
    3
 72
    8
 73
    4
 74
    0
 42
1e-007
 43
1e-007
 40
0
 40
0
 40
0
 40
0
 40
1
 40
1
 40
1
 40
1
 10
79.999996
 20
148.086829
 30
0
 10
81.591295
 20
148.086829
 30
0
 10
83.117419
 20
148.714402
 30
0
 10
84.242637
 20
149.831489
 30
0
  0
SPLINE
  5
107
100
AcDbEntity
  8
0
  6
ByLayer
 62
    7
370
   -1
100
AcDbSpline
210
0
220
0
230
0
 70
    8
 71
    3
 72
    8
 73
    4
 74
    0
 42
1e-007
 43
1e-007
 40
0
 40
0
 40
0
 40
0
 40
1
 40
1
 40
1
 40
1
 10
84.242637
 20
149.831489
 30
0
 10
85.36785500000001
 20
150.948577
 30
0
 10
85.999995
 20
152.463672
 30
0
 10
85.999994
 20
154.043472
 30
0
  0
SPLINE
  5
108
100
AcDbEntity
  8
0
  6
ByLayer
 62
    7
370
   -1
100
AcDbSpline
210
0
220
0
230
0
 70
    8
 71
    3
 72
    8
 73
    4
 74
    0
 42
1e-007
 43
1e-007
 40
0
 40
0
 40
0
 40
0
 40
1
 40
1
 40
1
 40
1
 10
85.999994
 20
154.043472
 30
0
 10
85.99999200000001
 20
157.333231
 30
0
 10
83.31370200000001
 20
160.000107
 30
0
 10
79.999996
 20
160.000107
 30
0
  0
SPLINE
  5
109
100
AcDbEntity
  8
0
  6
ByLayer
 62
    7
370
   -1
100
AcDbSpline
210
0
220
0
230
0
 70
    8
 71
    3
 72
    8
 73
    4
 74
    0
 42
1e-007
 43
1e-007
 40
0
 40
0
 40
0
 40
0
 40
1
 40
1
 40
1
 40
1
 10
79.999996
 20
160.000107
 30
0
 10
76.68629
 20
160.000107
 30
0
 10
74.000001
 20
157.333231
 30
0
 10
73.99999800000001
 20
154.043472
 30
0
  0
SPLINE
  5
10A
100
AcDbEntity
  8
0
  6
ByLayer
 62
    7
370
   -1
100
AcDbSpline
210
0
220
0
230
0
 70
    8
 71
    3
 72
    8
 73
    4
 74
    0
 42
1e-007
 43
1e-007
 40
0
 40
0
 40
0
 40
0
 40
1
 40
1
 40
1
 40
1
 10
73.99999800000001
 20
154.043472
 30
0
 10
73.99999699999999
 20
152.463672
 30
0
 10
74.632138
 20
150.948577
 30
0
 10
75.757356
 20
149.83149
 30
0
  0
SPLINE
  5
10B
100
AcDbEntity
  8
0
  6
ByLayer
 62
    7
370
   -1
100
AcDbSpline
210
0
220
0
230
0
 70
    8
 71
    3
 72
    8
 73
    4
 74
    0
 42
1e-007
 43
1e-007
 40
0
 40
0
 40
0
 40
0
 40
1
 40
1
 40
1
 40
1
 10
75.757356
 20
149.83149
 30
0
 10
76.88257299999999
 20
148.714402
 30
0
 10
78.408697
 20
148.086829
 30
0
 10
79.999996
 20
148.086829
 30
0
  0
SPLINE
  5
10C
100
AcDbEntity
  8
0
  6
ByLayer
 62
    7
370
   -1
100
AcDbSpline
210
0
220
0
230
0
 70
    8
 71
    3
 72
    8
 73
    4
 74
    0
 42
1e-007
 43
1e-007
 40
0
 40
0
 40
0
 40
0
 40
1
 40
1
 40
1
 40
1
 10
45.999998
 20
128.000073
 30
0
 10
47.591297
 20
128.000073
 30
0
 10
49.11742
 20
128.632215
 30
0
 10
50.242638
 20
129.757434
 30
0
  0
SPLINE
  5
10D
100
AcDbEntity
  8
0
  6
ByLayer
 62
    7
370
   -1
100
AcDbSpline
210
0
220
0
230
0
 70
    8
 71
    3
 72
    8
 73
    4
 74
    0
 42
1e-007
 43
1e-007
 40
0
 40
0
 40
0
 40
0
 40
1
 40
1
 40
1
 40
1
 10
50.242638
 20
129.757434
 30
0
 10
51.367856
 20
130.882653
 30
0
 10
51.999997
 20
132.408777
 30
0
 10
51.999996
 20
134.000077
 30
0
  0
SPLINE
  5
10E
100
AcDbEntity
  8
0
  6
ByLayer
 62
    7
370
   -1
100
AcDbSpline
210
0
220
0
230
0
 70
    8
 71
    3
 72
    8
 73
    4
 74
    0
 42
1e-007
 43
1e-007
 40
0
 40
0
 40
0
 40
0
 40
1
 40
1
 40
1
 40
1
 10
51.999996
 20
134.000077
 30
0
 10
51.999994
 20
137.313783
 30
0
 10
49.313703
 20
140.000072
 30
0
 10
45.999998
 20
140.000072
 30
0
  0
SPLINE
  5
10F
100
AcDbEntity
  8
0
  6
ByLayer
 62
    7
370
   -1
100
AcDbSpline
210
0
220
0
230
0
 70
    8
 71
    3
 72
    8
 73
    4
 74
    0
 42
1e-007
 43
1e-007
 40
0
 40
0
 40
0
 40
0
 40
1
 40
1
 40
1
 40
1
 10
45.999998
 20
140.000072
 30
0
 10
42.686292
 20
140.000072
 30
0
 10
40.000002
 20
137.313783
 30
0
 10
40
 20
134.000077
 30
0
  0
SPLINE
  5
110
100
AcDbEntity
  8
0
  6
ByLayer
 62
    7
370
   -1
100
AcDbSpline
210
0
220
0
230
0
 70
    8
 71
    3
 72
    8
 73
    4
 74
    0
 42
1e-007
 43
1e-007
 40
0
 40
0
 40
0
 40
0
 40
1
 40
1
 40
1
 40
1
 10
40
 20
134.000077
 30
0
 10
39.999999
 20
132.408777
 30
0
 10
40.632139
 20
130.882653
 30
0
 10
41.757357
 20
129.757434
 30
0
  0
SPLINE
  5
111
100
AcDbEntity
  8
0
  6
ByLayer
 62
    7
370
   -1
100
AcDbSpline
210
0
220
0
230
0
 70
    8
 71
    3
 72
    8
 73
    4
 74
    0
 42
1e-007
 43
1e-007
 40
0
 40
0
 40
0
 40
0
 40
1
 40
1
 40
1
 40
1
 10
41.757357
 20
129.757434
 30
0
 10
42.882575
 20
128.632215
 30
0
 10
44.408699
 20
128.000073
 30
0
 10
45.999998
 20
128.000073
 30
0
  0
SPLINE
  5
112
100
AcDbEntity
  8
0
  6
ByLayer
 62
    7
370
   -1
100
AcDbSpline
210
0
220
0
230
0
 70
    8
 71
    3
 72
    8
 73
    4
 74
    0
 42
1e-007
 43
1e-007
 40
0
 40
0
 40
0
 40
0
 40
1
 40
1
 40
1
 40
1
 10
113.999996
 20
128.000073
 30
0
 10
115.591295
 20
128.000073
 30
0
 10
117.117419
 20
128.632215
 30
0
 10
118.242637
 20
129.757434
 30
0
  0
SPLINE
  5
113
100
AcDbEntity
  8
0
  6
ByLayer
 62
    7
370
   -1
100
AcDbSpline
210
0
220
0
230
0
 70
    8
 71
    3
 72
    8
 73
    4
 74
    0
 42
1e-007
 43
1e-007
 40
0
 40
0
 40
0
 40
0
 40
1
 40
1
 40
1
 40
1
 10
118.242637
 20
129.757434
 30
0
 10
119.367855
 20
130.882653
 30
0
 10
119.999995
 20
132.408777
 30
0
 10
119.999994
 20
134.000077
 30
0
  0
SPLINE
  5
114
100
AcDbEntity
  8
0
  6
ByLayer
 62
    7
370
   -1
100
AcDbSpline
210
0
220
0
230
0
 70
    8
 71
    3
 72
    8
 73
    4
 74
    0
 42
1e-007
 43
1e-007
 40
0
 40
0
 40
0
 40
0
 40
1
 40
1
 40
1
 40
1
 10
119.999994
 20
134.000077
 30
0
 10
119.999992
 20
137.313783
 30
0
 10
117.313702
 20
140.000072
 30
0
 10
113.999996
 20
140.000072
 30
0
  0
SPLINE
  5
115
100
AcDbEntity
  8
0
  6
ByLayer
 62
    7
370
   -1
100
AcDbSpline
210
0
220
0
230
0
 70
    8
 71
    3
 72
    8
 73
    4
 74
    0
 42
1e-007
 43
1e-007
 40
0
 40
0
 40
0
 40
0
 40
1
 40
1
 40
1
 40
1
 10
113.999996
 20
140.000072
 30
0
 10
110.68629
 20
140.000072
 30
0
 10
108.000001
 20
137.313783
 30
0
 10
107.999998
 20
134.000077
 30
0
  0
SPLINE
  5
116
100
AcDbEntity
  8
0
  6
ByLayer
 62
    7
370
   -1
100
AcDbSpline
210
0
220
0
230
0
 70
    8
 71
    3
 72
    8
 73
    4
 74
    0
 42
1e-007
 43
1e-007
 40
0
 40
0
 40
0
 40
0
 40
1
 40
1
 40
1
 40
1
 10
107.999998
 20
134.000077
 30
0
 10
107.999997
 20
132.408777
 30
0
 10
108.632138
 20
130.882653
 30
0
 10
109.757356
 20
129.757434
 30
0
  0
SPLINE
  5
117
100
AcDbEntity
  8
0
  6
ByLayer
 62
    7
370
   -1
100
AcDbSpline
210
0
220
0
230
0
 70
    8
 71
    3
 72
    8
 73
    4
 74
    0
 42
1e-007
 43
1e-007
 40
0
 40
0
 40
0
 40
0
 40
1
 40
1
 40
1
 40
1
 10
109.757356
 20
129.757434
 30
0
 10
110.882573
 20
128.632215
 30
0
 10
112.408697
 20
128.000073
 30
0
 10
113.999996
 20
128.000073
 30
0
  0
SPLINE
  5
118
100
AcDbEntity
  8
0
  6
ByLayer
 62
    7
370
   -1
100
AcDbSpline
210
0
220
0
230
0
 70
    8
 71
    3
 72
    8
 73
    4
 74
    0
 42
1e-007
 43
1e-007
 40
0
 40
0
 40
0
 40
0
 40
1
 40
1
 40
1
 40
1
 10
148.086813
 20
79.999988
 30
0
 10
148.086813
 20
81.59128699999999
 30
0
 10
148.714386
 20
83.117411
 30
0
 10
149.831473
 20
84.24262899999999
 30
0
  0
SPLINE
  5
119
100
AcDbEntity
  8
0
  6
ByLayer
 62
    7
370
   -1
100
AcDbSpline
210
0
220
0
230
0
 70
    8
 71
    3
 72
    8
 73
    4
 74
    0
 42
1e-007
 43
1e-007
 40
0
 40
0
 40
0
 40
0
 40
1
 40
1
 40
1
 40
1
 10
149.831473
 20
84.24262899999999
 30
0
 10
150.948561
 20
85.367847
 30
0
 10
152.463656
 20
85.999987
 30
0
 10
154.043456
 20
85.99998600000001
 30
0
  0
SPLINE
  5
11A
100
AcDbEntity
  8
0
  6
ByLayer
 62
    7
370
   -1
100
AcDbSpline
210
0
220
0
230
0
 70
    8
 71
    3
 72
    8
 73
    4
 74
    0
 42
1e-007
 43
1e-007
 40
0
 40
0
 40
0
 40
0
 40
1
 40
1
 40
1
 40
1
 10
154.043456
 20
85.99998600000001
 30
0
 10
157.333215
 20
85.999984
 30
0
 10
160.000091
 20
83.313694
 30
0
 10
160.000091
 20
79.999988
 30
0
  0
SPLINE
  5
11B
100
AcDbEntity
  8
0
  6
ByLayer
 62
    7
370
   -1
100
AcDbSpline
210
0
220
0
230
0
 70
    8
 71
    3
 72
    8
 73
    4
 74
    0
 42
1e-007
 43
1e-007
 40
0
 40
0
 40
0
 40
0
 40
1
 40
1
 40
1
 40
1
 10
160.000091
 20
79.999988
 30
0
 10
160.000091
 20
76.68628200000001
 30
0
 10
157.333215
 20
73.999993
 30
0
 10
154.043456
 20
73.99999
 30
0
  0
SPLINE
  5
11C
100
AcDbEntity
  8
0
  6
ByLayer
 62
    7
370
   -1
100
AcDbSpline
210
0
220
0
230
0
 70
    8
 71
    3
 72
    8
 73
    4
 74
    0
 42
1e-007
 43
1e-007
 40
0
 40
0
 40
0
 40
0
 40
1
 40
1
 40
1
 40
1
 10
154.043456
 20
73.99999
 30
0
 10
152.463656
 20
73.999989
 30
0
 10
150.948561
 20
74.63213
 30
0
 10
149.831474
 20
75.75734799999999
 30
0
  0
SPLINE
  5
11D
100
AcDbEntity
  8
0
  6
ByLayer
 62
    7
370
   -1
100
AcDbSpline
210
0
220
0
230
0
 70
    8
 71
    3
 72
    8
 73
    4
 74
    0
 42
1e-007
 43
1e-007
 40
0
 40
0
 40
0
 40
0
 40
1
 40
1
 40
1
 40
1
 10
149.831474
 20
75.75734799999999
 30
0
 10
148.714386
 20
76.882565
 30
0
 10
148.086813
 20
78.408689
 30
0
 10
148.086813
 20
79.999988
 30
0
  0
SPLINE
  5
11E
100
AcDbEntity
  8
0
  6
ByLayer
 62
    7
370
   -1
100
AcDbSpline
210
0
220
0
230
0
 70
    8
 71
    3
 72
    8
 73
    4
 74
    0
 42
1e-007
 43
1e-007
 40
0
 40
0
 40
0
 40
0
 40
1
 40
1
 40
1
 40
1
 10
128.000057
 20
45.999988
 30
0
 10
128.000057
 20
47.591287
 30
0
 10
128.632199
 20
49.117411
 30
0
 10
129.757418
 20
50.242629
 30
0
  0
SPLINE
  5
11F
100
AcDbEntity
  8
0
  6
ByLayer
 62
    7
370
   -1
100
AcDbSpline
210
0
220
0
230
0
 70
    8
 71
    3
 72
    8
 73
    4
 74
    0
 42
1e-007
 43
1e-007
 40
0
 40
0
 40
0
 40
0
 40
1
 40
1
 40
1
 40
1
 10
129.757418
 20
50.242629
 30
0
 10
130.882637
 20
51.367847
 30
0
 10
132.408761
 20
51.999987
 30
0
 10
134.000061
 20
51.999986
 30
0
  0
SPLINE
  5
120
100
AcDbEntity
  8
0
  6
ByLayer
 62
    7
370
   -1
100
AcDbSpline
210
0
220
0
230
0
 70
    8
 71
    3
 72
    8
 73
    4
 74
    0
 42
1e-007
 43
1e-007
 40
0
 40
0
 40
0
 40
0
 40
1
 40
1
 40
1
 40
1
 10
134.000061
 20
51.999986
 30
0
 10
137.313767
 20
51.999984
 30
0
 10
140.000056
 20
49.313694
 30
0
 10
140.000056
 20
45.999988
 30
0
  0
SPLINE
  5
121
100
AcDbEntity
  8
0
  6
ByLayer
 62
    7
370
   -1
100
AcDbSpline
210
0
220
0
230
0
 70
    8
 71
    3
 72
    8
 73
    4
 74
    0
 42
1e-007
 43
1e-007
 40
0
 40
0
 40
0
 40
0
 40
1
 40
1
 40
1
 40
1
 10
140.000056
 20
45.999988
 30
0
 10
140.000056
 20
42.686282
 30
0
 10
137.313767
 20
39.999993
 30
0
 10
134.000061
 20
39.99999
 30
0
  0
SPLINE
  5
122
100
AcDbEntity
  8
0
  6
ByLayer
 62
    7
370
   -1
100
AcDbSpline
210
0
220
0
230
0
 70
    8
 71
    3
 72
    8
 73
    4
 74
    0
 42
1e-007
 43
1e-007
 40
0
 40
0
 40
0
 40
0
 40
1
 40
1
 40
1
 40
1
 10
134.000061
 20
39.99999
 30
0
 10
132.408761
 20
39.999989
 30
0
 10
130.882637
 20
40.63213
 30
0
 10
129.757418
 20
41.757348
 30
0
  0
SPLINE
  5
123
100
AcDbEntity
  8
0
  6
ByLayer
 62
    7
370
   -1
100
AcDbSpline
210
0
220
0
230
0
 70
    8
 71
    3
 72
    8
 73
    4
 74
    0
 42
1e-007
 43
1e-007
 40
0
 40
0
 40
0
 40
0
 40
1
 40
1
 40
1
 40
1
 10
129.757418
 20
41.757348
 30
0
 10
128.632199
 20
42.882565
 30
0
 10
128.000057
 20
44.408689
 30
0
 10
128.000057
 20
45.999988
 30
0
  0
SPLINE
  5
124
100
AcDbEntity
  8
0
  6
ByLayer
 62
    7
370
   -1
100
AcDbSpline
210
0
220
0
230
0
 70
    8
 71
    3
 72
    8
 73
    4
 74
    0
 42
1e-007
 43
1e-007
 40
0
 40
0
 40
0
 40
0
 40
1
 40
1
 40
1
 40
1
 10
128.000057
 20
113.999988
 30
0
 10
128.000057
 20
115.591287
 30
0
 10
128.632199
 20
117.117411
 30
0
 10
129.757418
 20
118.242629
 30
0
  0
SPLINE
  5
125
100
AcDbEntity
  8
0
  6
ByLayer
 62
    7
370
   -1
100
AcDbSpline
210
0
220
0
230
0
 70
    8
 71
    3
 72
    8
 73
    4
 74
    0
 42
1e-007
 43
1e-007
 40
0
 40
0
 40
0
 40
0
 40
1
 40
1
 40
1
 40
1
 10
129.757418
 20
118.242629
 30
0
 10
130.882637
 20
119.367847
 30
0
 10
132.408761
 20
119.999987
 30
0
 10
134.000061
 20
119.999986
 30
0
  0
SPLINE
  5
126
100
AcDbEntity
  8
0
  6
ByLayer
 62
    7
370
   -1
100
AcDbSpline
210
0
220
0
230
0
 70
    8
 71
    3
 72
    8
 73
    4
 74
    0
 42
1e-007
 43
1e-007
 40
0
 40
0
 40
0
 40
0
 40
1
 40
1
 40
1
 40
1
 10
134.000061
 20
119.999986
 30
0
 10
137.313767
 20
119.999984
 30
0
 10
140.000056
 20
117.313694
 30
0
 10
140.000056
 20
113.999988
 30
0
  0
SPLINE
  5
127
100
AcDbEntity
  8
0
  6
ByLayer
 62
    7
370
   -1
100
AcDbSpline
210
0
220
0
230
0
 70
    8
 71
    3
 72
    8
 73
    4
 74
    0
 42
1e-007
 43
1e-007
 40
0
 40
0
 40
0
 40
0
 40
1
 40
1
 40
1
 40
1
 10
140.000056
 20
113.999988
 30
0
 10
140.000056
 20
110.686282
 30
0
 10
137.313767
 20
107.999993
 30
0
 10
134.000061
 20
107.99999
 30
0
  0
SPLINE
  5
128
100
AcDbEntity
  8
0
  6
ByLayer
 62
    7
370
   -1
100
AcDbSpline
210
0
220
0
230
0
 70
    8
 71
    3
 72
    8
 73
    4
 74
    0
 42
1e-007
 43
1e-007
 40
0
 40
0
 40
0
 40
0
 40
1
 40
1
 40
1
 40
1
 10
134.000061
 20
107.99999
 30
0
 10
132.408761
 20
107.999989
 30
0
 10
130.882637
 20
108.63213
 30
0
 10
129.757418
 20
109.757348
 30
0
  0
SPLINE
  5
129
100
AcDbEntity
  8
0
  6
ByLayer
 62
    7
370
   -1
100
AcDbSpline
210
0
220
0
230
0
 70
    8
 71
    3
 72
    8
 73
    4
 74
    0
 42
1e-007
 43
1e-007
 40
0
 40
0
 40
0
 40
0
 40
1
 40
1
 40
1
 40
1
 10
129.757418
 20
109.757348
 30
0
 10
128.632199
 20
110.882565
 30
0
 10
128.000057
 20
112.408689
 30
0
 10
128.000057
 20
113.999988
 30
0
  0
SPLINE
  5
12A
100
AcDbEntity
  8
0
  6
ByLayer
 62
    7
370
   -1
100
AcDbSpline
210
0
220
0
230
0
 70
    8
 71
    3
 72
    8
 73
    4
 74
    0
 42
1e-007
 43
1e-007
 40
0
 40
0
 40
0
 40
0
 40
1
 40
1
 40
1
 40
1
 10
11.913267
 20
79.999988
 30
0
 10
11.913267
 20
81.59128699999999
 30
0
 10
11.285694
 20
83.117411
 30
0
 10
10.168607
 20
84.24262899999999
 30
0
  0
SPLINE
  5
12B
100
AcDbEntity
  8
0
  6
ByLayer
 62
    7
370
   -1
100
AcDbSpline
210
0
220
0
230
0
 70
    8
 71
    3
 72
    8
 73
    4
 74
    0
 42
1e-007
 43
1e-007
 40
0
 40
0
 40
0
 40
0
 40
1
 40
1
 40
1
 40
1
 10
10.168607
 20
84.24262899999999
 30
0
 10
9.051519000000001
 20
85.367847
 30
0
 10
7.536424
 20
85.999987
 30
0
 10
5.956624
 20
85.99998600000001
 30
0
  0
SPLINE
  5
12C
100
AcDbEntity
  8
0
  6
ByLayer
 62
    7
370
   -1
100
AcDbSpline
210
0
220
0
230
0
 70
    8
 71
    3
 72
    8
 73
    4
 74
    0
 42
1e-007
 43
1e-007
 40
0
 40
0
 40
0
 40
0
 40
1
 40
1
 40
1
 40
1
 10
5.956624
 20
85.99998600000001
 30
0
 10
2.666865
 20
85.999984
 30
0
 10
-1.1e-005
 20
83.313694
 30
0
 10
-1.1e-005
 20
79.999988
 30
0
  0
SPLINE
  5
12D
100
AcDbEntity
  8
0
  6
ByLayer
 62
    7
370
   -1
100
AcDbSpline
210
0
220
0
230
0
 70
    8
 71
    3
 72
    8
 73
    4
 74
    0
 42
1e-007
 43
1e-007
 40
0
 40
0
 40
0
 40
0
 40
1
 40
1
 40
1
 40
1
 10
-1.1e-005
 20
79.999988
 30
0
 10
-1.1e-005
 20
76.68628200000001
 30
0
 10
2.666865
 20
73.999993
 30
0
 10
5.956624
 20
73.99999
 30
0
  0
SPLINE
  5
12E
100
AcDbEntity
  8
0
  6
ByLayer
 62
    7
370
   -1
100
AcDbSpline
210
0
220
0
230
0
 70
    8
 71
    3
 72
    8
 73
    4
 74
    0
 42
1e-007
 43
1e-007
 40
0
 40
0
 40
0
 40
0
 40
1
 40
1
 40
1
 40
1
 10
5.956624
 20
73.99999
 30
0
 10
7.536424
 20
73.999989
 30
0
 10
9.051519000000001
 20
74.63213
 30
0
 10
10.168606
 20
75.75734799999999
 30
0
  0
SPLINE
  5
12F
100
AcDbEntity
  8
0
  6
ByLayer
 62
    7
370
   -1
100
AcDbSpline
210
0
220
0
230
0
 70
    8
 71
    3
 72
    8
 73
    4
 74
    0
 42
1e-007
 43
1e-007
 40
0
 40
0
 40
0
 40
0
 40
1
 40
1
 40
1
 40
1
 10
10.168606
 20
75.75734799999999
 30
0
 10
11.285694
 20
76.882565
 30
0
 10
11.913267
 20
78.408689
 30
0
 10
11.913267
 20
79.999988
 30
0
  0
SPLINE
  5
130
100
AcDbEntity
  8
0
  6
ByLayer
 62
    7
370
   -1
100
AcDbSpline
210
0
220
0
230
0
 70
    8
 71
    3
 72
    8
 73
    4
 74
    0
 42
1e-007
 43
1e-007
 40
0
 40
0
 40
0
 40
0
 40
1
 40
1
 40
1
 40
1
 10
32.000023
 20
45.999988
 30
0
 10
32.000023
 20
47.591287
 30
0
 10
31.367881
 20
49.117411
 30
0
 10
30.242662
 20
50.242629
 30
0
  0
SPLINE
  5
131
100
AcDbEntity
  8
0
  6
ByLayer
 62
    7
370
   -1
100
AcDbSpline
210
0
220
0
230
0
 70
    8
 71
    3
 72
    8
 73
    4
 74
    0
 42
1e-007
 43
1e-007
 40
0
 40
0
 40
0
 40
0
 40
1
 40
1
 40
1
 40
1
 10
30.242662
 20
50.242629
 30
0
 10
29.117443
 20
51.367847
 30
0
 10
27.591319
 20
51.999987
 30
0
 10
26.000019
 20
51.999986
 30
0
  0
SPLINE
  5
132
100
AcDbEntity
  8
0
  6
ByLayer
 62
    7
370
   -1
100
AcDbSpline
210
0
220
0
230
0
 70
    8
 71
    3
 72
    8
 73
    4
 74
    0
 42
1e-007
 43
1e-007
 40
0
 40
0
 40
0
 40
0
 40
1
 40
1
 40
1
 40
1
 10
26.000019
 20
51.999986
 30
0
 10
22.686313
 20
51.999984
 30
0
 10
20.000024
 20
49.313694
 30
0
 10
20.000024
 20
45.999988
 30
0
  0
SPLINE
  5
133
100
AcDbEntity
  8
0
  6
ByLayer
 62
    7
370
   -1
100
AcDbSpline
210
0
220
0
230
0
 70
    8
 71
    3
 72
    8
 73
    4
 74
    0
 42
1e-007
 43
1e-007
 40
0
 40
0
 40
0
 40
0
 40
1
 40
1
 40
1
 40
1
 10
20.000024
 20
45.999988
 30
0
 10
20.000024
 20
42.686282
 30
0
 10
22.686313
 20
39.999993
 30
0
 10
26.000019
 20
39.99999
 30
0
  0
SPLINE
  5
134
100
AcDbEntity
  8
0
  6
ByLayer
 62
    7
370
   -1
100
AcDbSpline
210
0
220
0
230
0
 70
    8
 71
    3
 72
    8
 73
    4
 74
    0
 42
1e-007
 43
1e-007
 40
0
 40
0
 40
0
 40
0
 40
1
 40
1
 40
1
 40
1
 10
26.000019
 20
39.99999
 30
0
 10
27.591319
 20
39.999989
 30
0
 10
29.117443
 20
40.63213
 30
0
 10
30.242662
 20
41.757348
 30
0
  0
SPLINE
  5
135
100
AcDbEntity
  8
0
  6
ByLayer
 62
    7
370
   -1
100
AcDbSpline
210
0
220
0
230
0
 70
    8
 71
    3
 72
    8
 73
    4
 74
    0
 42
1e-007
 43
1e-007
 40
0
 40
0
 40
0
 40
0
 40
1
 40
1
 40
1
 40
1
 10
30.242662
 20
41.757348
 30
0
 10
31.367881
 20
42.882565
 30
0
 10
32.000023
 20
44.408689
 30
0
 10
32.000023
 20
45.999988
 30
0
  0
SPLINE
  5
136
100
AcDbEntity
  8
0
  6
ByLayer
 62
    7
370
   -1
100
AcDbSpline
210
0
220
0
230
0
 70
    8
 71
    3
 72
    8
 73
    4
 74
    0
 42
1e-007
 43
1e-007
 40
0
 40
0
 40
0
 40
0
 40
1
 40
1
 40
1
 40
1
 10
32.000023
 20
113.999988
 30
0
 10
32.000023
 20
115.591287
 30
0
 10
31.367881
 20
117.117411
 30
0
 10
30.242662
 20
118.242629
 30
0
  0
SPLINE
  5
137
100
AcDbEntity
  8
0
  6
ByLayer
 62
    7
370
   -1
100
AcDbSpline
210
0
220
0
230
0
 70
    8
 71
    3
 72
    8
 73
    4
 74
    0
 42
1e-007
 43
1e-007
 40
0
 40
0
 40
0
 40
0
 40
1
 40
1
 40
1
 40
1
 10
30.242662
 20
118.242629
 30
0
 10
29.117443
 20
119.367847
 30
0
 10
27.591319
 20
119.999987
 30
0
 10
26.000019
 20
119.999986
 30
0
  0
SPLINE
  5
138
100
AcDbEntity
  8
0
  6
ByLayer
 62
    7
370
   -1
100
AcDbSpline
210
0
220
0
230
0
 70
    8
 71
    3
 72
    8
 73
    4
 74
    0
 42
1e-007
 43
1e-007
 40
0
 40
0
 40
0
 40
0
 40
1
 40
1
 40
1
 40
1
 10
26.000019
 20
119.999986
 30
0
 10
22.686313
 20
119.999984
 30
0
 10
20.000024
 20
117.313694
 30
0
 10
20.000024
 20
113.999988
 30
0
  0
SPLINE
  5
139
100
AcDbEntity
  8
0
  6
ByLayer
 62
    7
370
   -1
100
AcDbSpline
210
0
220
0
230
0
 70
    8
 71
    3
 72
    8
 73
    4
 74
    0
 42
1e-007
 43
1e-007
 40
0
 40
0
 40
0
 40
0
 40
1
 40
1
 40
1
 40
1
 10
20.000024
 20
113.999988
 30
0
 10
20.000024
 20
110.686282
 30
0
 10
22.686313
 20
107.999993
 30
0
 10
26.000019
 20
107.99999
 30
0
  0
SPLINE
  5
13A
100
AcDbEntity
  8
0
  6
ByLayer
 62
    7
370
   -1
100
AcDbSpline
210
0
220
0
230
0
 70
    8
 71
    3
 72
    8
 73
    4
 74
    0
 42
1e-007
 43
1e-007
 40
0
 40
0
 40
0
 40
0
 40
1
 40
1
 40
1
 40
1
 10
26.000019
 20
107.99999
 30
0
 10
27.591319
 20
107.999989
 30
0
 10
29.117443
 20
108.63213
 30
0
 10
30.242662
 20
109.757348
 30
0
  0
SPLINE
  5
13B
100
AcDbEntity
  8
0
  6
ByLayer
 62
    7
370
   -1
100
AcDbSpline
210
0
220
0
230
0
 70
    8
 71
    3
 72
    8
 73
    4
 74
    0
 42
1e-007
 43
1e-007
 40
0
 40
0
 40
0
 40
0
 40
1
 40
1
 40
1
 40
1
 10
30.242662
 20
109.757348
 30
0
 10
31.367881
 20
110.882565
 30
0
 10
32.000023
 20
112.408689
 30
0
 10
32.000023
 20
113.999988
 30
0
  0
ENDBLK
  5
54
330
52
100
AcDbEntity
  8
0
100
AcDbBlockEnd
  0
BLOCK
  5
56
330
55
100
AcDbEntity
  8
0
100
AcDbBlockBegin
  2
boules
 70
    0
 10
0
 20
0
  3
boules
  1

  0
CIRCLE
  5
13C
100
AcDbEntity
  8
Layer_1
  6
ByLayer
 62
  256
370
   -1
100
AcDbCircle
 10
2.580691216280684e-011
 20
21.00000000001472
 40
2.25
  0
CIRCLE
  5
13D
100
AcDbEntity
  8
Layer_1
  6
ByLayer
 62
  256
370
   -1
100
AcDbCircle
 10
-10.49999999997419
 20
18.18653347948793
 40
2.25
  0
CIRCLE
  5
13E
100
AcDbEntity
  8
Layer_1
  6
ByLayer
 62
  256
370
   -1
100
AcDbCircle
 10
-18.18653347944735
 20
10.50000000001472
 40
2.25
  0
CIRCLE
  5
13F
100
AcDbEntity
  8
Layer_1
  6
ByLayer
 62
  256
370
   -1
100
AcDbCircle
 10
-20.99999999997419
 20
1.472244548494928e-011
 40
2.25
  0
CIRCLE
  5
140
100
AcDbEntity
  8
Layer_1
  6
ByLayer
 62
  256
370
   -1
100
AcDbCircle
 10
-18.18653347944735
 20
-10.49999999998528
 40
2.25
  0
CIRCLE
  5
141
100
AcDbEntity
  8
Layer_1
  6
ByLayer
 62
  256
370
   -1
100
AcDbCircle
 10
-10.49999999997419
 20
-18.18653347945849
 40
2.25
  0
CIRCLE
  5
142
100
AcDbEntity
  8
Layer_1
  6
ByLayer
 62
  256
370
   -1
100
AcDbCircle
 10
2.580691216280684e-011
 20
-20.99999999998528
 40
2.25
  0
CIRCLE
  5
143
100
AcDbEntity
  8
Layer_1
  6
ByLayer
 62
  256
370
   -1
100
AcDbCircle
 10
10.50000000002581
 20
-18.18653347945849
 40
2.25
  0
CIRCLE
  5
144
100
AcDbEntity
  8
Layer_1
  6
ByLayer
 62
  256
370
   -1
100
AcDbCircle
 10
18.18653347949896
 20
-10.49999999998528
 40
2.25
  0
CIRCLE
  5
145
100
AcDbEntity
  8
Layer_1
  6
ByLayer
 62
  256
370
   -1
100
AcDbCircle
 10
21.00000000002581
 20
1.472244548494928e-011
 40
2.25
  0
CIRCLE
  5
146
100
AcDbEntity
  8
Layer_1
  6
ByLayer
 62
  256
370
   -1
100
AcDbCircle
 10
18.18653347949908
 20
10.50000000001472
 40
2.25
  0
CIRCLE
  5
147
100
AcDbEntity
  8
Layer_1
  6
ByLayer
 62
  256
370
   -1
100
AcDbCircle
 10
10.50000000002581
 20
18.18653347948793
 40
2.25
  0
ENDBLK
  5
57
330
55
100
AcDbEntity
  8
0
100
AcDbBlockEnd
  0
ENDSEC
  0
SECTION
  2
ENTITIES
  0
ARC
  5
148
100
AcDbEntity
  8
Layer_1
  6
ByLayer
 62
  256
370
   -1
100
AcDbCircle
 10
900
 20
840.6411415726569
 40
1.250003778512239
100
AcDbArc
 50
31.74639330057114
 51
148.2528651366833
  0
LINE
  5
149
100
AcDbEntity
  8
Layer_1
  6
ByLayer
 62
  256
370
   -1
100
AcDbLine
 10
896.7908414554485
 20
837.8642483278844
 11
898.9370236145569
 21
841.2988578110798
  0
ARC
  5
14A
100
AcDbEntity
  8
Layer_1
  6
ByLayer
 62
  256
370
   -1
100
AcDbCircle
 10
900
 20
800
 40
37.99999999999755
100
AcDbArc
 50
94.84448699626742
 51
98.01265586086905
  0
LINE
  5
14B
100
AcDbEntity
  8
Layer_1
  6
ByLayer
 62
  256
370
   -1
100
AcDbLine
 10
894.7031102945768
 20
837.629017519036
 11
891.8464763085075
 21
840.4999321892871
  0
ARC
  5
14C
100
AcDbEntity
  8
Layer_1
  6
ByLayer
 62
  256
370
   -1
100
AcDbCircle
 10
890.9564952202015
 20
839.6221833021164
 40
1.250003778512239
100
AcDbArc
 50
44.60353615771399
 51
161.1100079938261
  0
LINE
  5
14D
100
AcDbEntity
  8
Layer_1
  6
ByLayer
 62
  256
370
   -1
100
AcDbLine
 10
888.4457138588252
 20
836.2008076120909
 11
889.7738142403908
 21
840.0268747231877
  0
ARC
  5
14E
100
AcDbEntity
  8
Layer_1
  6
ByLayer
 62
  256
370
   -1
100
AcDbCircle
 10
900
 20
800
 40
37.99999999999755
100
AcDbArc
 50
107.7016298534103
 51
110.8697987180119
  0
LINE
  5
14F
100
AcDbEntity
  8
Layer_1
  6
ByLayer
 62
  256
370
   -1
100
AcDbLine
 10
886.4626702562399
 20
835.5069106429727
 11
883.0388194346006
 21
837.6701846259411
  0
ARC
  5
150
100
AcDbEntity
  8
Layer_1
  6
ByLayer
 62
  256
370
   -1
100
AcDbCircle
 10
882.3664695324495
 20
836.6164033129786
 40
1.250003778512239
100
AcDbArc
 50
57.46067901485686
 51
173.967150850969
  0
LINE
  5
151
100
AcDbEntity
  8
Layer_1
  6
ByLayer
 62
  256
370
   -1
100
AcDbLine
 10
880.6799664158177
 20
832.722107241219
 11
881.1233885210446
 21
836.7477769990018
  0
ARC
  5
152
100
AcDbEntity
  8
Layer_1
  6
ByLayer
 62
  256
370
   -1
100
AcDbCircle
 10
899.9999999999999
 20
800
 40
37.99999999999755
100
AcDbArc
 50
120.5587727105531
 51
123.7269415751547
  0
LINE
  5
153
100
AcDbEntity
  8
Layer_1
  6
ByLayer
 62
  256
370
   -1
100
AcDbLine
 10
878.9010484582213
 20
831.6043390033238
 11
875.0816669779649
 21
832.9514967084583
  0
ARC
  5
154
100
AcDbEntity
  8
Layer_1
  6
ByLayer
 62
  256
370
   -1
100
AcDbCircle
 10
874.6606626935512
 20
831.7745239649433
 40
1.250003778512239
100
AcDbArc
 50
70.31782187199971
 51
186.8242937081119
  0
LINE
  5
155
100
AcDbEntity
  8
Layer_1
  6
ByLayer
 62
  256
370
   -1
100
AcDbLine
 10
873.8830061301556
 20
827.6025837776517
 11
873.4195149231182
 21
831.6259922907324
  0
ARC
  5
156
100
AcDbEntity
  8
Layer_1
  6
ByLayer
 62
  256
370
   -1
100
AcDbCircle
 10
899.9999999999999
 20
800
 40
37.99999999999755
100
AcDbArc
 50
133.415915567696
 51
136.5840844322976
  0
LINE
  5
157
100
AcDbEntity
  8
Layer_1
  6
ByLayer
 62
  256
370
   -1
100
AcDbLine
 10
872.3974161920567
 20
826.1169938378215
 11
868.3740237889514
 21
826.5804831525458
  0
ARC
  5
158
100
AcDbEntity
  8
Layer_1
  6
ByLayer
 62
  256
370
   -1
100
AcDbCircle
 10
868.2254760350564
 20
825.3393373064486
 40
1.250003778512239
100
AcDbArc
 50
83.17496472914257
 51
199.6814365652547
  0
LINE
  5
159
100
AcDbEntity
  8
Layer_1
  6
ByLayer
 62
  256
370
   -1
100
AcDbLine
 10
868.3956609721967
 20
821.0989515051208
 11
867.0484978373865
 21
824.9183482703626
  0
ARC
  5
15A
100
AcDbEntity
  8
Layer_1
  6
ByLayer
 62
  256
370
   -1
100
AcDbCircle
 10
899.9999999999998
 20
799.9999999999999
 40
37.99999999999755
100
AcDbArc
 50
146.2730584248388
 51
149.4412272894405
  0
LINE
  5
15B
100
AcDbEntity
  8
Layer_1
  6
ByLayer
 62
  256
370
   -1
100
AcDbLine
 10
867.2778927363746
 20
819.3200335462218
 11
863.2522391057357
 21
818.8766131809328
  0
ARC
  5
15C
100
AcDbEntity
  8
Layer_1
  6
ByLayer
 62
  256
370
   -1
100
AcDbCircle
 10
863.3835966870212
 20
817.6335304675503
 40
1.250003778512239
100
AcDbArc
 50
96.03210758628542
 51
212.5385794223976
  0
LINE
  5
15D
100
AcDbEntity
  8
Layer_1
  6
ByLayer
 62
  256
370
   -1
100
AcDbLine
 10
864.4930893413186
 20
813.5373297025741
 11
862.3298066635786
 21
816.9611942177559
  0
ARC
  5
15E
100
AcDbEntity
  8
Layer_1
  6
ByLayer
 62
  256
370
   -1
100
AcDbCircle
 10
899.9999999999998
 20
799.9999999999999
 40
37.99999999999755
100
AcDbArc
 50
159.1302012819817
 51
162.2983701465833
  0
LINE
  5
15F
100
AcDbEntity
  8
Layer_1
  6
ByLayer
 62
  256
370
   -1
100
AcDbLine
 10
863.7991923745113
 20
811.5542860991802
 11
859.9731405990448
 21
810.2261910025558
  0
ARC
  5
160
100
AcDbEntity
  8
Layer_1
  6
ByLayer
 62
  256
370
   -1
100
AcDbCircle
 10
860.3778166978834
 20
809.0435047797982
 40
1.250003778512239
100
AcDbArc
 50
108.8892504434283
 51
225.3957222795404
  0
LINE
  5
161
100
AcDbEntity
  8
Layer_1
  6
ByLayer
 62
  256
370
   -1
100
AcDbLine
 10
862.3709824748138
 20
805.2968896617743
 11
859.5000562806874
 21
808.1535350632917
  0
ARC
  5
162
100
AcDbEntity
  8
Layer_1
  6
ByLayer
 62
  256
370
   -1
100
AcDbCircle
 10
899.9999999999998
 20
799.9999999999998
 40
37.99999999999755
100
AcDbArc
 50
171.9873441391246
 51
175.1555130037262
  0
LINE
  5
163
100
AcDbEntity
  8
Layer_1
  6
ByLayer
 62
  256
370
   -1
100
AcDbLine
 10
862.1357516683984
 20
803.2091585006286
 11
858.7011559603269
 21
801.0629849064555
  0
ARC
  5
164
100
AcDbEntity
  8
Layer_1
  6
ByLayer
 62
  256
370
   -1
100
AcDbCircle
 10
859.3588584273429
 20
799.9999999999998
 40
1.250003778512239
100
AcDbArc
 50
121.7463933005711
 51
238.2528651366833
  0
LINE
  5
165
100
AcDbEntity
  8
Layer_1
  6
ByLayer
 62
  256
370
   -1
100
AcDbLine
 10
862.1357516721154
 20
796.7908414554482
 11
858.70114218892
 21
798.9370236145567
  0
ARC
  5
166
100
AcDbEntity
  8
Layer_1
  6
ByLayer
 62
  256
370
   -1
100
AcDbCircle
 10
899.9999999999998
 20
799.9999999999998
 40
37.99999999999755
100
AcDbArc
 50
184.8444869962674
 51
188.012655860869
  0
LINE
  5
167
100
AcDbEntity
  8
Layer_1
  6
ByLayer
 62
  256
370
   -1
100
AcDbLine
 10
862.3709824809638
 20
794.7031102945766
 11
859.5000678107127
 21
791.8464763085072
  0
ARC
  5
168
100
AcDbEntity
  8
Layer_1
  6
ByLayer
 62
  256
370
   -1
100
AcDbCircle
 10
860.3778166978834
 20
790.9564952202013
 40
1.250003778512239
100
AcDbArc
 50
134.603536157714
 51
251.1100079938261
  0
LINE
  5
169
100
AcDbEntity
  8
Layer_1
  6
ByLayer
 62
  256
370
   -1
100
AcDbLine
 10
863.7991923879089
 20
788.445713858825
 11
859.9731252768121
 21
789.7738142403906
  0
ARC
  5
16A
100
AcDbEntity
  8
Layer_1
  6
ByLayer
 62
  256
370
   -1
100
AcDbCircle
 10
899.9999999999998
 20
799.9999999999998
 40
37.99999999999755
100
AcDbArc
 50
197.7016298534103
 51
200.8697987180119
  0
LINE
  5
16B
100
AcDbEntity
  8
Layer_1
  6
ByLayer
 62
  256
370
   -1
100
AcDbLine
 10
864.4930893570271
 20
786.4626702562397
 11
862.3298153740586
 21
783.0388194346003
  0
ARC
  5
16C
100
AcDbEntity
  8
Layer_1
  6
ByLayer
 62
  256
370
   -1
100
AcDbCircle
 10
863.3835966870212
 20
782.3664695324493
 40
1.250003778512239
100
AcDbArc
 50
147.4606790148569
 51
263.967150850969
  0
LINE
  5
16D
100
AcDbEntity
  8
Layer_1
  6
ByLayer
 62
  256
370
   -1
100
AcDbLine
 10
867.2778927587808
 20
780.6799664158175
 11
863.252223000998
 21
781.1233885210444
  0
ARC
  5
16E
100
AcDbEntity
  8
Layer_1
  6
ByLayer
 62
  256
370
   -1
100
AcDbCircle
 10
899.9999999999998
 20
799.9999999999997
 40
37.99999999999755
100
AcDbArc
 50
210.5587727105531
 51
213.7269415751547
  0
LINE
  5
16F
100
AcDbEntity
  8
Layer_1
  6
ByLayer
 62
  256
370
   -1
100
AcDbLine
 10
868.3956609966759
 20
778.9010484582211
 11
867.0485032915415
 21
775.0816669779647
  0
ARC
  5
170
100
AcDbEntity
  8
Layer_1
  6
ByLayer
 62
  256
370
   -1
100
AcDbCircle
 10
868.2254760350564
 20
774.660662693551
 40
1.250003778512239
100
AcDbArc
 50
160.3178218719997
 51
276.8242937081118
  0
LINE
  5
171
100
AcDbEntity
  8
Layer_1
  6
ByLayer
 62
  256
370
   -1
100
AcDbLine
 10
872.3974162223481
 20
773.8830061301554
 11
868.3740077092674
 21
773.419514923118
  0
ARC
  5
172
100
AcDbEntity
  8
Layer_1
  6
ByLayer
 62
  256
370
   -1
100
AcDbCircle
 10
899.9999999999998
 20
799.9999999999997
 40
37.99999999999755
100
AcDbArc
 50
223.415915567696
 51
226.5840844322976
  0
LINE
  5
173
100
AcDbEntity
  8
Layer_1
  6
ByLayer
 62
  256
370
   -1
100
AcDbLine
 10
873.8830061621783
 20
772.3974161920564
 11
873.419516847454
 21
768.3740237889511
  0
ARC
  5
174
100
AcDbEntity
  8
Layer_1
  6
ByLayer
 62
  256
370
   -1
100
AcDbCircle
 10
874.6606626935512
 20
768.2254760350562
 40
1.250003778512239
100
AcDbArc
 50
173.1749647291426
 51
289.6814365652547
  0
LINE
  5
175
100
AcDbEntity
  8
Layer_1
  6
ByLayer
 62
  256
370
   -1
100
AcDbLine
 10
878.901048494879
 20
768.3956609721964
 11
875.0816517296372
 21
767.0484978373863
  0
ARC
  5
176
100
AcDbEntity
  8
Layer_1
  6
ByLayer
 62
  256
370
   -1
100
AcDbCircle
 10
899.9999999999999
 20
799.9999999999995
 40
37.99999999999755
100
AcDbArc
 50
236.2730584248388
 51
239.4412272894405
  0
LINE
  5
177
100
AcDbEntity
  8
Layer_1
  6
ByLayer
 62
  256
370
   -1
100
AcDbLine
 10
880.679966453778
 20
767.2778927363744
 11
881.1233868190669
 21
763.2522391057355
  0
ARC
  5
178
100
AcDbEntity
  8
Layer_1
  6
ByLayer
 62
  256
370
   -1
100
AcDbCircle
 10
882.3664695324495
 20
763.3835966870209
 40
1.250003778512239
100
AcDbArc
 50
186.0321075862854
 51
302.5385794223976
  0
LINE
  5
179
100
AcDbEntity
  8
Layer_1
  6
ByLayer
 62
  256
370
   -1
100
AcDbLine
 10
886.4626702974257
 20
764.4930893413184
 11
883.0388057822439
 21
762.3298066635783
  0
ARC
  5
17A
100
AcDbEntity
  8
Layer_1
  6
ByLayer
 62
  256
370
   -1
100
AcDbCircle
 10
899.9999999999999
 20
799.9999999999995
 40
37.99999999999755
100
AcDbArc
 50
249.1302012819817
 51
252.2983701465833
  0
LINE
  5
17B
100
AcDbEntity
  8
Layer_1
  6
ByLayer
 62
  256
370
   -1
100
AcDbLine
 10
888.4457139008196
 20
763.7991923745111
 11
889.773808997444
 21
759.9731405990445
  0
ARC
  5
17C
100
AcDbEntity
  8
Layer_1
  6
ByLayer
 62
  256
370
   -1
100
AcDbCircle
 10
890.9564952202015
 20
760.3778166978832
 40
1.250003778512239
100
AcDbArc
 50
198.8892504434283
 51
315.3957222795405
  0
LINE
  5
17D
100
AcDbEntity
  8
Layer_1
  6
ByLayer
 62
  256
370
   -1
100
AcDbLine
 10
894.7031103382254
 20
762.3709824748136
 11
891.8464649367081
 21
759.5000562806872
  0
ARC
  5
17E
100
AcDbEntity
  8
Layer_1
  6
ByLayer
 62
  256
370
   -1
100
AcDbCircle
 10
900
 20
799.9999999999995
 40
37.99999999999755
100
AcDbArc
 50
261.9873441391246
 51
265.1555130037262
  0
LINE
  5
17F
100
AcDbEntity
  8
Layer_1
  6
ByLayer
 62
  256
370
   -1
100
AcDbLine
 10
896.7908414993711
 20
762.1357516683981
 11
898.9370150935442
 21
758.7011559603267
  0
ARC
  5
180
100
AcDbEntity
  8
Layer_1
  6
ByLayer
 62
  256
370
   -1
100
AcDbCircle
 10
900
 20
759.3588584273426
 40
1.250003778512239
100
AcDbArc
 50
211.7463933005711
 51
328.2528651366833
  0
LINE
  5
181
100
AcDbEntity
  8
Layer_1
  6
ByLayer
 62
  256
370
   -1
100
AcDbLine
 10
903.2091585445515
 20
762.1357516721151
 11
901.0629763854431
 21
758.7011421889198
  0
ARC
  5
182
100
AcDbEntity
  8
Layer_1
  6
ByLayer
 62
  256
370
   -1
100
AcDbCircle
 10
900
 20
799.9999999999995
 40
37.99999999999755
100
AcDbArc
 50
274.8444869962674
 51
278.012655860869
  0
LINE
  5
183
100
AcDbEntity
  8
Layer_1
  6
ByLayer
 62
  256
370
   -1
100
AcDbLine
 10
905.2968897054232
 20
762.3709824809636
 11
908.1535236914925
 21
759.5000678107125
  0
ARC
  5
184
100
AcDbEntity
  8
Layer_1
  6
ByLayer
 62
  256
370
   -1
100
AcDbCircle
 10
909.0435047797985
 20
760.3778166978832
 40
1.250003778512239
100
AcDbArc
 50
224.603536157714
 51
341.1100079938262
  0
LINE
  5
185
100
AcDbEntity
  8
Layer_1
  6
ByLayer
 62
  256
370
   -1
100
AcDbLine
 10
911.5542861411748
 20
763.7991923879086
 11
910.2261857596092
 21
759.9731252768119
  0
ARC
  5
186
100
AcDbEntity
  8
Layer_1
  6
ByLayer
 62
  256
370
   -1
100
AcDbCircle
 10
900
 20
799.9999999999995
 40
37.99999999999755
100
AcDbArc
 50
287.7016298534103
 51
290.8697987180119
  0
LINE
  5
187
100
AcDbEntity
  8
Layer_1
  6
ByLayer
 62
  256
370
   -1
100
AcDbLine
 10
913.5373297437601
 20
764.4930893570269
 11
916.9611805653994
 21
762.3298153740584
  0
ARC
  5
188
100
AcDbEntity
  8
Layer_1
  6
ByLayer
 62
  256
370
   -1
100
AcDbCircle
 10
917.6335304675505
 20
763.3835966870209
 40
1.250003778512239
100
AcDbArc
 50
237.4606790148569
 51
353.967150850969
  0
LINE
  5
189
100
AcDbEntity
  8
Layer_1
  6
ByLayer
 62
  256
370
   -1
100
AcDbLine
 10
919.3200335841823
 20
767.2778927587806
 11
918.8766114789554
 21
763.2522230009978
  0
ARC
  5
18A
100
AcDbEntity
  8
Layer_1
  6
ByLayer
 62
  256
370
   -1
100
AcDbCircle
 10
900.0000000000001
 20
799.9999999999995
 40
37.99999999999755
100
AcDbArc
 50
300.5587727105531
 51
303.7269415751547
  0
LINE
  5
18B
100
AcDbEntity
  8
Layer_1
  6
ByLayer
 62
  256
370
   -1
100
AcDbLine
 10
921.0989515417787
 20
768.3956609966757
 11
924.9183330220351
 21
767.0485032915412
  0
ARC
  5
18C
100
AcDbEntity
  8
Layer_1
  6
ByLayer
 62
  256
370
   -1
100
AcDbCircle
 10
925.3393373064488
 20
768.2254760350562
 40
1.250003778512239
100
AcDbArc
 50
250.3178218719997
 51
6.824293708111862
  0
LINE
  5
18D
100
AcDbEntity
  8
Layer_1
  6
ByLayer
 62
  256
370
   -1
100
AcDbLine
 10
926.1169938698444
 20
772.3974162223478
 11
926.5804850768817
 21
768.3740077092672
  0
ARC
  5
18E
100
AcDbEntity
  8
Layer_1
  6
ByLayer
 62
  256
370
   -1
100
AcDbCircle
 10
900.0000000000001
 20
799.9999999999995
 40
37.99999999999755
100
AcDbArc
 50
313.415915567696
 51
316.5840844322976
  0
LINE
  5
18F
100
AcDbEntity
  8
Layer_1
  6
ByLayer
 62
  256
370
   -1
100
AcDbLine
 10
927.6025838079433
 20
773.883006162178
 11
931.6259762110486
 21
773.4195168474538
  0
ARC
  5
190
100
AcDbEntity
  8
Layer_1
  6
ByLayer
 62
  256
370
   -1
100
AcDbCircle
 10
931.7745239649436
 20
774.660662693551
 40
1.250003778512239
100
AcDbArc
 50
263.1749647291426
 51
19.68143656525472
  0
LINE
  5
191
100
AcDbEntity
  8
Layer_1
  6
ByLayer
 62
  256
370
   -1
100
AcDbLine
 10
931.6043390278033
 20
778.9010484948788
 11
932.9515021626135
 21
775.081651729637
  0
ARC
  5
192
100
AcDbEntity
  8
Layer_1
  6
ByLayer
 62
  256
370
   -1
100
AcDbCircle
 10
900.0000000000002
 20
799.9999999999997
 40
37.99999999999755
100
AcDbArc
 50
326.2730584248388
 51
329.4412272894405
  0
LINE
  5
193
100
AcDbEntity
  8
Layer_1
  6
ByLayer
 62
  256
370
   -1
100
AcDbLine
 10
932.7221072636254
 20
780.6799664537778
 11
936.7477608942643
 21
781.1233868190667
  0
ARC
  5
194
100
AcDbEntity
  8
Layer_1
  6
ByLayer
 62
  256
370
   -1
100
AcDbCircle
 10
936.6164033129788
 20
782.3664695324493
 40
1.250003778512239
100
AcDbArc
 50
276.0321075862854
 51
32.53857942239758
  0
LINE
  5
195
100
AcDbEntity
  8
Layer_1
  6
ByLayer
 62
  256
370
   -1
100
AcDbLine
 10
935.5069106586814
 20
786.4626702974255
 11
937.6701933364214
 21
783.0388057822437
  0
ARC
  5
196
100
AcDbEntity
  8
Layer_1
  6
ByLayer
 62
  256
370
   -1
100
AcDbCircle
 10
900.0000000000002
 20
799.9999999999997
 40
37.99999999999755
100
AcDbArc
 50
339.1302012819817
 51
342.2983701465833
  0
LINE
  5
197
100
AcDbEntity
  8
Layer_1
  6
ByLayer
 62
  256
370
   -1
100
AcDbLine
 10
936.2008076254887
 20
788.4457139008193
 11
940.0268594009552
 21
789.7738089974438
  0
ARC
  5
198
100
AcDbEntity
  8
Layer_1
  6
ByLayer
 62
  256
370
   -1
100
AcDbCircle
 10
939.6221833021166
 20
790.9564952202013
 40
1.250003778512239
100
AcDbArc
 50
288.8892504434283
 51
45.39572227954043
  0
LINE
  5
199
100
AcDbEntity
  8
Layer_1
  6
ByLayer
 62
  256
370
   -1
100
AcDbLine
 10
937.6290175251862
 20
794.7031103382252
 11
940.4999437193126
 21
791.8464649367079
  0
ARC
  5
19A
100
AcDbEntity
  8
Layer_1
  6
ByLayer
 62
  256
370
   -1
100
AcDbCircle
 10
900.0000000000002
 20
799.9999999999998
 40
37.99999999999755
100
AcDbArc
 50
351.9873441391246
 51
355.1555130037262
  0
LINE
  5
19B
100
AcDbEntity
  8
Layer_1
  6
ByLayer
 62
  256
370
   -1
100
AcDbLine
 10
937.8642483316016
 20
796.7908414993709
 11
941.2988440396731
 21
798.937015093544
  0
ARC
  5
19C
100
AcDbEntity
  8
Layer_1
  6
ByLayer
 62
  256
370
   -1
100
AcDbCircle
 10
940.6411415726571
 20
799.9999999999998
 40
1.250003778512239
100
AcDbArc
 50
301.7463933005711
 51
58.25286513668329
  0
LINE
  5
19D
100
AcDbEntity
  8
Layer_1
  6
ByLayer
 62
  256
370
   -1
100
AcDbLine
 10
937.8642483278846
 20
803.2091585445513
 11
941.29885781108
 21
801.0629763854429
  0
ARC
  5
19E
100
AcDbEntity
  8
Layer_1
  6
ByLayer
 62
  256
370
   -1
100
AcDbCircle
 10
900.0000000000002
 20
799.9999999999998
 40
37.99999999999755
100
AcDbArc
 50
4.844486996267414
 51
8.012655860869032
  0
LINE
  5
19F
100
AcDbEntity
  8
Layer_1
  6
ByLayer
 62
  256
370
   -1
100
AcDbLine
 10
937.6290175190362
 20
805.2968897054229
 11
940.4999321892873
 21
808.1535236914923
  0
ARC
  5
1A0
100
AcDbEntity
  8
Layer_1
  6
ByLayer
 62
  256
370
   -1
100
AcDbCircle
 10
939.6221833021166
 20
809.0435047797982
 40
1.250003778512239
100
AcDbArc
 50
314.603536157714
 51
71.11000799382614
  0
LINE
  5
1A1
100
AcDbEntity
  8
Layer_1
  6
ByLayer
 62
  256
370
   -1
100
AcDbLine
 10
936.2008076120911
 20
811.5542861411745
 11
940.0268747231879
 21
810.2261857596089
  0
ARC
  5
1A2
100
AcDbEntity
  8
Layer_1
  6
ByLayer
 62
  256
370
   -1
100
AcDbCircle
 10
900.0000000000002
 20
799.9999999999998
 40
37.99999999999755
100
AcDbArc
 50
17.70162985341027
 51
20.86979871801189
  0
LINE
  5
1A3
100
AcDbEntity
  8
Layer_1
  6
ByLayer
 62
  256
370
   -1
100
AcDbLine
 10
935.5069106429729
 20
813.5373297437598
 11
937.6701846259414
 21
816.9611805653992
  0
ARC
  5
1A4
100
AcDbEntity
  8
Layer_1
  6
ByLayer
 62
  256
370
   -1
100
AcDbCircle
 10
936.6164033129788
 20
817.6335304675503
 40
1.250003778512239
100
AcDbArc
 50
327.4606790148569
 51
83.96715085096901
  0
LINE
  5
1A5
100
AcDbEntity
  8
Layer_1
  6
ByLayer
 62
  256
370
   -1
100
AcDbLine
 10
932.7221072412192
 20
819.3200335841821
 11
936.747776999002
 21
818.8766114789552
  0
ARC
  5
1A6
100
AcDbEntity
  8
Layer_1
  6
ByLayer
 62
  256
370
   -1
100
AcDbCircle
 10
900.0000000000002
 20
799.9999999999999
 40
37.99999999999755
100
AcDbArc
 50
30.55877271055313
 51
33.72694157515475
  0
LINE
  5
1A7
100
AcDbEntity
  8
Layer_1
  6
ByLayer
 62
  256
370
   -1
100
AcDbLine
 10
931.6043390033241
 20
821.0989515417784
 11
932.9514967084585
 21
824.9183330220349
  0
ARC
  5
1A8
100
AcDbEntity
  8
Layer_1
  6
ByLayer
 62
  256
370
   -1
100
AcDbCircle
 10
931.7745239649436
 20
825.3393373064486
 40
1.250003778512239
100
AcDbArc
 50
340.3178218719997
 51
96.82429370811187
  0
LINE
  5
1A9
100
AcDbEntity
  8
Layer_1
  6
ByLayer
 62
  256
370
   -1
100
AcDbLine
 10
927.6025837776519
 20
826.1169938698441
 11
931.6259922907326
 21
826.5804850768815
  0
ARC
  5
1AA
100
AcDbEntity
  8
Layer_1
  6
ByLayer
 62
  256
370
   -1
100
AcDbCircle
 10
900.0000000000002
 20
799.9999999999999
 40
37.99999999999755
100
AcDbArc
 50
43.41591556769598
 51
46.5840844322976
  0
LINE
  5
1AB
100
AcDbEntity
  8
Layer_1
  6
ByLayer
 62
  256
370
   -1
100
AcDbLine
 10
926.1169938378217
 20
827.6025838079431
 11
926.580483152546
 21
831.6259762110484
  0
ARC
  5
1AC
100
AcDbEntity
  8
Layer_1
  6
ByLayer
 62
  256
370
   -1
100
AcDbCircle
 10
925.3393373064488
 20
831.7745239649433
 40
1.250003778512239
100
AcDbArc
 50
353.1749647291426
 51
109.6814365652547
  0
LINE
  5
1AD
100
AcDbEntity
  8
Layer_1
  6
ByLayer
 62
  256
370
   -1
100
AcDbLine
 10
921.098951505121
 20
831.6043390278031
 11
924.9183482703628
 21
832.9515021626132
  0
ARC
  5
1AE
100
AcDbEntity
  8
Layer_1
  6
ByLayer
 62
  256
370
   -1
100
AcDbCircle
 10
900.0000000000001
 20
800
 40
37.99999999999755
100
AcDbArc
 50
56.27305842483884
 51
59.44122728944046
  0
LINE
  5
1AF
100
AcDbEntity
  8
Layer_1
  6
ByLayer
 62
  256
370
   -1
100
AcDbLine
 10
919.320033546222
 20
832.7221072636252
 11
918.8766131809331
 21
836.747760894264
  0
ARC
  5
1B0
100
AcDbEntity
  8
Layer_1
  6
ByLayer
 62
  256
370
   -1
100
AcDbCircle
 10
917.6335304675505
 20
836.6164033129786
 40
1.250003778512239
100
AcDbArc
 50
6.032107586285427
 51
122.5385794223976
  0
LINE
  5
1B1
100
AcDbEntity
  8
Layer_1
  6
ByLayer
 62
  256
370
   -1
100
AcDbLine
 10
913.5373297025743
 20
835.5069106586811
 11
916.9611942177561
 21
837.6701933364212
  0
ARC
  5
1B2
100
AcDbEntity
  8
Layer_1
  6
ByLayer
 62
  256
370
   -1
100
AcDbCircle
 10
900.0000000000001
 20
800
 40
37.99999999999755
100
AcDbArc
 50
69.1302012819817
 51
72.29837014658332
  0
LINE
  5
1B3
100
AcDbEntity
  8
Layer_1
  6
ByLayer
 62
  256
370
   -1
100
AcDbLine
 10
911.5542860991804
 20
836.2008076254884
 11
910.226191002556
 21
840.026859400955
  0
ARC
  5
1B4
100
AcDbEntity
  8
Layer_1
  6
ByLayer
 62
  256
370
   -1
100
AcDbCircle
 10
909.0435047797985
 20
839.6221833021164
 40
1.250003778512239
100
AcDbArc
 50
18.88925044342828
 51
135.3957222795404
  0
LINE
  5
1B5
100
AcDbEntity
  8
Layer_1
  6
ByLayer
 62
  256
370
   -1
100
AcDbLine
 10
905.2968896617746
 20
837.629017525186
 11
908.1535350632919
 21
840.4999437193122
  0
ARC
  5
1B6
100
AcDbEntity
  8
Layer_1
  6
ByLayer
 62
  256
370
   -1
100
AcDbCircle
 10
900
 20
800
 40
37.99999999999755
100
AcDbArc
 50
81.98734413912456
 51
85.15551300372617
  0
LINE
  5
1B7
100
AcDbEntity
  8
Layer_1
  6
ByLayer
 62
  256
370
   -1
100
AcDbLine
 10
903.2091585006289
 20
837.8642483316014
 11
901.0629849064558
 21
841.2988440396729
  0
CIRCLE
  5
1B8
100
AcDbEntity
  8
Layer_1
  6
ByLayer
 62
  256
370
   -1
100
AcDbCircle
 10
900
 20
832
 40
2.5
  0
ARC
  5
1B9
100
AcDbEntity
  8
Layer_1
  6
ByLayer
 62
  256
370
   -1
100
AcDbCircle
 10
900.0000000000031
 20
828.181980515331
 40
2.250000000000299
100
AcDbArc
 50
225.0004746403011
 51
315.0000000000246
  0
LINE
  5
1BA
100
AcDbEntity
  8
Layer_1
  6
ByLayer
 62
  256
370
   -1
100
AcDbLine
 10
898.408996562513
 20
826.5910034374813
 11
893.6386638861381
 21
831.361336113855
  0
ARC
  5
1BB
100
AcDbEntity
  8
Layer_1
  6
ByLayer
 62
  256
370
   -1
100
AcDbCircle
 10
900.0000000000002
 20
799.9999999999997
 40
32.00000000000034
100
AcDbArc
 50
101.4663129638091
 51
150.5336870361971
  0
LINE
  5
1BC
100
AcDbEntity
  8
Layer_1
  6
ByLayer
 62
  256
370
   -1
100
AcDbLine
 10
901.5910200522521
 20
826.5910083245797
 11
906.3613380756108
 21
831.3613556539246
  0
CIRCLE
  5
1BD
100
AcDbEntity
  8
Layer_1
  6
ByLayer
 62
  256
370
   -1
100
AcDbCircle
 10
869.566191478555
 20
809.8885438199984
 40
2.5
  0
ARC
  5
1BE
100
AcDbEntity
  8
Layer_1
  6
ByLayer
 62
  256
370
   -1
100
AcDbCircle
 10
873.1973437887923
 20
808.7087109143839
 40
2.250000000000299
100
AcDbArc
 50
297.0004746403011
 51
27.00000000002458
  0
LINE
  5
1BF
100
AcDbEntity
  8
Layer_1
  6
ByLayer
 62
  256
370
   -1
100
AcDbLine
 10
874.2188058056641
 20
806.7039377729945
 11
868.2078359630812
 21
803.6411956620541
  0
ARC
  5
1C0
100
AcDbEntity
  8
Layer_1
  6
ByLayer
 62
  256
370
   -1
100
AcDbCircle
 10
900.0000000000003
 20
800.0000000000002
 40
32.00000000000034
100
AcDbArc
 50
173.4663129638091
 51
222.5336870361971
  0
LINE
  5
1C1
100
AcDbEntity
  8
Layer_1
  6
ByLayer
 62
  256
370
   -1
100
AcDbLine
 10
875.202100492587
 20
809.7302234581116
 11
872.1393399178132
 21
815.7411838928658
  0
CIRCLE
  5
1C2
100
AcDbEntity
  8
Layer_1
  6
ByLayer
 62
  256
370
   -1
100
AcDbCircle
 10
881.1908719266406
 20
774.1114561800017
 40
2.5
  0
ARC
  5
1C3
100
AcDbEntity
  8
Layer_1
  6
ByLayer
 62
  256
370
   -1
100
AcDbCircle
 10
883.4350474726918
 20
777.2002988279554
 40
2.250000000000299
100
AcDbArc
 50
9.000474640301169
 51
99.00000000002458
  0
LINE
  5
1C4
100
AcDbEntity
  8
Layer_1
  6
ByLayer
 62
  256
370
   -1
100
AcDbLine
 10
885.6573491548257
 20
777.5522579646936
 11
886.7126981631338
 21
770.8890465649831
  0
ARC
  5
1C5
100
AcDbEntity
  8
Layer_1
  6
ByLayer
 62
  256
370
   -1
100
AcDbCircle
 10
899.9999999999998
 20
800.0000000000005
 40
32.00000000000034
100
AcDbArc
 50
245.4663129638091
 51
294.5336870361971
  0
LINE
  5
1C6
100
AcDbEntity
  8
Layer_1
  6
ByLayer
 62
  256
370
   -1
100
AcDbLine
 10
883.0830352025622
 20
779.4226004906649
 11
876.4198270445902
 21
778.3672310150288
  0
CIRCLE
  5
1C7
100
AcDbEntity
  8
Layer_1
  6
ByLayer
 62
  256
370
   -1
100
AcDbCircle
 10
918.8091280733589
 20
774.1114561800016
 40
2.5
  0
ARC
  5
1C8
100
AcDbEntity
  8
Layer_1
  6
ByLayer
 62
  256
370
   -1
100
AcDbCircle
 10
916.5649525273027
 20
777.2002988279517
 40
2.250000000000299
100
AcDbArc
 50
81.00047464030116
 51
171.0000000000246
  0
LINE
  5
1C9
100
AcDbEntity
  8
Layer_1
  6
ByLayer
 62
  256
370
   -1
100
AcDbLine
 10
916.9169484832456
 20
779.4225946784964
 11
923.5801598829564
 21
778.36724567019
  0
ARC
  5
1CA
100
AcDbEntity
  8
Layer_1
  6
ByLayer
 62
  256
370
   -1
100
AcDbCircle
 10
899.9999999999994
 20
800.0000000000001
 40
32.00000000000034
100
AcDbArc
 50
317.4663129638091
 51
6.533687036197053
  0
LINE
  5
1CB
100
AcDbEntity
  8
Layer_1
  6
ByLayer
 62
  256
370
   -1
100
AcDbLine
 10
914.3426402761108
 20
777.5522442450339
 11
913.2873117351423
 21
770.8890296036475
  0
CIRCLE
  5
1CC
100
AcDbEntity
  8
Layer_1
  6
ByLayer
 62
  256
370
   -1
100
AcDbCircle
 10
930.4338085214448
 20
809.8885438199982
 40
2.5
  0
ARC
  5
1CD
100
AcDbEntity
  8
Layer_1
  6
ByLayer
 62
  256
370
   -1
100
AcDbCircle
 10
926.8026562112095
 20
808.7087109143779
 40
2.250000000000299
100
AcDbArc
 50
153.0004746403012
 51
243.0000000000246
  0
LINE
  5
1CE
100
AcDbEntity
  8
Layer_1
  6
ByLayer
 62
  256
370
   -1
100
AcDbLine
 10
924.7978999937509
 20
809.7302061463342
 11
927.8606421046899
 21
815.7411759889179
  0
ARC
  5
1CF
100
AcDbEntity
  8
Layer_1
  6
ByLayer
 62
  256
370
   -1
100
AcDbCircle
 10
899.9999999999997
 20
799.9999999999995
 40
32.00000000000034
100
AcDbArc
 50
29.46631296380905
 51
78.53368703619705
  0
LINE
  5
1D0
100
AcDbEntity
  8
Layer_1
  6
ByLayer
 62
  256
370
   -1
100
AcDbLine
 10
925.7812039764873
 20
806.7039234816101
 11
931.792183226843
 21
803.6411998345334
  0
CIRCLE
  5
1D1
100
AcDbEntity
  8
noname
  6
ByLayer
 62
  256
370
   -1
100
AcDbCircle
 10
999.999999999999
 20
800.0000000000014
 40
21
  0
CIRCLE
  5
1D2
100
AcDbEntity
  8
noname
  6
ByLayer
 62
  256
370
   -1
100
AcDbCircle
 10
978.999999999999
 20
800.0000000000014
 40
2.25
  0
LINE
  5
1D3
100
AcDbEntity
  8
noname
  6
ByLayer
 62
  256
370
   -1
100
AcDbLine
 10
999.999999999999
 20
799.9999999999983
 11
1069.999999999999
 21
800.0000000000052
  0
LINE
  5
1D4
100
AcDbEntity
  8
noname
  6
ByLayer
 62
  256
370
   -1
100
AcDbLine
 10
1000
 20
800
 11
1010.5
 21
818.1865334794734
  0
CIRCLE
  5
1D5
100
AcDbEntity
  8
noname
  6
ByLayer
 62
  256
370
   -1
100
AcDbCircle
 10
999.999999999999
 20
799.9999999999983
 40
3.125
  0
CIRCLE
  5
1D6
100
AcDbEntity
  8
Layer_1
  6
ByLayer
 62
  256
370
   -1
100
AcDbCircle
 10
999.999999999999
 20
821.0000000000014
 40
2.25
  0
CIRCLE
  5
1D7
100
AcDbEntity
  8
Layer_1
  6
ByLayer
 62
  256
370
   -1
100
AcDbCircle
 10
989.499999999999
 20
818.1865334794745
 40
2.25
  0
CIRCLE
  5
1D8
100
AcDbEntity
  8
Layer_1
  6
ByLayer
 62
  256
370
   -1
100
AcDbCircle
 10
981.8134665205258
 20
810.5000000000014
 40
2.25
  0
CIRCLE
  5
1D9
100
AcDbEntity
  8
Layer_1
  6
ByLayer
 62
  256
370
   -1
100
AcDbCircle
 10
978.999999999999
 20
800.0000000000014
 40
2.25
  0
CIRCLE
  5
1DA
100
AcDbEntity
  8
Layer_1
  6
ByLayer
 62
  256
370
   -1
100
AcDbCircle
 10
981.8134665205258
 20
789.5000000000014
 40
2.25
  0
CIRCLE
  5
1DB
100
AcDbEntity
  8
Layer_1
  6
ByLayer
 62
  256
370
   -1
100
AcDbCircle
 10
989.499999999999
 20
781.8134665205281
 40
2.25
  0
CIRCLE
  5
1DC
100
AcDbEntity
  8
Layer_1
  6
ByLayer
 62
  256
370
   -1
100
AcDbCircle
 10
999.999999999999
 20
779.0000000000014
 40
2.25
  0
CIRCLE
  5
1DD
100
AcDbEntity
  8
Layer_1
  6
ByLayer
 62
  256
370
   -1
100
AcDbCircle
 10
1010.499999999999
 20
781.8134665205281
 40
2.25
  0
CIRCLE
  5
1DE
100
AcDbEntity
  8
Layer_1
  6
ByLayer
 62
  256
370
   -1
100
AcDbCircle
 10
1018.186533479472
 20
789.5000000000014
 40
2.25
  0
CIRCLE
  5
1DF
100
AcDbEntity
  8
Layer_1
  6
ByLayer
 62
  256
370
   -1
100
AcDbCircle
 10
1020.999999999999
 20
800.0000000000014
 40
2.25
  0
CIRCLE
  5
1E0
100
AcDbEntity
  8
Layer_1
  6
ByLayer
 62
  256
370
   -1
100
AcDbCircle
 10
1018.186533479472
 20
810.5000000000014
 40
2.25
  0
CIRCLE
  5
1E1
100
AcDbEntity
  8
Layer_1
  6
ByLayer
 62
  256
370
   -1
100
AcDbCircle
 10
1010.499999999999
 20
818.1865334794745
 40
2.25
  0
LINE
  5
1E2
100
AcDbEntity
  8
noname
  6
ByLayer
 62
  256
370
   -1
100
AcDbLine
 10
1010.499999999998
 20
818.1865334794743
 11
1002.589926318693
 21
810.2764597981692
  0
LINE
  5
1E3
100
AcDbEntity
  8
noname
  6
ByLayer
 62
  256
370
   -1
100
AcDbLine
 10
1002.303932188131
 20
823.3090441328171
 11
1016.446067811862
 21
809.1669085090862
  0
LINE
  5
1E4
100
AcDbEntity
  8
noname
  6
ByLayer
 62
  256
370
   -1
100
AcDbLine
 10
1009.417657148515
 20
818.8266668908445
 11
989.4176571485149
 21
818.826666890842
  0
LINE
  5
1E5
100
AcDbEntity
  8
noname
  6
ByLayer
 62
  256
370
   -1
100
AcDbLine
 10
999.999999999999
 20
821.0000000000014
 11
1000.582342851294
 21
818.8266668908435
  0
LINE
  5
1E6
100
AcDbEntity
  8
noname
  6
ByLayer
 62
  256
370
   -1
100
AcDbLine
 10
1010.5
 20
818.1865334794736
 11
1008.551442841495
 21
817.061533479453
  0
LINE
  5
1E7
100
AcDbEntity
  8
noname
  6
ByLayer
 62
  256
370
   -1
100
AcDbLine
 10
1003.551442841492
 20
825.7217875172958
 11
1013.551442841666
 21
808.4012794417073
  0
LINE
  5
1E8
100
AcDbEntity
  8
noname
  6
ByLayer
 62
  256
370
   -1
100
AcDbLine
 10
1008.551442841495
 20
817.0615334794529
 11
1000.582342851306
 21
818.8266668908016
  0
LINE
  5
1E9
100
AcDbEntity
  8
noname
  6
ByLayer
 62
  256
370
   -1
100
AcDbLine
 10
1006.729451451685
 20
827.707467446411
 11
1002.404334241115
 21
808.1807329238434
  0
CIRCLE
  5
1EA
100
AcDbEntity
  8
noname
  6
ByLayer
 62
  256
370
   -1
100
AcDbCircle
 10
999.9999999999983
 20
799.999999999997
 40
3.75
  0
LINE
  5
1EB
100
AcDbEntity
  8
noname
  6
ByLayer
 62
  256
370
   -1
100
AcDbLine
 10
1003.749999999998
 20
799.999999999997
 11
1009.375000000006
 21
816.2379763209693
  0
LINE
  5
1EC
100
AcDbEntity
  8
noname
  6
ByLayer
 62
  256
370
   -1
100
AcDbLine
 10
1034.909835475693
 20
798.2991830998586
 11
997.1133881747722
 21
811.3922565140247
  0
LWPOLYLINE
  5
1ED
100
AcDbEntity
  8
0
  6
ByLayer
 62
  256
370
   -1
100
AcDbPolyline
 90
   28
 70
    1
 43
0
 10
1009.374999999987
 20
816.2379763209443
 42
0.1285480588086425
 10
1004.06696519716
 20
804.0669651971623
 42
0.1285480588086421
 10
1016.237976320962
 20
809.374999999976
 42
0.1316501787325764
 10
1017.061533479451
 20
808.5514428414971
 42
0.3887703990941132
 10
1018.826666890799
 20
800.5823428513078
 42
0.1316524975464842
 10
1018.826666890799
 20
799.4176571486954
 42
0.3887703990941203
 10
1017.061515713769
 20
791.4485469013841
 42
0.1316501787325708
 10
1016.237976320942
 20
790.6250000000136
 42
0.1285480588086424
 10
1004.06696519716
 20
795.93303480284
 42
0.1285480588086423
 10
1009.374999999974
 20
783.7620236790387
 42
0.131650178732577
 10
1008.551442841495
 20
782.9384665205496
 42
0.3887703990941119
 10
1000.582342851305
 20
781.1733331092009
 42
0.1316524975464838
 10
999.417657148693
 20
781.1733331092013
 42
0.388770399094117
 10
991.448546901382
 20
782.9384842862314
 42
0.1316501787325732
 10
990.6250000000114
 20
783.7620236790581
 42
0.128548058808643
 10
995.9330348028377
 20
795.9330348028404
 42
0.1285480588086416
 10
983.7620236790362
 20
790.6250000000266
 42
0.131650178732577
 10
982.9384665205473
 20
791.4485571585054
 42
0.388770399094111
 10
981.1733331091987
 20
799.4176571486947
 42
0.1316524975464808
 10
981.1733331091989
 20
800.5823428513072
 42
0.3887703990941097
 10
982.9384842862293
 20
808.5514530986185
 42
0.1316501787325686
 10
983.7620236790559
 20
809.374999999989
 42
0.1285480588086432
 10
995.9330348028379
 20
804.0669651971627
 42
0.1285480588086417
 10
990.6250000000243
 20
816.237976320964
 42
0.131650178732577
 10
991.448557158503
 20
817.061533479453
 42
0.388770399094112
 10
999.4176571486925
 20
818.8266668908017
 42
0.1316524975464837
 10
1000.582342851305
 20
818.8266668908013
 42
0.3887703990941168
 10
1008.551453098616
 20
817.0615157137711
 42
0.1316501787325726
  0
LWPOLYLINE
  5
1EE
100
AcDbEntity
  8
0
  6
ByLayer
 62
  256
370
   -1
100
AcDbPolyline
 90
    4
 70
    1
 43
0
 10
999.9999999999999
 20
799.9999999999969
 42
-0.1152090538363255
 10
1003.102640181594
 20
813.2865358464574
 42
-0.09308864391851696
 10
999.9999999999997
 20
814.7811248350661
 42
-0.09308864391850911
 10
996.8973598184064
 20
813.2865358464567
 42
-0.1152090538363257
  0
LWPOLYLINE
  5
1EF
100
AcDbEntity
  8
0
  6
ByLayer
 62
  256
370
   -1
100
AcDbPolyline
 90
    4
 70
    1
 43
0
 10
999.9999999999983
 20
799.9999999999953
 42
-0.1152090538363257
 10
1013.286535846459
 20
796.8973598184017
 42
-0.09308864391851628
 10
1014.781124835067
 20
799.9999999999956
 42
-0.09308864391850878
 10
1013.286535846458
 20
803.1026401815889
 42
-0.1152090538363255
  0
LWPOLYLINE
  5
1F0
100
AcDbEntity
  8
0
  6
ByLayer
 62
  256
370
   -1
100
AcDbPolyline
 90
    4
 70
    1
 43
0
 10
999.9999999999966
 20
799.9999999999969
 42
-0.1152090538363255
 10
996.8973598184029
 20
786.7134641535367
 42
-0.09308864391851704
 10
999.9999999999969
 20
785.2188751649279
 42
-0.093088643918509
 10
1003.10264018159
 20
786.7134641535375
 42
-0.1152090538363256
  0
LWPOLYLINE
  5
1F1
100
AcDbEntity
  8
0
  6
ByLayer
 62
  256
370
   -1
100
AcDbPolyline
 90
    4
 70
    1
 43
0
 10
999.9999999999983
 20
799.9999999999987
 42
-0.1152090538363257
 10
986.7134641535379
 20
803.1026401815924
 42
-0.09308864391851628
 10
985.2188751649292
 20
799.9999999999983
 42
-0.093088643918509
 10
986.7134641535388
 20
796.897359818405
 42
-0.1152090538363258
  0
CIRCLE
  5
1F2
100
AcDbEntity
  8
noname
  6
ByLayer
 62
  256
370
   -1
100
AcDbCircle
 10
899.9999999999997
 20
799.9999999999995
 40
22
  0
LINE
  5
1F3
100
AcDbEntity
  8
noname
  6
ByLayer
 62
  256
370
   -1
100
AcDbLine
 10
892.4418399237296
 20
828.2074374164268
 11
897.6182208257532
 21
808.8889208906384
  0
CIRCLE
  5
1F4
100
AcDbEntity
  8
noname
  6
ByLayer
 62
  256
370
   -1
100
AcDbCircle
 10
894.3059810077435
 20
821.2503681783661
 40
2.5
  0
LINE
  5
1F5
100
AcDbEntity
  8
noname
  6
ByLayer
 62
  256
370
   -1
100
AcDbLine
 10
899.9999999999997
 20
821.9999999999995
 11
900.647047612756
 21
819.5851854342769
  0
LINE
  5
1F6
100
AcDbEntity
  8
noname
  6
ByLayer
 62
  256
370
   -1
100
AcDbLine
 10
899.9999999999997
 20
821.9999999999995
 11
899.3529523872434
 21
819.5851854342769
  0
LINE
  5
1F7
100
AcDbEntity
  8
noname
  6
ByLayer
 62
  256
370
   -1
100
AcDbLine
 10
888.9999999999999
 20
819.0525588832573
 11
890.7677669529662
 21
817.284791930291
  0
LINE
  5
1F8
100
AcDbEntity
  8
noname
  6
ByLayer
 62
  256
370
   -1
100
AcDbLine
 10
888.9999999999999
 20
819.0525588832573
 11
889.6470476127562
 21
816.6377443175347
  0
LINE
  5
1F9
100
AcDbEntity
  8
noname
  6
ByLayer
 62
  256
370
   -1
100
AcDbLine
 10
890.7677669529664
 20
817.2847919302909
 11
893.6589333949967
 21
823.6651827440727
  0
LINE
  5
1FA
100
AcDbEntity
  8
noname
  6
ByLayer
 62
  256
370
   -1
100
AcDbLine
 10
899.9999999999994
 20
800.0000000000001
 11
858.1088700847675
 21
799.9937879374917
  0
ARC
  5
1FB
100
AcDbEntity
  8
0
  6
ByLayer
 62
  256
370
   -1
100
AcDbCircle
 10
893.6589333949967
 20
823.6651827440727
 40
7.004871899754753
100
AcDbArc
 50
245.6231450540741
 51
324.3768549456731
  0
ARC
  5
1FC
100
AcDbEntity
  8
0
  6
ByLayer
 62
  256
370
   -1
100
AcDbCircle
 10
906.3410666050054
 20
823.665182744072
 40
7.004871899754753
100
AcDbArc
 50
215.6231450543209
 51
294.37685494592
  0
ARC
  5
1FD
100
AcDbEntity
  8
0
  6
ByLayer
 62
  256
370
   -1
100
AcDbCircle
 10
900.0000000000009
 20
822.0000000000041
 40
2.500000000024328
100
AcDbArc
 50
285.0000000002227
 51
254.9999999999993
  0
ARC
  5
1FE
100
AcDbEntity
  8
0
  6
ByLayer
 62
  256
370
   -1
100
AcDbCircle
 10
888.9999999999985
 20
819.0525588832618
 40
2.500000000024328
100
AcDbArc
 50
315.0000000002227
 51
284.9999999999993
  0
ARC
  5
1FF
100
AcDbEntity
  8
0
  6
ByLayer
 62
  256
370
   -1
100
AcDbCircle
 10
880.9474411167387
 20
811.000000000003
 40
2.500000000024328
100
AcDbArc
 50
345.0000000002227
 51
314.9999999999993
  0
ARC
  5
200
100
AcDbEntity
  8
0
  6
ByLayer
 62
  256
370
   -1
100
AcDbCircle
 10
877.9999999999951
 20
800.0000000000008
 40
2.500000000024328
100
AcDbArc
 50
15.00000000022272
 51
344.9999999999993
  0
ARC
  5
201
100
AcDbEntity
  8
0
  6
ByLayer
 62
  256
370
   -1
100
AcDbCircle
 10
880.9474411167374
 20
788.9999999999984
 40
2.500000000024328
100
AcDbArc
 50
45.00000000022274
 51
14.99999999999927
  0
ARC
  5
202
100
AcDbEntity
  8
0
  6
ByLayer
 62
  256
370
   -1
100
AcDbCircle
 10
888.9999999999962
 20
780.9474411167386
 40
2.500000000024328
100
AcDbArc
 50
75.00000000022271
 51
44.99999999999924
  0
ARC
  5
203
100
AcDbEntity
  8
0
  6
ByLayer
 62
  256
370
   -1
100
AcDbCircle
 10
899.9999999999984
 20
777.999999999995
 40
2.500000000024328
100
AcDbArc
 50
105.0000000002227
 51
74.99999999999925
  0
ARC
  5
204
100
AcDbEntity
  8
0
  6
ByLayer
 62
  256
370
   -1
100
AcDbCircle
 10
911.0000000000008
 20
780.9474411167373
 40
2.500000000024328
100
AcDbArc
 50
135.0000000002227
 51
104.9999999999993
  0
ARC
  5
205
100
AcDbEntity
  8
0
  6
ByLayer
 62
  256
370
   -1
100
AcDbCircle
 10
919.0525588832606
 20
788.9999999999961
 40
2.500000000024328
100
AcDbArc
 50
165.0000000002227
 51
134.9999999999992
  0
ARC
  5
206
100
AcDbEntity
  8
0
  6
ByLayer
 62
  256
370
   -1
100
AcDbCircle
 10
922.0000000000042
 20
799.9999999999983
 40
2.500000000024328
100
AcDbArc
 50
195.0000000002228
 51
164.9999999999993
  0
ARC
  5
207
100
AcDbEntity
  8
0
  6
ByLayer
 62
  256
370
   -1
100
AcDbCircle
 10
919.0525588832619
 20
811.0000000000007
 40
2.500000000024328
100
AcDbArc
 50
225.0000000002227
 51
194.9999999999993
  0
ARC
  5
208
100
AcDbEntity
  8
0
  6
ByLayer
 62
  256
370
   -1
100
AcDbCircle
 10
911.0000000000031
 20
819.0525588832605
 40
2.500000000024328
100
AcDbArc
 50
255.0000000002227
 51
224.9999999999992
  0
ARC
  5
209
100
AcDbEntity
  8
0
  6
ByLayer
 62
  256
370
   -1
100
AcDbCircle
 10
923.6651827440728
 20
806.3410666050039
 40
7.004871899754753
100
AcDbArc
 50
155.6231450540741
 51
234.3768549456732
  0
ARC
  5
20A
100
AcDbEntity
  8
0
  6
ByLayer
 62
  256
370
   -1
100
AcDbCircle
 10
923.6651827440721
 20
793.6589333949952
 40
7.004871899754753
100
AcDbArc
 50
125.6231450543209
 51
204.37685494592
  0
ARC
  5
20B
100
AcDbEntity
  8
0
  6
ByLayer
 62
  256
370
   -1
100
AcDbCircle
 10
906.341066605004
 20
776.3348172559278
 40
7.004871899754753
100
AcDbArc
 50
65.6231450540741
 51
144.3768549456732
  0
ARC
  5
20C
100
AcDbEntity
  8
0
  6
ByLayer
 62
  256
370
   -1
100
AcDbCircle
 10
893.6589333949953
 20
776.3348172559284
 40
7.004871899754753
100
AcDbArc
 50
35.62314505432094
 51
114.37685494592
  0
ARC
  5
20D
100
AcDbEntity
  8
0
  6
ByLayer
 62
  256
370
   -1
100
AcDbCircle
 10
876.3348172559279
 20
793.6589333949966
 40
7.004871899754753
100
AcDbArc
 50
335.6231450540741
 51
54.37685494567305
  0
ARC
  5
20E
100
AcDbEntity
  8
0
  6
ByLayer
 62
  256
370
   -1
100
AcDbCircle
 10
876.3348172559286
 20
806.3410666050053
 40
7.004871899754753
100
AcDbArc
 50
305.6231450543208
 51
24.37685494592
  0
LINE
  5
20F
100
AcDbEntity
  8
noname
  6
ByLayer
 62
  256
370
   -1
100
AcDbLine
 10
894.3059810077435
 20
821.2503681783661
 11
868.3281544902601
 21
795.5307597855939
  0
ARC
  5
210
100
AcDbEntity
  8
0
  6
ByLayer
 62
  256
370
   -1
100
AcDbCircle
 10
872.8381964248726
 20
799.9959721587363
 40
23.6534576508045
100
AcDbArc
 50
9.302325886210518
 51
44.71382166767642
  0
ARC
  5
211
100
AcDbEntity
  8
0
  6
ByLayer
 62
  256
370
   -1
100
AcDbCircle
 10
900.0040278412622
 20
827.1618035751287
 40
23.6534576508045
100
AcDbArc
 50
225.2861783323271
 51
260.6976741137956
  0
ARC
  5
212
100
AcDbEntity
  8
0
  6
ByLayer
 62
  256
370
   -1
100
AcDbCircle
 10
900.0040278412633
 20
772.8381964248721
 40
23.6534576508045
100
AcDbArc
 50
99.30232588621053
 51
134.7138216676764
  0
ARC
  5
213
100
AcDbEntity
  8
0
  6
ByLayer
 62
  256
370
   -1
100
AcDbCircle
 10
872.8381964248709
 20
800.0040278412616
 40
23.6534576508045
100
AcDbArc
 50
315.2861783323272
 51
350.6976741137956
  0
ARC
  5
214
100
AcDbEntity
  8
0
  6
ByLayer
 62
  256
370
   -1
100
AcDbCircle
 10
927.1618035751276
 20
800.0040278412628
 40
23.6534576508045
100
AcDbArc
 50
189.3023258862105
 51
224.7138216676764
  0
ARC
  5
215
100
AcDbEntity
  8
0
  6
ByLayer
 62
  256
370
   -1
100
AcDbCircle
 10
899.995972158738
 20
772.8381964248704
 40
23.6534576508045
100
AcDbArc
 50
45.28617833232713
 51
80.6976741137956
  0
ARC
  5
216
100
AcDbEntity
  8
0
  6
ByLayer
 62
  256
370
   -1
100
AcDbCircle
 10
899.9959721587369
 20
827.161803575127
 40
23.6534576508045
100
AcDbArc
 50
279.3023258862105
 51
314.7138216676764
  0
ARC
  5
217
100
AcDbEntity
  8
0
  6
ByLayer
 62
  256
370
   -1
100
AcDbCircle
 10
927.1618035751293
 20
799.9959721587375
 40
23.6534576508045
100
AcDbArc
 50
135.2861783323271
 51
170.6976741137956
  0
LINE
  5
218
100
AcDbEntity
  8
noname
  6
ByLayer
 62
  256
370
   -1
100
AcDbLine
 10
899.3529523872382
 20
819.5851854342579
 11
900.6470476127528
 21
819.585185434289
  0
ENDSEC
  0
SECTION
  2
OBJECTS
  0
DICTIONARY
  5
C
330
0
100
AcDbDictionary
281
    1
  3
ACAD_GROUP
350
D
  0
DICTIONARY
  5
D
330
C
100
AcDbDictionary
281
    1
  0
PLOTSETTINGS
  5
219
  6
1x1
 40
0
 41
0
 42
0
 43
0
  0
ENDSEC
  0
EOF
